<svg xmlns="http://www.w3.org/2000/svg" width="410.667" height="402.667"><circle fill="#F2F2F2" cx="205.294" cy="204.596" r="189.183"/><path fill="#835F5C" d="M280.549 121.81c0-57.685-47.102-74.447-75.255-74.447-28.394 0-74.915 14.595-74.915 74.447 0 58.587-23.976 55.533-22.074 88.767 3.005 52.494 48.188 64.713 97.159 64.713 48.972 0 94.154-12.219 97.159-64.713 1.902-33.234-22.074-30.18-22.074-88.767z"/><path fill="#70514F" d="M280.549 121.81c0-27.354-10.594-45.501-24.733-57.026 9.156 11.292 15.284 26.772 15.284 47.578 0 58.587 17.719 59 15.817 92.234-3.005 52.494-41.93 61.246-90.901 61.246-29.054 0-56.773-4.301-75.144-18.762 17.275 22.105 49.986 28.211 84.592 28.211 48.972 0 94.154-12.219 97.159-64.713 1.902-33.235-22.074-30.181-22.074-88.768z"/><ellipse fill="#FFE2B0" cx="205.295" cy="131.048" rx="62.375" ry="67.992"/><path fill="#F5D9A9" d="M219.062 226.315l-13.531 12.595-14.005-12.595v-33.92h27.536z"/><path fill="#F5D9A9" d="M242.465 76.447l-50.808 28.194c7.655 35.583 59.278 46.797 59.278 46.797-10.701 22.858-33.393 38.153-55.091 38.153-13.929 0-26.79-4.981-37.171-13.393 11.425 14.008 28.072 22.842 46.62 22.842 34.448 0 62.375-30.441 62.375-67.992.001-22.367-9.91-42.209-25.203-54.601z"/><path fill="#835F5C" d="M349.667 364.744c0 3.85-3.15 7-7 7H67.923c-3.85 0-7-3.15-7-7v-.275c0-3.85 3.15-7 7-7h274.744c3.85 0 7 3.15 7 7v.275zM250.682 79.787c-16.676-18.247-39.653-19.446-56.09-16.732-16.859 2.784-47.532 17.047-51.901 57.659 0 0 29.274.821 48.966-16.072 11.204 19.933 33.157 40.777 76.012 40.777 0-.001 8.687-37.538-16.987-65.632z"/><path fill="#0D297A" d="M272.46 230.729c-16.169-3.861-54.781-16.69-54.781-16.69l-12.568 23.608-11.62-23.608s-44.085 13.055-59.651 18.887c-14.095 5.281-22.725 70.65-27.839 102.74-1.436 9.008 17.766 22.005 17.766 22.005h159.909s21.72-15.83 20.296-23.676c-5.849-32.218-10.578-98.267-31.512-103.266z"/><path fill="#FFF" d="M191.526 209.315l-14.625 10.39s11.159 5.43 28.337 17.942l-13.712-28.332z"/><path fill="#FFF" d="M219.281 209.315l14.167 10.39s-11.863 5.43-28.337 17.942l14.17-28.332z"/><path fill="#0D297A" d="M133.686 127.831c-.039-1.311-.709-32.353 19.758-53.432 11.944-12.3 28.613-18.538 49.542-18.538 38.17 0 56.255 19.59 64.704 36.024 9.115 17.729 9.221 35.17 9.221 35.903h-2.834c0-.173-.117-17.574-8.952-34.698-11.775-22.824-32.683-34.396-62.139-34.396-20.134 0-36.119 5.947-47.509 17.678-19.641 20.228-18.968 51.065-18.959 51.375l-2.832.084z"/><path fill="#7DE7FF" d="M294.571 340.363c0 3.681-3.014 6.695-6.695 6.695H122.715c-3.683 0-6.696-3.015-6.696-6.695v-90.391c0-3.684 3.013-6.696 6.696-6.696h165.161c3.682 0 6.695 3.013 6.695 6.696v90.391z"/><path fill="#53CFEB" d="M287.875 243.276h-6.378s-14.889 97.087-165.479 97.087c0 3.681 3.013 6.695 6.696 6.695h165.161c3.682 0 6.695-3.015 6.695-6.695v-90.391c.001-3.683-3.013-6.696-6.695-6.696z"/><circle fill="#FFF" cx="205.294" cy="295.167" r="20.014"/><g fill="none" stroke="#FF8E1C" stroke-miterlimit="10"><circle cx="205.338" cy="295.167" r="10.601"/><ellipse cx="205.25" cy="295.167" rx="10.599" ry="7.04"/><ellipse cx="205.25" cy="295.167" rx="10.599" ry="2.311"/></g><g fill="none" stroke="#FF8E1C" stroke-miterlimit="10"><ellipse cx="205.294" cy="295.167" rx="7.04" ry="10.6"/><ellipse cx="205.294" cy="295.167" rx="2.31" ry="10.6"/></g><path d="M164.299 349.655c0 5.979-1.392 1.707-3.109 1.707h-25.823c-1.717 0-3.109 3.371-3.109-1.707v-3.313a3.108 3.108 0 013.109-3.108h25.823a3.109 3.109 0 013.109 3.108v3.313zm114.033 1.827c0 1.717-1.391 1.358-3.108 1.358H249.4c-1.718 0-3.108.479-3.108-1.239v-5.26a3.107 3.107 0 013.108-3.108h25.823a3.107 3.107 0 013.108 3.108v5.141z" fill="#FFF"/><path fill="#7DE7FF" d="M294.571 353.562a3.907 3.907 0 01-3.906 3.907h-170.74a3.906 3.906 0 01-3.906-3.907 3.905 3.905 0 013.906-3.906h170.739a3.905 3.905 0 013.907 3.906z"/><path fill="#0D297A" d="M187.078 190.329c-20.904 0-36.047-5.351-45.005-15.903-10.919-12.862-8.484-28.574-8.375-29.237l2.795.458c-.024.15-2.314 15.132 7.764 26.975 8.399 9.87 22.806 14.875 42.821 14.875v2.832z"/><path fill="#FF8E1C" d="M142.377 150.806c-10.331 0-18.706-8.374-18.706-18.706v-2.105c0-10.332 8.375-18.706 18.706-18.706"/><path fill="#0D297A" d="M145.984 151.423a4.058 4.058 0 01-8.118 0v-40.75a4.06 4.06 0 018.118 0v40.75z"/><path fill="#FF8E1C" d="M268.211 111.289c10.33 0 18.706 8.375 18.706 18.706v2.105c0 10.332-8.376 18.706-18.706 18.706"/><path fill="#ED841A" d="M277.092 113.53a18.621 18.621 0 014.153 11.741v2.105c0 8.354-5.478 15.422-13.034 17.826v5.604c10.33 0 18.706-8.374 18.706-18.706v-2.105c0-7.117-3.975-13.304-9.825-16.465z"/><path fill="#0D297A" d="M264.604 110.673a4.06 4.06 0 014.06-4.059c2.24 0 4.06 1.818 4.06 4.059v40.75a4.06 4.06 0 01-8.12 0v-40.75z"/><circle fill="#0D297A" cx="190.757" cy="188.912" r="7.497"/><path fill="#FF6B17" d="M325.299 8.222c-35.315 0-63.944 28.629-63.944 63.944 0 9.724 2.18 18.934 6.063 27.186l-20.095 38.393 38.4-15.373c10.888 8.595 24.628 13.738 39.576 13.738 35.314 0 63.943-28.628 63.943-63.944S360.614 8.222 325.299 8.222z"/><path fill="#D35416" d="M380.885 40.573a63.917 63.917 0 012.689 18.365c0 35.316-28.629 63.945-63.943 63.945-14.948 0-28.688-5.144-39.576-13.739l-32.732 28.601 38.4-15.373c10.888 8.595 24.628 13.738 39.576 13.738 35.314 0 63.943-28.628 63.943-63.944a63.609 63.609 0 00-8.357-31.593z"/><text transform="translate(304.037 103.688)" fill="#FFF" font-family="'Montserrat-ExtraBold'" font-size="87.783">?</text></svg>