<svg xmlns="http://www.w3.org/2000/svg" xmlns:xlink="http://www.w3.org/1999/xlink" width="688" height="560"><path opacity=".5" fill="#BBB8F6" d="M328.358 262.588c2.786-1.609 7.277-1.609 10.035-.005l188.323 109.641c2.759 1.604 2.744 4.205-.041 5.813l-83.856 48.616c-2.786 1.608-7.277 1.608-10.035.005L244.46 317.018c-2.758-1.604-2.744-4.205.042-5.814l83.856-48.616z"/><path fill="#9796F7" d="M527.548 368.356l-5.622-3.586v1.234L336.144 258.041c-2.688-1.564-7.071-1.564-9.788.003l-79.269 45.935v-.669l-5.62 3.183v2.439h.007c.018 1.007.677 2.01 2 2.778l189.395 110.064c2.691 1.563 7.072 1.563 9.788-.005l82.842-47.996c2.049-1.204 1.897-2.152 1.962-3.382.028-.545.087-2.035.087-2.035z"/><path fill="#D9DFF6" d="M326.356 255.605c2.716-1.569 7.099-1.569 9.788-.005l189.395 110.065c2.691 1.563 2.677 4.101-.04 5.668l-82.842 47.998c-2.716 1.566-7.097 1.566-9.788.003L243.474 309.27c-2.69-1.563-2.676-4.1.04-5.668l82.842-47.997z"/><path fill="#B4B9F6" d="M326.161 263.008c.694-.401 1.826-.406 2.523 0l8.676 5.042c.7.406.686 1.062-.007 1.463l-6.689 3.862c-.703.406-1.834.411-2.534.005l-8.676-5.044c-.7-.406-.686-1.06.018-1.466l6.689-3.862zm5.482 10.934c-.703.406-.716 1.062-.017 1.468l8.676 5.042c.699.406 1.831.4 2.534-.005l6.688-3.862c.693-.401.707-1.056.008-1.463l-8.676-5.042c-.7-.406-1.832-.401-2.523 0l-6.69 3.862zm12.414 7.215c-.703.406-.706 1.065-.018 1.467l8.678 5.042c.698.408 1.839.408 2.542 0l6.688-3.86c.695-.4.698-1.062 0-1.468l-8.677-5.042c-.69-.401-1.83-.401-2.525 0l-6.688 3.861zm12.553 7.295c-.703.406-.717 1.063-.017 1.469l8.677 5.042c.698.406 1.83.401 2.534-.005l6.688-3.862c.694-.401.706-1.057.007-1.463l-8.676-5.042c-.698-.407-1.83-.401-2.523 0l-6.69 3.861zm12.415 7.214c-.704.405-.707 1.066-.019 1.468l8.676 5.042c.7.406 1.843.406 2.545 0l6.688-3.862c.694-.399.7-1.06 0-1.466l-8.677-5.044c-.69-.399-1.83-.399-2.525 0l-6.688 3.862zm12.433 7.226c-.704.405-.717 1.063-.019 1.468l8.678 5.042c.698.406 1.829.401 2.532-.006l6.689-3.861c.694-.4.708-1.057.009-1.462l-8.676-5.042c-.7-.407-1.832-.401-2.526 0l-6.687 3.861zm12.414 7.214c-.705.406-.709 1.065-.01 1.472l8.678 5.042c.69.402 1.831.402 2.534-.003l6.688-3.863c.694-.399.698-1.061.007-1.462l-8.676-5.042c-.698-.406-1.841-.406-2.533-.005l-6.688 3.861zm12.432 7.224c-.702.406-.706 1.067-.017 1.469l8.676 5.042c.699.406 1.841.406 2.543 0l6.689-3.862c.693-.4.698-1.06-.002-1.467l-8.677-5.041c-.688-.401-1.83-.401-2.525 0l-6.687 3.859zm12.422 7.22c-.702.406-.715 1.062-.016 1.469l8.678 5.042c.696.406 1.828.401 2.534-.005l6.688-3.862c.693-.4.707-1.057.008-1.463l-8.676-5.042c-.7-.406-1.832-.401-2.526 0l-6.69 3.861zm12.452 7.236c-.702.406-.707 1.067-.007 1.474l8.677 5.042c.688.401 1.828.401 2.534-.005l6.688-3.862c.693-.4.696-1.062.008-1.463l-8.676-5.042c-.7-.406-1.841-.406-2.534-.005l-6.69 3.861zm12.424 7.219c-.703.408-.717 1.062-.018 1.468l8.676 5.042c.7.406 1.832.401 2.534-.005l6.689-3.862c.694-.399.707-1.055.008-1.461l-8.678-5.042c-.696-.406-1.828-.401-2.523 0l-6.688 3.86zm12.431 7.225c-.702.405-.716 1.063-.017 1.468l8.676 5.042c.7.406 1.831.401 2.534-.005l6.689-3.862c.694-.399.707-1.055.009-1.462l-8.679-5.043c-.697-.405-1.829-.4-2.523 0l-6.689 3.862zm12.416 7.215c-.705.405-.709 1.065-.019 1.467l8.676 5.044c.699.404 1.839.404 2.545 0l6.688-3.863c.693-.399.696-1.062 0-1.467l-8.678-5.042c-.69-.401-1.831-.401-2.524 0l-6.688 3.861zm12.431 7.224c-.703.407-.715 1.063-.018 1.469l8.678 5.042c.698.406 1.83.401 2.532-.005l6.689-3.862c.694-.401.707-1.055.009-1.461l-8.677-5.044c-.699-.404-1.83-.399-2.525 0l-6.688 3.861zm12.415 7.215c-.703.406-.709 1.067-.009 1.474l8.677 5.042c.69.401 1.83.401 2.533-.005l6.69-3.861c.693-.401.696-1.063.006-1.464l-8.676-5.042c-.698-.406-1.841-.406-2.532-.005l-6.689 3.861zm-184.076-95.096c-.703.406-.708 1.057-.008 1.463l29.265 17.005c.698.406 1.821.406 2.523 0l6.69-3.861c.702-.406.706-1.056.008-1.462l-29.265-17.005c-.699-.406-1.821-.406-2.525 0l-6.688 3.86zm33.076 19.223c-.705.405-.697 1.063 0 1.468l8.677 5.042c.69.401 1.822.406 2.524 0l6.688-3.862c.706-.405.7-1.061.01-1.462l-8.678-5.042c-.698-.406-1.828-.412-2.532-.005l-6.689 3.861zm12.422 7.219c-.702.407-.707 1.056-.007 1.462l8.677 5.042c.698.406 1.83.412 2.534.007l6.688-3.862c.704-.405.698-1.062 0-1.468l-8.677-5.042c-.7-.406-1.822-.406-2.525 0l-6.69 3.861zm12.432 7.224c-.702.406-.706 1.058-.007 1.464l8.677 5.042c.699.406 1.82.406 2.523 0l6.688-3.862c.703-.406.707-1.055.008-1.461l-8.676-5.044c-.699-.404-1.822-.406-2.524 0l-6.689 3.861zm12.415 7.215c-.705.406-.697 1.063-.009 1.462l8.677 5.044c.699.406 1.831.411 2.533.003l6.69-3.859c.703-.406.697-1.063-.003-1.469l-8.676-5.042c-.688-.401-1.82-.406-2.525 0l-6.687 3.861zm12.433 7.226c-.704.406-.708 1.057-.009 1.462l8.677 5.043c.7.405 1.821.405 2.525 0l6.688-3.863c.704-.405.707-1.055.009-1.461l-8.677-5.042c-.7-.406-1.82-.406-2.525 0l-6.688 3.861zm12.413 7.213c-.703.406-.697 1.063.002 1.468l8.677 5.043c.688.4 1.82.405 2.523 0l6.688-3.861c.703-.406.698-1.063.01-1.464l-8.678-5.042c-.698-.406-1.83-.411-2.533-.005l-6.689 3.861zm12.461 7.242c-.704.405-.698 1.063-.009 1.463l8.679 5.042c.696.406 1.828.411 2.534.005l6.686-3.861c.704-.405.698-1.061-.001-1.468l-8.676-5.042c-.689-.401-1.821-.406-2.523 0l-6.69 3.861zm12.423 7.22c-.702.406-.708 1.055-.009 1.461l8.677 5.042c.7.406 1.822.406 2.525 0l6.688-3.861c.704-.404.709-1.056.009-1.462l-8.677-5.042c-.699-.406-1.82-.406-2.525 0l-6.688 3.862zm12.424 7.218c-.704.406-.698 1.063 0 1.469l8.677 5.042c.69.401 1.822.406 2.525 0l6.688-3.861c.704-.407.698-1.061.009-1.462l-8.677-5.042c-.699-.406-1.829-.413-2.534-.005l-6.688 3.859zm12.423 7.221c-.703.406-.707 1.056-.008 1.461l8.677 5.044c.697.404 1.829.412 2.534.005l6.688-3.861c.705-.406.697-1.063 0-1.469l-8.679-5.042c-.697-.406-1.82-.406-2.523 0l-6.689 3.862zm12.432 7.224c-.703.407-.707 1.057-.008 1.462l8.677 5.042c.7.406 1.821.406 2.523 0l6.689-3.862c.703-.405.706-1.055.009-1.461l-8.677-5.042c-.7-.406-1.822-.406-2.525 0l-6.688 3.861zm12.415 7.214c-.705.406-.698 1.063-.009 1.463l8.676 5.043c.699.405 1.831.41 2.534.005l6.688-3.862c.704-.405.698-1.062-.001-1.468l-8.676-5.042c-.691-.401-1.821-.406-2.525 0l-6.687 3.861zM298.89 278.751c-.703.407-.707 1.057-.007 1.463l9.374 5.448c.699.406 1.823.406 2.525 0l6.688-3.861c.705-.406.708-1.057.008-1.463l-9.376-5.449c-.697-.406-1.821-.406-2.523 0l-6.689 3.862zm12.927 7.513c-.703.406-.697 1.063.002 1.469l9.374 5.448c.7.406 1.822.406 2.526 0l6.688-3.862c.704-.406.708-1.056.008-1.461l-9.376-5.45c-.698-.406-1.829-.412-2.534-.006l-6.688 3.862zm-33.415 4.316c-.703.406-.707 1.056-.007 1.463l6.569 3.819c.7.406 1.821.406 2.525 0l16.875-9.744c.703-.406.717-1.063.018-1.469l-6.571-3.818c-.698-.406-1.829-.401-2.534.005l-16.875 9.744zm20.516.12c-.694.401-.708 1.055-.009 1.461l9.374 5.45c.7.405 1.84.405 2.534.006l6.689-3.862c.703-.406.707-1.067.009-1.474l-9.376-5.448c-.699-.406-1.831-.401-2.534.005l-6.687 3.862zm39.116 10.734c-.694.401-.707 1.057-.009 1.463l8.676 5.042c.7.405 1.832.4 2.526 0l6.688-3.861c.704-.406.717-1.062.017-1.467l-8.676-5.043c-.698-.407-1.829-.4-2.532.005l-6.69 3.861zm-22.798-1.381c-.703.407-.707 1.068-.009 1.475l17.167 9.977c.7.404 1.831.398 2.534-.008l6.689-3.859c.694-.401.707-1.057.007-1.464l-7.232-4.201 8.979-5.185c.703-.406.707-1.066.017-1.467l-8.676-5.043c-.699-.407-1.84-.407-2.542 0l-10.244 5.914-2.449 1.413-4.241 2.448zm35.211 8.595c-.694.401-.698 1.063.002 1.469l8.677 5.042c.688.401 1.829.401 2.523 0l6.688-3.862c.703-.406.707-1.067.018-1.469l-8.676-5.041c-.7-.407-1.841-.407-2.543 0l-6.689 3.861zm12.433 7.226c-.694.401-.697 1.063-.009 1.461l8.678 5.042c.698.406 1.841.406 2.533.008l6.688-3.862c.703-.406.709-1.067.009-1.474l-8.677-5.042c-.688-.401-1.83-.401-2.534.005l-6.688 3.862zm12.413 7.213c-.692.401-.697 1.063.002 1.469l8.677 5.042c.7.406 1.83.4 2.525 0l6.688-3.862c.704-.406.717-1.063.019-1.467l-8.678-5.044c-.698-.405-1.839-.405-2.543 0l-6.69 3.862zm12.435 7.226c-.694.4-.7 1.062-.01 1.463l8.687 5.047c.69.401 1.83.401 2.525 0l6.688-3.861c.703-.406.706-1.067.018-1.469l-8.687-5.047c-.689-.4-1.83-.4-2.534.005l-6.687 3.862zm12.422 7.22c-.695.4-.707 1.055-.01 1.462l8.678 5.042c.698.406 1.83.4 2.524 0l6.689-3.862c.702-.406.717-1.062.017-1.467l-8.676-5.042c-.699-.406-1.831-.4-2.534.005l-6.688 3.862zm12.451 7.236c-.694.399-.697 1.062.002 1.468l8.677 5.042c.699.405 1.829.399 2.525 0l6.688-3.861c.703-.407.717-1.063.017-1.468l-8.676-5.043c-.699-.405-1.84-.405-2.543 0l-6.69 3.862zm12.423 7.218c-.693.401-.697 1.063-.008 1.464l8.676 5.042c.699.406 1.84.406 2.534.005l6.688-3.861c.703-.406.707-1.068.008-1.475l-8.677-5.042c-.689-.4-1.829-.4-2.534.006l-6.687 3.861zm12.433 7.226c-.694.401-.708 1.055-.009 1.461l8.677 5.042c.699.409 1.831.401 2.525 0l6.688-3.859c.705-.406.717-1.063.02-1.469l-8.679-5.042c-.697-.406-1.829-.4-2.534.006l-6.688 3.861zm12.413 7.213c-.693.401-.697 1.063.002 1.469l8.677 5.042c.689.401 1.829.401 2.523 0l6.689-3.862c.703-.406.707-1.064.017-1.466l-8.676-5.044c-.699-.405-1.84-.405-2.543 0l-6.689 3.861zm12.609 7.329c-.693.4-.706 1.057-.006 1.462l18.974 11.027c.688.401 1.831.401 2.525 0l6.688-3.862c.705-.406.708-1.065.018-1.466l-18.975-11.028c-.7-.406-1.832-.401-2.534.006l-6.69 3.861zm-126.33-61.548c-.704.405-.707 1.066-.018 1.468l8.677 5.042c.699.406 1.839.406 2.545 0l6.687-3.862c.694-.401.697-1.06 0-1.467l-8.678-5.044c-.689-.399-1.83-.399-2.524 0l-6.689 3.863zm12.434 7.226c-.704.405-.717 1.06-.019 1.466l8.676 5.044c.7.406 1.832.4 2.534-.007l6.689-3.86c.694-.401.707-1.058.009-1.463l-8.679-5.043c-.697-.405-1.829-.399-2.523 0l-6.687 3.863zm12.414 7.213c-.705.406-.709 1.067-.009 1.474l8.676 5.042c.689.401 1.831.401 2.534-.005l6.688-3.862c.695-.401.698-1.062.008-1.461l-8.676-5.042c-.698-.406-1.841-.406-2.534-.008l-6.687 3.862zm12.433 7.225c-.706.406-.709 1.067-.019 1.469l8.677 5.041c.7.407 1.84.407 2.543 0l6.689-3.861c.692-.401.697-1.063-.002-1.469l-8.677-5.042c-.688-.401-1.831-.401-2.524 0l-6.687 3.862zm12.423 7.22c-.704.406-.717 1.061-.019 1.467l8.676 5.044c.7.406 1.832.399 2.534-.008l6.689-3.859c.694-.401.707-1.057.009-1.463l-8.677-5.042c-.7-.407-1.83-.401-2.525 0l-6.687 3.861zm12.452 7.236c-.705.406-.709 1.065-.011 1.472l8.678 5.044c.69.401 1.83.401 2.534-.008l6.688-3.859c.694-.401.698-1.063.009-1.463l-8.677-5.042c-.698-.406-1.84-.406-2.533-.006l-6.688 3.862zm12.422 7.218c-.703.406-.717 1.063-.017 1.469l8.676 5.042c.699.406 1.831.401 2.534-.005l6.688-3.862c.693-.401.708-1.055.009-1.461l-8.677-5.044c-.698-.405-1.83-.399-2.523 0l-6.69 3.861zm12.422 7.222c-.704.405-.707 1.066-.008 1.472l8.677 5.043c.699.406 1.831.401 2.533-.006l6.689-3.861c.693-.401.707-1.057.008-1.462l-8.678-5.043c-.697-.406-1.839-.406-2.534-.006l-6.687 3.863zm12.423 7.217c-.703.407-.707 1.067-.018 1.469l8.679 5.042c.697.406 1.838.406 2.543 0l6.687-3.862c.694-.398.698-1.061 0-1.466l-8.676-5.042c-.69-.401-1.832-.401-2.525 0l-6.69 3.859zm12.433 7.226c-.704.406-.715 1.063-.018 1.469l8.677 5.042c.699.406 1.831.4 2.534-.006l6.688-3.861c.694-.401.706-1.057.01-1.464l-8.678-5.042c-.699-.406-1.831-.4-2.524 0l-6.689 3.862zm12.414 7.215c-.702.406-.707 1.065-.008 1.472l10.784 6.268c.688.401 1.828.401 2.534-.005l6.688-3.862c.693-.401.696-1.063.008-1.463l-10.784-6.266c-.699-.406-1.838-.406-2.534-.005l-6.688 3.861zm-171.69-87.845c-.703.408-.708 1.057-.009 1.463l9.376 5.448c.7.407 1.83.412 2.534.006l6.688-3.862c.705-.406.697-1.06 0-1.466l-9.376-5.448c-.699-.407-1.821-.407-2.525 0l-6.688 3.859zm13.495 7.778c-.694.401-.698 1.063.002 1.468l11.444 6.651c.689.401 1.83.401 2.524 0l6.689-3.862c.703-.406.707-1.066.018-1.466l-11.445-6.652c-.698-.406-1.84-.406-2.542 0l-6.69 3.861zm15.322 8.906c-.694.399-.708 1.055-.009 1.462l8.677 5.042c.7.405 1.831.4 2.525 0l6.688-3.861c.705-.407.717-1.063.018-1.468l-8.676-5.043c-.698-.405-1.829-.399-2.534.006l-6.689 3.862zm12.414 7.213c-.694.401-.698 1.063.002 1.469l8.676 5.042c.689.401 1.831.401 2.523 0l6.69-3.861c.702-.407.707-1.068.017-1.469l-8.676-5.04c-.7-.408-1.84-.408-2.543 0l-6.689 3.859zm12.433 7.225c-.694.401-.698 1.061-.009 1.461l8.678 5.042c.698.407 1.84.407 2.534.008l6.688-3.861c.705-.407.708-1.068.009-1.475l-8.677-5.042c-.69-.4-1.831-.4-2.534.006l-6.689 3.861zm12.415 7.214c-.694.4-.699 1.062 0 1.468l8.676 5.042c.7.406 1.832.401 2.525 0l6.688-3.862c.705-.406.718-1.06.02-1.466l-8.677-5.044c-.699-.405-1.84-.405-2.544 0l-6.688 3.862zm12.432 7.226c-.695.4-.698 1.062-.009 1.462l8.685 5.048c.69.401 1.831.401 2.525 0l6.689-3.862c.703-.406.706-1.067.018-1.467l-8.687-5.048c-.69-.401-1.83-.401-2.534.005l-6.687 3.862zm12.422 7.219c-.695.399-.706 1.056-.008 1.462l8.677 5.042c.7.406 1.83.401 2.523 0l6.689-3.861c.703-.407.717-1.062.019-1.467l-8.678-5.042c-.699-.406-1.831-.401-2.534.005l-6.688 3.861zm12.451 7.237c-.694.399-.697 1.061.002 1.467l8.677 5.042c.699.405 1.829.4 2.524 0l6.688-3.86c.703-.408.717-1.063.019-1.468l-8.678-5.043c-.699-.405-1.839-.405-2.542 0l-6.69 3.862zm12.424 7.217c-.694.401-.698 1.063-.009 1.464l8.677 5.042c.699.406 1.84.406 2.534.005l6.689-3.861c.702-.406.706-1.067.008-1.474l-8.678-5.042c-.688-.401-1.83-.401-2.532.005l-6.689 3.861zm12.433 7.226c-.695.401-.706 1.056-.009 1.462l8.677 5.044c.699.406 1.831.398 2.525 0l6.688-3.862c.703-.406.715-1.062.018-1.468l-8.678-5.042c-.698-.407-1.83-.401-2.534.005l-6.687 3.861zm12.413 7.213c-.694.401-.697 1.063.002 1.469l8.676 5.042c.689.401 1.832.401 2.523 0l6.689-3.861c.704-.406.709-1.065.019-1.467l-8.678-5.044c-.699-.405-1.839-.405-2.542 0l-6.689 3.861zm12.609 7.329c-.694.401-.707 1.057-.007 1.462l18.974 11.027c.69.401 1.831.401 2.526 0l6.688-3.861c.702-.406.707-1.067.017-1.467l-18.974-11.028c-.699-.406-1.831-.401-2.534.005l-6.69 3.862zM257.84 302.452c-.703.405-.717 1.062-.018 1.468l6.571 3.818c.697.407 1.829.401 2.533-.006l16.952-9.786c.703-.406.716-1.063.018-1.469l-6.57-3.818c-.699-.405-1.831-.401-2.534.005l-16.952 9.788zm20.328-.074c-.694.398-.707 1.055-.008 1.461l9.898 5.752c.7.406 1.84.406 2.534.005l6.688-3.861c.705-.406.708-1.067.009-1.475l-9.897-5.749c-.699-.408-1.831-.401-2.536.003l-6.688 3.864zm13.701 7.961c-.694.4-.699 1.061 0 1.467l4.901 2.85c.7.406 1.842.406 2.534.006l6.689-3.862c.703-.406.708-1.067.009-1.474l-4.903-2.848c-.698-.406-1.84-.406-2.543 0l-6.687 3.861zm9.076 5.275c-.693.399-.707 1.055-.007 1.461l5.134 2.984c.699.406 1.839.406 2.534.006l6.689-3.862c.703-.406.706-1.067.009-1.473l-5.136-2.983c-.7-.406-1.83-.401-2.534.005l-6.689 3.862zm9.06 5.264c-.694.401-.698 1.061-.009 1.461l14.222 8.265c.7.406 1.84.406 2.534.008l6.688-3.864c.705-.404.708-1.065.009-1.472l-14.222-8.265c-.689-.401-1.83-.401-2.534.006l-6.688 3.861zm17.978 10.447c-.694.399-.708 1.057-.009 1.462l8.677 5.042c.7.406 1.831.401 2.523 0l6.689-3.861c.703-.405.717-1.061.019-1.467l-8.677-5.043c-.698-.406-1.83-.4-2.534.005l-6.688 3.862zm12.413 7.215c-.694.401-.698 1.06.001 1.467l8.676 5.044c.689.399 1.829.399 2.524 0l6.689-3.863c.702-.405.705-1.066.017-1.468l-8.676-5.042c-.7-.406-1.841-.406-2.543 0l-6.688 3.862zm12.433 7.226c-.695.398-.698 1.06-.01 1.461l8.678 5.042c.699.406 1.839.406 2.534.005l6.688-3.86c.703-.407.706-1.066.009-1.473l-8.677-5.042c-.69-.401-1.831-.401-2.534.005l-6.688 3.862zm12.423 7.217c-.693.401-.707 1.057-.008 1.464l8.676 5.042c.7.406 1.832.4 2.525 0l6.688-3.862c.705-.406.718-1.063.018-1.469l-8.677-5.042c-.699-.406-1.828-.4-2.534.006l-6.688 3.861zm12.452 7.237c-.694.401-.699 1.063 0 1.469l8.676 5.042c.692.4 1.832.4 2.526 0l6.688-3.862c.704-.406.708-1.067.019-1.469l-8.677-5.042c-.698-.406-1.84-.406-2.544 0l-6.688 3.862zm12.422 7.219c-.693.401-.706 1.057-.007 1.462l8.677 5.044c.697.404 1.829.398 2.523 0l6.688-3.862c.703-.407.717-1.062.019-1.469l-8.677-5.042c-.7-.406-1.832-.4-2.534.006l-6.689 3.861zm12.425 7.22c-.695.399-.698 1.062.001 1.468l8.676 5.041c.698.407 1.83.401 2.523 0l6.689-3.861c.704-.405.718-1.061.019-1.467l-8.678-5.043c-.699-.406-1.839-.406-2.542 0l-6.688 3.862zm12.423 7.22c-.694.401-.698 1.063-.009 1.463l8.677 5.04c.699.408 1.839.408 2.534.007l6.688-3.861c.704-.406.708-1.067.008-1.474l-8.676-5.042c-.689-.4-1.83-.4-2.534.006l-6.688 3.861zm12.432 7.225c-.695.401-.709 1.055-.009 1.461l8.677 5.042c.699.406 1.831.401 2.524 0l6.688-3.861c.705-.406.717-1.061.018-1.467l-8.676-5.042c-.7-.406-1.83-.401-2.534.006l-6.688 3.861zm12.413 7.213c-.694.401-.697 1.063.002 1.469l8.676 5.042c.689.401 1.83.401 2.523 0l6.69-3.862c.703-.406.706-1.067.017-1.468l-8.677-5.042c-.699-.407-1.839-.407-2.542 0l-6.689 3.861zm-167.86-85.659c-.703.404-.716 1.061-.017 1.467l8.677 5.042c.699.406 1.831.4 2.534-.006l6.689-3.861c.694-.401.707-1.055.007-1.461l-8.676-5.042c-.7-.407-1.83-.401-2.524 0l-6.69 3.861zm12.414 7.213c-.703.406-.706 1.067-.007 1.474l8.677 5.042c.689.401 1.829.401 2.534-.005l6.688-3.862c.694-.4.698-1.062.009-1.463l-8.676-5.042c-.7-.405-1.84-.405-2.534-.005l-6.691 3.861zm12.554 7.295c-.704.406-.717 1.063-.018 1.469l8.676 5.042c.7.406 1.832.401 2.534-.006l6.689-3.861c.694-.401.707-1.055.007-1.461l-8.675-5.042c-.699-.408-1.831-.401-2.525 0l-6.688 3.859zm12.415 7.216c-.704.405-.708 1.065-.008 1.473l8.676 5.042c.689.401 1.829.401 2.534-.005l6.688-3.861c.694-.4.7-1.063.009-1.463l-8.677-5.043c-.7-.405-1.84-.405-2.534-.005l-6.688 3.862zm12.432 7.225c-.705.405-.717 1.061-.019 1.467l58.407 33.941c.7.406 1.831.401 2.534-.005l6.688-3.862c.696-.4.709-1.055.009-1.461l-58.406-33.941c-.7-.406-1.831-.401-2.525 0l-6.688 3.861zm62.144 36.114c-.704.406-.707 1.067-.018 1.467l8.677 5.043c.699.406 1.839.406 2.545 0l6.688-3.861c.693-.401.696-1.063-.003-1.468l-8.676-5.043c-.689-.4-1.83-.4-2.523 0l-6.69 3.862zm12.433 7.223c-.704.407-.718 1.063-.019 1.469l8.678 5.042c.699.405 1.831.401 2.533-.005l6.689-3.862c.694-.4.706-1.056.009-1.461l-8.677-5.043c-.699-.405-1.831-.4-2.525 0l-6.688 3.86zm12.414 7.215c-.704.406-.708 1.067-.008 1.475l8.676 5.042c.689.4 1.831.4 2.534-.006l6.688-3.861c.694-.401.699-1.063.009-1.462l-8.677-5.044c-.699-.406-1.84-.406-2.534-.005l-6.688 3.861zm12.432 7.226c-.705.406-.708 1.065-.018 1.467l8.678 5.044c.696.406 1.837.406 2.542 0l6.688-3.861c.695-.401.698-1.063-.001-1.469l-8.677-5.042c-.691-.401-1.831-.401-2.525 0l-6.687 3.861zm12.413 7.214c-.702.405-.705 1.066-.009 1.473l6.73 3.91c.688.401 1.83.401 2.534-.004l6.688-3.862c.694-.4.697-1.063.007-1.462l-6.729-3.91c-.697-.406-1.837-.406-2.532-.007l-6.689 3.862z"/><path opacity=".5" fill="#BBB8F6" d="M400.699 251.594c1.771-1.022 4.627-1.022 6.383-.001l123.49 71.766c1.756 1.018 1.745 2.674-.026 3.696l-26.339 14.519c-1.773 1.022-4.629 1.022-6.382.002L374.332 269.81c-1.753-1.019-1.745-2.673.027-3.697l26.34-14.519z"/><path fill="#9796F7" d="M402.372 250.417c1.713-.989 4.479-.989 6.176-.003l120.767 67.023s.003 3.562 0 4.209c-.005.647-.436 1.295-1.293 1.791l-25.488 14.049c-1.714.989-4.478.989-6.175.003l-119.501-69.446c-.848-.493-1.271-1.14-1.266-1.788.003-.646.083-4.458.083-4.458l26.697-11.38z"/><path fill="#D9DFF6" d="M402.372 246.441c1.713-.99 4.479-.99 6.176-.002l119.5 69.446c1.697.985 1.688 2.588-.026 3.577l-25.488 14.048c-1.714.991-4.478.989-6.175.003l-119.501-69.445c-1.696-.985-1.688-2.588.025-3.577l25.489-14.05z"/><path fill="#9796F7" d="M580.202 139.788L346.35 4.772c-1.735-1.002-3.291-1.046-4.395-.333l-.021-.012-4.664 2.771 3.028 1.762-.514 180.935c-.01 3.828 2.677 8.483 6.009 10.407l232.464 134.213-2.837 1.687 3.858 2.246 4.737-2.763-.034-.021c1.043-.645 1.707-1.93 1.713-3.793l.516-181.676c.012-3.829-2.676-8.483-6.008-10.407z"/><path fill="#9796F7" d="M487.434 261.173v43.199l-4.199 2.27-50.398-32.087v-46.097z"/><path fill="#B4B9F6" d="M483.235 261.871v44.771l-54.594-31.39v-46.097z"/><path fill="#D9DFF6" d="M574.592 142.59c3.333 1.924 6.021 6.579 6.01 10.408l-.516 181.675c-.011 3.828-2.717 5.369-6.047 3.447L340.185 203.104c-3.333-1.924-6.02-6.579-6.009-10.408l.515-181.675c.011-3.828 2.716-5.37 6.047-3.446L574.592 142.59z"/><path fill="#F7F7F7" d="M341.493 174.158c-.016 4.462 3.143 9.905 7.022 12.137l131.877 76.135 85.439 49.337c3.88 2.25 7.039.448 7.056-4.016l.395-143.602c.017-4.48-3.125-9.905-7.003-12.155L459.174 90.16 348.962 26.521c-3.88-2.231-7.056-.446-7.056 4.035l-.413 143.602z"/><g opacity=".47"><path fill="#D9DFF6" d="M376.418 58.298l163.751 94.709a4.973 4.973 0 012.482 4.297l.135 116.222c.006 3.834-4.148 6.229-7.464 4.302L371.573 182.74a4.973 4.973 0 01-2.473-4.292l-.14-115.842c-.005-3.83 4.144-6.226 7.458-4.308z"/><g opacity=".5" fill="#FFF"><path d="M532.023 221.57l-158.682-92.149.001 1.425 158.683 92.148zm.02 14.938L373.357 144.36l.004 1.425 158.684 92.149zm.018 14.939l-158.684-92.148.002 1.425 158.684 92.148zm-.108-89.451L373.27 69.847l.001 1.425 158.683 92.149zm.125 104.391l-158.683-92.149.001 1.425 158.685 92.147zm-.108-89.634L373.287 84.605l.001 1.424 158.684 92.148zm.017 14.938L373.304 99.543l.003 1.425 158.681 92.149zm.02 14.939l-158.684-92.149.002 1.426 158.684 92.148z"/><path d="M373.27 70.493l.125 103.751 1.297.749-.125-103.756zm15.762 9.183l.125 103.75 1.297.748-.125-103.756zm15.764 9.181l.126 103.752 1.295.748-.125-103.755zm15.762 9.184l.124 103.751 1.298.749-.125-103.758zm15.762 9.181l.125 103.753 1.299.746-.126-103.756zm15.763 9.183l.128 103.751 1.294.749-.125-103.757zm15.764 9.183l.127 103.751 1.295.748-.126-103.756zm15.76 9.182l.125 103.752 1.299.748-.125-103.758zm15.764 9.183l.127 103.75 1.297.748-.125-103.756zm15.763 9.181l.127 103.752 1.299.748-.127-103.757zm15.762 8.235l.129 105.82 1.295.748-.129-105.824z"/></g><path fill="#9796F7" d="M483.634 211.67L454.8 150.863l-29.264 24.842-12.632-20.078-36.007 22.339-1.19-1.235 37.594-23.871 12.779 20.33 29.794-25.375 28.69 59.431 44.813-44.998 1.481.864z"/></g><path fill="#B4B9F6" d="M315.743 84.566l36.263 20.97c2.766 1.599 6.222-.396 6.222-3.589V53.515c0-1.48-.789-2.848-2.069-3.589l-36.263-20.97c-2.765-1.599-6.222.396-6.222 3.589v48.433a4.143 4.143 0 002.069 3.588z"/><path fill="#FFFAFF" d="M338.281 66.764v-15.47c0-1.323 1.432-2.15 2.577-1.488l11.496 6.646c.531.308.856.875.856 1.489V73.41c0 1.324-1.432 2.15-2.577 1.488l-11.495-6.647a1.718 1.718 0 01-.857-1.487zm-1.844-17.178a.898.898 0 00.454-1.674l-17.562-10.227a.9.9 0 00-1.227.324.896.896 0 00.322 1.228l17.56 10.226a.898.898 0 00.453.123zm-.453 3.896l-17.56-10.227a.895.895 0 01-.322-1.227.897.897 0 011.227-.325l17.562 10.226a.899.899 0 01-.907 1.553zm0 4.019l-17.56-10.227a.897.897 0 01-.322-1.229.9.9 0 011.227-.324l17.562 10.227a.9.9 0 01-.907 1.553zm0 4.019l-17.56-10.227a.896.896 0 01-.322-1.228.896.896 0 011.227-.324l17.562 10.227a.899.899 0 01-.907 1.552zm0 4.018l-17.56-10.227a.898.898 0 01.905-1.552l17.562 10.227a.899.899 0 01-.907 1.552zm2.297 25.337v-15.47c0-1.323 1.432-2.15 2.577-1.487l11.496 6.646c.531.307.856.874.856 1.487v15.47c0 1.323-1.432 2.15-2.577 1.488l-11.495-6.647a1.717 1.717 0 01-.857-1.487zm-1.844-17.178a.897.897 0 00.454-1.674l-17.562-10.227a.9.9 0 00-.905 1.552l17.56 10.227a.896.896 0 00.453.122zm-.453 3.897l-17.56-10.226a.896.896 0 01-.322-1.228.897.897 0 011.227-.325l17.562 10.227a.899.899 0 01-.907 1.552zm0 4.019l-17.56-10.228a.895.895 0 01-.322-1.227.9.9 0 011.227-.325l17.562 10.228a.898.898 0 01-.454 1.674.907.907 0 01-.453-.122zm0 4.018l-17.56-10.227a.896.896 0 01-.322-1.228.897.897 0 011.227-.325l17.562 10.227a.899.899 0 01-.907 1.553zm0 4.018l-17.56-10.227a.898.898 0 01.905-1.551l17.562 10.226a.898.898 0 01-.907 1.552z"/><path fill="#B4B9F6" d="M314.358 153.39l36.263 20.97c2.765 1.599 6.223-.396 6.223-3.59v-48.431c0-1.48-.79-2.849-2.071-3.589L318.51 97.778c-2.765-1.598-6.222.397-6.222 3.59V149.8c0 1.481.789 2.848 2.07 3.59z"/><path fill="#FFFAFF" d="M336.896 135.586v-15.469a1.718 1.718 0 012.578-1.488l11.495 6.646c.531.307.857.874.857 1.487v15.471c0 1.323-1.432 2.15-2.577 1.487l-11.496-6.646a1.719 1.719 0 01-.857-1.488zm-1.844-17.178a.897.897 0 00.453-1.674l-17.562-10.227a.9.9 0 00-.904 1.553l17.56 10.226a.9.9 0 00.453.122zm-.452 3.898l-17.56-10.227a.898.898 0 01.904-1.552l17.562 10.227a.899.899 0 01-.906 1.552zm0 4.019l-17.56-10.228a.898.898 0 01.904-1.552l17.562 10.227a.899.899 0 01-.906 1.553zm0 4.017l-17.56-10.227a.895.895 0 01-.323-1.227.897.897 0 011.227-.325l17.562 10.228a.899.899 0 01-.906 1.551zm0 4.018l-17.56-10.227a.898.898 0 01.904-1.551l17.562 10.227a.898.898 0 01-.906 1.551zm2.296 25.339v-15.47a1.718 1.718 0 012.578-1.488l11.495 6.646c.531.308.857.875.857 1.489v15.47c0 1.323-1.432 2.15-2.577 1.487l-11.496-6.647a1.717 1.717 0 01-.857-1.487zm-1.844-17.178a.898.898 0 00.453-1.674l-17.562-10.227a.9.9 0 00-1.227.324.896.896 0 00.323 1.228l17.56 10.226a.9.9 0 00.453.123zm-.452 3.896l-17.56-10.227a.898.898 0 01.904-1.552l17.562 10.227a.898.898 0 01-.906 1.552zm0 4.02l-17.56-10.228a.899.899 0 01.904-1.552l17.562 10.227a.9.9 0 01-.906 1.553zm0 4.018l-17.56-10.227a.896.896 0 01-.323-1.228.897.897 0 011.227-.325l17.562 10.228a.899.899 0 01-.906 1.552zm0 4.018l-17.56-10.227a.898.898 0 01.904-1.552l17.562 10.227a.899.899 0 01-.906 1.552z"/><path fill="#B4B9F6" d="M373.805 191.958l44.391 25.67c3.384 1.957 7.616-.485 7.616-4.394v-59.287a5.078 5.078 0 00-2.534-4.394l-44.392-25.669c-3.385-1.957-7.615.485-7.615 4.394v59.287c0 1.811.964 3.486 2.534 4.393z"/><path fill="#FFFAFF" d="M389.494 151.624c4.897-3.19 12.438-.294 16.841 6.467 4.404 6.761 4.001 14.829-.896 18.019-4.899 3.189-12.438.294-16.841-6.467-4.405-6.763-4.003-14.83.896-18.019zm-4.655 46.715l25.342 14.655s0-18.92-3.846-26.189c-3.773-7.131-12.929-10.227-16.841-6.467-4.848 4.658-4.655 18.001-4.655 18.001z"/><defs><path id="a" d="M524.599 176.57l33.297 19.255c1.192.69 2.685-.171 2.685-1.549v-29.414c0-.639-.34-1.229-.894-1.549L526.39 144.06c-1.191-.69-2.685.171-2.685 1.549v29.414c0 .637.34 1.228.894 1.547z"/></defs><clipPath id="b"><use xlink:href="#a" overflow="visible"/></clipPath><path clip-path="url(#b)" fill="#D1D3FF" d="M523.705 176.055l36.875 21.323v-33.547l-36.875-21.324z"/><path clip-path="url(#b)" fill="#D9DFF6" d="M523.705 176.055l36.875 21.323-19.456-29.852z"/><path clip-path="url(#b)" fill="#D9DFF6" d="M542.855 169.941l17.725-6.11-36.875-21.324 15.84 26.233a2.799 2.799 0 003.31 1.201z"/><path opacity=".5" fill="#9997E9" d="M166.667 206.026l31.306 18.223h.002l31.342-17.984-31.532-18.353z"/><path opacity=".5" fill="#BBB8F6" d="M206.045 229.763l31.308 18.223 31.344-17.983-31.532-18.353zm40.237 22.777l31.308 18.223 31.342-17.983-31.531-18.354z"/><path fill="#8184EB" d="M171.653 206.293l24.082 14.017 24.11-13.832V52.509l-48.192-.184z"/><path fill="#D9DFF7" d="M171.653 52.325l24.082 14.017 24.11-13.833-24.256-14.117z"/><path fill="#BBB8F6" d="M195.735 220.31V66.342l24.11-13.833v153.969z"/><path fill="#8184EB" d="M212.33 230.121l24.082 14.017 24.11-13.832V97.75l-48.192-.184z"/><path fill="#D9DFF7" d="M212.33 97.566l24.082 14.017 24.11-13.833-24.256-14.117z"/><path fill="#B4B9F6" d="M236.412 244.138V111.583l24.11-13.833v132.556z"/><path fill="#8184EB" d="M253.006 253.949l24.082 14.017 24.11-13.832V151.633l-48.192-.184z"/><path fill="#D9DFF7" d="M253.006 151.449l24.082 14.016 24.11-13.832-24.256-14.118z"/><path fill="#B4B9F6" d="M277.088 267.966V165.465l24.11-13.832v102.501z"/><g fill="#BBB8F6"><path opacity=".5" d="M468.021 441.67c0 7.808 11.92 14.137 26.628 14.137 14.703 0 26.623-6.329 26.623-14.137 0-7.804-11.92-14.134-26.623-14.134-14.709 0-26.628 6.33-26.628 14.134z"/><path opacity=".5" d="M501.008 426.653c0 7.807 11.921 14.138 26.629 14.138 14.702 0 26.622-6.331 26.622-14.138 0-7.804-11.92-14.133-26.622-14.133-14.708.001-26.629 6.33-26.629 14.133z"/><path opacity=".5" d="M526.139 450.546c0 7.808 11.92 14.137 26.629 14.137 14.702 0 26.622-6.329 26.622-14.137 0-7.804-11.92-14.133-26.622-14.133-14.709 0-26.629 6.329-26.629 14.133z"/></g><path fill="#9796F7" d="M551.127 418.01v5.461c0 7.378-11.001 13.359-24.57 13.359-13.571 0-24.572-5.981-24.572-13.359v-5.461h49.142z"/><path opacity=".41" fill="#6782EA" d="M539.048 434.933a29.65 29.65 0 01-2.44.718v-13.745h2.44v13.027zm-24.947.053c.785.263 1.59.512 2.439.718V421.96h-2.439v13.026zm31.369-2.994c1.862-1.217 3.311-2.625 4.284-4.153v-9.198h-4.284v13.351z"/><ellipse fill="#D9DFF6" cx="526.556" cy="418.01" rx="24.571" ry="13.359"/><path fill="#B4B9F6" d="M507.642 417.841c0 5.546 8.469 10.043 18.915 10.043s18.913-4.497 18.913-10.043c0-5.543-8.467-10.04-18.913-10.04s-18.915 4.497-18.915 10.04z"/><path fill="#9796F7" d="M526.557 409.192c10.005 0 18.172 4.128 18.847 9.345.032-.23.066-.461.066-.696 0-5.543-8.467-10.04-18.913-10.04s-18.916 4.497-18.916 10.04c0 .235.035.466.067.696.675-5.217 8.842-9.345 18.849-9.345z"/><path fill="#9796F7" d="M534.924 413.775l1.73-1.009-1.366-.79-1.733 1.007c-3.122-1.587-6.964-1.964-9.627-.415-3.357 1.951-1.122 3.99.578 5.672l-3.375 1.964c-.5-.568-.391-1.127.407-1.683l-3.917-2.263c-2.666 1.664-2.046 3.774.625 5.62l-1.753 1.022 1.37.787 1.729-1.005c3.554 1.873 7.437 1.764 9.749.421 3.313-1.927.979-3.984-.68-5.691l3.313-1.924c.396.469.311.993-.391 1.503l3.941 2.274c2.512-1.687 2.126-3.649-.6-5.49zm-9.567 7.18c-.788.46-1.909.485-2.912.071l3.026-1.76c.522.669.656 1.243-.114 1.689zm2.387-4.594c-.444-.65-.504-1.205.244-1.638.834-.485 1.8-.472 2.726-.09l-2.97 1.728z"/><path fill="#D9DFF6" d="M534.924 413.145l1.73-1.009-1.366-.789-1.733 1.006c-3.122-1.585-6.964-1.962-9.627-.416-3.357 1.952-1.122 3.991.578 5.674l-3.375 1.962c-.5-.566-.391-1.127.407-1.681l-3.917-2.265c-2.666 1.666-2.046 3.774.625 5.621l-1.753 1.021 1.37.789 1.729-1.005c3.554 1.87 7.437 1.764 9.749.42 3.313-1.927.979-3.983-.68-5.69l3.313-1.924c.396.469.311.993-.391 1.504l3.941 2.272c2.512-1.688 2.126-3.651-.6-5.49zm-9.567 7.18c-.788.46-1.909.486-2.912.069l3.026-1.759c.522.67.656 1.244-.114 1.69zm2.387-4.594c-.444-.651-.504-1.206.244-1.64.834-.484 1.8-.47 2.726-.088l-2.97 1.728z"/><path fill="#9796F7" d="M551.127 409.739v5.46c0 7.379-11.001 13.359-24.57 13.359-13.571 0-24.572-5.98-24.572-13.359v-5.46h49.142z"/><path opacity=".41" fill="#6782EA" d="M539.048 426.662c-.786.264-1.59.513-2.44.719v-13.747h2.44v13.028zm-24.947.056c.785.262 1.59.511 2.439.719V413.69h-2.439v13.028zm31.369-2.995c1.862-1.218 3.311-2.625 4.284-4.154v-9.197h-4.284v13.351z"/><ellipse fill="#D9DFF6" cx="526.556" cy="409.739" rx="24.571" ry="13.359"/><path fill="#B4B9F6" d="M507.642 409.571c0 5.547 8.469 10.044 18.915 10.044s18.913-4.497 18.913-10.044c0-5.544-8.467-10.041-18.913-10.041s-18.915 4.497-18.915 10.041z"/><path fill="#9796F7" d="M526.557 400.923c10.005 0 18.172 4.127 18.847 9.345.032-.23.066-.463.066-.696 0-5.544-8.467-10.041-18.913-10.041s-18.916 4.497-18.916 10.041c0 .233.035.466.067.696.675-5.218 8.842-9.345 18.849-9.345z"/><path fill="#9796F7" d="M534.924 405.504l1.73-1.008-1.366-.788-1.733 1.005c-3.122-1.586-6.964-1.963-9.627-.415-3.357 1.953-1.122 3.992.578 5.673l-3.375 1.962c-.5-.567-.391-1.125.407-1.682l-3.917-2.263c-2.666 1.666-2.046 3.775.625 5.621l-1.753 1.021 1.37.789 1.729-1.006c3.554 1.873 7.437 1.764 9.749.42 3.313-1.925.979-3.982-.68-5.69l3.313-1.923c.396.47.311.992-.391 1.503l3.941 2.275c2.512-1.688 2.126-3.652-.6-5.494zm-9.567 7.183c-.788.458-1.909.484-2.912.069l3.026-1.758c.522.666.656 1.242-.114 1.689zm2.387-4.596c-.444-.649-.504-1.205.244-1.637.834-.484 1.8-.473 2.726-.091l-2.97 1.728z"/><path fill="#D9DFF6" d="M534.924 404.875l1.73-1.009-1.366-.79-1.733 1.007c-3.122-1.587-6.964-1.964-9.627-.417-3.357 1.953-1.122 3.992.578 5.674l-3.375 1.963c-.5-.567-.391-1.128.407-1.681l-3.917-2.266c-2.666 1.666-2.046 3.776.625 5.622L516.493 414l1.37.788 1.729-1.005c3.554 1.873 7.437 1.764 9.749.421 3.313-1.927.979-3.984-.68-5.692l3.313-1.923c.396.47.311.992-.391 1.503l3.941 2.274c2.512-1.688 2.126-3.65-.6-5.491zm-9.567 7.18c-.788.46-1.909.485-2.912.07l3.026-1.759c.522.667.656 1.242-.114 1.689zm2.387-4.595c-.444-.649-.504-1.204.244-1.638.834-.484 1.8-.471 2.726-.089l-2.97 1.727z"/><path fill="#9796F7" d="M551.127 401.469v5.461c0 7.378-11.001 13.36-24.57 13.36-13.571 0-24.572-5.982-24.572-13.36v-5.461h49.142z"/><path opacity=".41" fill="#6782EA" d="M539.048 418.392a30.45 30.45 0 01-2.44.721v-13.747h2.44v13.026zm-24.947.055c.785.264 1.59.51 2.439.719v-13.747h-2.439v13.028zm31.369-2.994c1.862-1.219 3.311-2.627 4.284-4.155v-9.197h-4.284v13.352z"/><ellipse fill="#D9DFF6" cx="526.556" cy="401.469" rx="24.571" ry="13.359"/><path fill="#B4B9F6" d="M507.642 401.301c0 5.547 8.469 10.045 18.915 10.045s18.913-4.498 18.913-10.045c0-5.544-8.467-10.041-18.913-10.041s-18.915 4.497-18.915 10.041z"/><path fill="#9796F7" d="M526.557 392.651c10.005 0 18.172 4.128 18.847 9.345.032-.23.066-.46.066-.695 0-5.544-8.467-10.041-18.913-10.041s-18.916 4.497-18.916 10.041c0 .235.035.465.067.695.675-5.217 8.842-9.345 18.849-9.345z"/><path fill="#9796F7" d="M534.924 397.234l1.73-1.008-1.366-.789-1.733 1.005c-3.122-1.584-6.964-1.961-9.627-.414-3.357 1.952-1.122 3.992.578 5.673l-3.375 1.962c-.5-.567-.391-1.127.407-1.683l-3.917-2.263c-2.666 1.666-2.046 3.774.625 5.621l-1.753 1.021 1.37.789 1.729-1.006c3.554 1.873 7.437 1.765 9.749.421 3.313-1.927.979-3.985-.68-5.69l3.313-1.926c.396.471.311.993-.391 1.504l3.941 2.274c2.512-1.687 2.126-3.649-.6-5.491zm-9.567 7.182c-.788.459-1.909.484-2.912.069l3.026-1.759c.522.67.656 1.245-.114 1.69zm2.387-4.596c-.444-.649-.504-1.202.244-1.638.834-.484 1.8-.472 2.726-.089l-2.97 1.727z"/><path fill="#D9DFF6" d="M534.924 396.604l1.73-1.009-1.366-.787-1.733 1.005c-3.122-1.586-6.964-1.963-9.627-.415-3.357 1.95-1.122 3.992.578 5.672l-3.375 1.964c-.5-.568-.391-1.126.407-1.683l-3.917-2.264c-2.666 1.667-2.046 3.775.625 5.62l-1.753 1.022 1.37.789 1.729-1.006c3.554 1.873 7.437 1.764 9.749.42 3.313-1.927.979-3.982-.68-5.69l3.313-1.924c.396.469.311.993-.391 1.504l3.941 2.275c2.512-1.691 2.126-3.652-.6-5.493zm-9.567 7.182c-.788.458-1.909.484-2.912.069l3.026-1.758c.522.667.656 1.243-.114 1.689zm2.387-4.596c-.444-.649-.504-1.205.244-1.637.834-.484 1.8-.472 2.726-.091l-2.97 1.728z"/><path fill="#9796F7" d="M551.127 393.199v5.462c0 7.376-11.001 13.359-24.57 13.359-13.571 0-24.572-5.983-24.572-13.359v-5.462h49.142z"/><path opacity=".41" fill="#6782EA" d="M539.048 410.123c-.786.262-1.59.511-2.44.718v-13.745h2.44v13.027zm-24.947.054c.785.264 1.59.512 2.439.719V397.15h-2.439v13.027zm31.369-2.994c1.862-1.219 3.311-2.626 4.284-4.154v-9.197h-4.284v13.351z"/><ellipse fill="#D9DFF6" cx="526.556" cy="393.199" rx="24.571" ry="13.359"/><path fill="#B4B9F6" d="M507.642 393.03c0 5.548 8.469 10.044 18.915 10.044s18.913-4.496 18.913-10.044c0-5.544-8.467-10.04-18.913-10.04s-18.915 4.496-18.915 10.04z"/><path fill="#9796F7" d="M526.557 384.382c10.005 0 18.172 4.127 18.847 9.347.032-.232.066-.462.066-.698 0-5.544-8.467-10.04-18.913-10.04s-18.916 4.496-18.916 10.04c0 .236.035.466.067.698.675-5.22 8.842-9.347 18.849-9.347z"/><path fill="#9796F7" d="M534.924 388.966l1.73-1.009-1.366-.79-1.733 1.007c-3.122-1.587-6.964-1.963-9.627-.417-3.357 1.953-1.122 3.992.578 5.675l-3.375 1.96c-.5-.567-.391-1.125.407-1.679l-3.917-2.266c-2.666 1.666-2.046 3.775.625 5.622l-1.753 1.02 1.37.79 1.729-1.007c3.554 1.873 7.437 1.766 9.749.423 3.313-1.927.979-3.985-.68-5.691l3.313-1.923c.396.469.311.993-.391 1.502l3.941 2.274c2.512-1.688 2.126-3.652-.6-5.491zm-9.567 7.18c-.788.46-1.909.484-2.912.069l3.026-1.758c.522.669.656 1.242-.114 1.689zm2.387-4.595c-.444-.65-.504-1.204.244-1.638.834-.484 1.8-.472 2.726-.091l-2.97 1.729z"/><path fill="#D9DFF6" d="M534.924 388.334l1.73-1.009-1.366-.788-1.733 1.005c-3.122-1.584-6.964-1.961-9.627-.415-3.357 1.953-1.122 3.992.578 5.673l-3.375 1.963c-.5-.567-.391-1.127.407-1.682l-3.917-2.264c-2.666 1.667-2.046 3.775.625 5.622l-1.753 1.021 1.37.787 1.729-1.004c3.554 1.873 7.437 1.763 9.749.42 3.313-1.925.979-3.984-.68-5.691l3.313-1.923c.396.47.311.993-.391 1.502l3.941 2.276c2.512-1.689 2.126-3.652-.6-5.493zm-9.567 7.183c-.788.458-1.909.483-2.912.069l3.026-1.759c.522.668.656 1.242-.114 1.69zm2.387-4.597c-.444-.648-.504-1.203.244-1.637.834-.484 1.8-.473 2.726-.09l-2.97 1.727z"/><path fill="#9796F7" d="M551.127 384.928v5.462c0 7.378-11.001 13.359-24.57 13.359-13.571 0-24.572-5.981-24.572-13.359v-5.462h49.142z"/><path opacity=".41" fill="#6782EA" d="M539.048 401.852c-.786.265-1.59.514-2.44.72v-13.747h2.44v13.027zm-24.947.055c.785.263 1.59.511 2.439.718v-13.747h-2.439v13.029zm31.369-2.995c1.862-1.217 3.311-2.625 4.284-4.153v-9.199h-4.284v13.352z"/><ellipse fill="#D9DFF6" cx="526.556" cy="384.928" rx="24.571" ry="13.359"/><ellipse fill="#B4B9F6" cx="526.556" cy="384.762" rx="18.914" ry="10.043"/><path fill="#9796F7" d="M526.557 376.113c10.005 0 18.172 4.125 18.847 9.345.032-.231.066-.462.066-.696 0-5.545-8.467-10.041-18.913-10.041s-18.916 4.496-18.916 10.041c0 .234.035.465.067.696.675-5.22 8.842-9.345 18.849-9.345z"/><path fill="#9796F7" d="M534.924 380.694l1.73-1.007-1.366-.791-1.733 1.008c-3.122-1.587-6.964-1.964-9.627-.417-3.357 1.953-1.122 3.992.578 5.674l-3.375 1.961c-.5-.565-.391-1.127.407-1.681l-3.917-2.264c-2.666 1.665-2.046 3.773.625 5.621l-1.753 1.021 1.37.79 1.729-1.006c3.554 1.872 7.437 1.764 9.749.42 3.313-1.926.979-3.982-.68-5.69l3.313-1.923c.396.468.311.992-.391 1.503l3.941 2.273c2.512-1.689 2.126-3.651-.6-5.492zm-9.567 7.182c-.788.459-1.909.485-2.912.068l3.026-1.758c.522.668.656 1.244-.114 1.69zm2.387-4.595c-.444-.649-.504-1.204.244-1.639.834-.483 1.8-.47 2.726-.089l-2.97 1.728z"/><path fill="#D9DFF6" d="M534.924 380.065l1.73-1.009-1.366-.79-1.733 1.006c-3.122-1.586-6.964-1.962-9.627-.415-3.357 1.952-1.122 3.991.578 5.674l-3.375 1.961c-.5-.567-.391-1.126.407-1.68l-3.917-2.266c-2.666 1.666-2.046 3.775.625 5.622l-1.753 1.02 1.37.791 1.729-1.008c3.554 1.873 7.437 1.766 9.749.423 3.313-1.927.979-3.985-.68-5.692l3.313-1.924c.396.471.311.992-.391 1.504l3.941 2.274c2.512-1.688 2.126-3.652-.6-5.491zm-9.567 7.18c-.788.46-1.909.484-2.912.069l3.026-1.758c.522.669.656 1.243-.114 1.689zm2.387-4.595c-.444-.65-.504-1.204.244-1.638.834-.484 1.8-.472 2.726-.091l-2.97 1.729z"/><path fill="#9796F7" d="M577.335 441.92v5.46c0 7.378-11.001 13.359-24.57 13.359-13.57 0-24.571-5.981-24.571-13.359v-5.46h49.141z"/><path opacity=".41" fill="#6782EA" d="M565.257 458.843c-.787.264-1.59.512-2.44.719v-13.747h2.44v13.028zm-24.949.054c.787.263 1.59.511 2.44.72V445.87h-2.44v13.027zm31.37-2.995c1.862-1.217 3.309-2.624 4.284-4.153v-9.197h-4.284v13.35z"/><ellipse fill="#D9DFF6" cx="552.764" cy="441.92" rx="24.571" ry="13.359"/><ellipse fill="#B4B9F6" cx="552.763" cy="441.752" rx="18.915" ry="10.044"/><path fill="#9796F7" d="M552.765 433.103c10.003 0 18.173 4.127 18.848 9.345.03-.23.065-.461.065-.695 0-5.545-8.466-10.041-18.913-10.041-10.449 0-18.917 4.496-18.917 10.041 0 .234.037.465.067.695.676-5.219 8.844-9.345 18.85-9.345z"/><path fill="#9796F7" d="M561.133 437.685l1.729-1.008-1.365-.788-1.734 1.005c-3.122-1.586-6.965-1.961-9.628-.414-3.356 1.951-1.121 3.991.58 5.671l-3.376 1.964c-.499-.567-.391-1.127.408-1.683l-3.917-2.264c-2.666 1.667-2.047 3.775.625 5.622l-1.754 1.021 1.368.787 1.73-1.004c3.554 1.872 7.437 1.763 9.751.419 3.313-1.925.979-3.982-.68-5.69l3.313-1.924c.396.469.311.993-.391 1.504l3.939 2.272c2.514-1.686 2.126-3.648-.598-5.49zm-9.568 7.182c-.788.458-1.909.484-2.913.069l3.027-1.761c.522.67.655 1.247-.114 1.692zm2.385-4.596c-.443-.649-.502-1.204.247-1.638.832-.483 1.8-.472 2.725-.09l-2.972 1.728z"/><path fill="#D9DFF6" d="M561.133 437.055l1.729-1.008-1.365-.79-1.734 1.007c-3.122-1.587-6.965-1.963-9.628-.415-3.356 1.951-1.121 3.99.58 5.673l-3.376 1.962c-.499-.567-.391-1.128.408-1.682l-3.917-2.263c-2.666 1.664-2.047 3.775.625 5.619l-1.754 1.022 1.368.789 1.73-1.006c3.554 1.871 7.437 1.764 9.751.42 3.313-1.927.979-3.982-.68-5.691l3.313-1.922c.396.468.311.992-.391 1.502l3.939 2.274c2.514-1.689 2.126-3.65-.598-5.491zm-9.568 7.18c-.788.46-1.909.486-2.913.071l3.027-1.76c.522.669.655 1.243-.114 1.689zm2.385-4.594c-.443-.648-.502-1.204.247-1.638.832-.484 1.8-.471 2.725-.089l-2.972 1.727z"/><path fill="#9796F7" d="M577.335 433.681v5.462c0 7.377-11.001 13.359-24.57 13.359-13.57 0-24.571-5.982-24.571-13.359v-5.462h49.141z"/><path opacity=".41" fill="#6782EA" d="M565.257 450.604c-.787.265-1.59.513-2.44.72v-13.747h2.44v13.027zm-24.949.054c.787.265 1.59.513 2.44.72v-13.747h-2.44v13.027zm31.37-2.993c1.862-1.217 3.309-2.624 4.284-4.155v-9.197h-4.284v13.352z"/><ellipse fill="#D9DFF6" cx="552.764" cy="433.681" rx="24.571" ry="13.359"/><ellipse fill="#B4B9F6" cx="552.763" cy="433.515" rx="18.915" ry="10.042"/><path fill="#9796F7" d="M552.765 424.865c10.003 0 18.173 4.127 18.848 9.345.03-.23.065-.462.065-.695 0-5.546-8.466-10.041-18.913-10.041-10.449 0-18.917 4.495-18.917 10.041 0 .233.037.465.067.695.676-5.218 8.844-9.345 18.85-9.345z"/><path fill="#9796F7" d="M561.133 429.447l1.729-1.009-1.365-.789-1.734 1.006c-3.122-1.585-6.965-1.962-9.628-.415-3.356 1.951-1.121 3.992.58 5.673l-3.376 1.964c-.499-.568-.391-1.129.408-1.683l-3.917-2.264c-2.666 1.665-2.047 3.775.625 5.62l-1.754 1.022 1.368.788 1.73-1.005c3.554 1.872 7.437 1.764 9.751.42 3.313-1.927.979-3.982-.68-5.69l3.313-1.924c.396.469.311.993-.391 1.504l3.939 2.272c2.514-1.687 2.126-3.648-.598-5.49zm-9.568 7.181c-.788.46-1.909.486-2.913.071l3.027-1.761c.522.669.655 1.245-.114 1.69zm2.385-4.594c-.443-.649-.502-1.204.247-1.64.832-.484 1.8-.469 2.725-.088l-2.972 1.728z"/><path fill="#D9DFF6" d="M561.133 428.817l1.729-1.008-1.365-.79-1.734 1.007c-3.122-1.587-6.965-1.964-9.628-.417-3.356 1.953-1.121 3.992.58 5.675l-3.376 1.96c-.499-.567-.391-1.125.408-1.68l-3.917-2.266c-2.666 1.667-2.047 3.775.625 5.622l-1.754 1.021 1.368.79 1.73-1.005c3.554 1.871 7.437 1.764 9.751.42 3.313-1.927.979-3.984-.68-5.691l3.313-1.922c.396.468.311.99-.391 1.502l3.939 2.274c2.514-1.689 2.126-3.652-.598-5.492zm-9.568 7.181c-.788.46-1.909.484-2.913.069l3.027-1.758c.522.669.655 1.243-.114 1.689zm2.385-4.595c-.443-.65-.502-1.204.247-1.638.832-.484 1.8-.473 2.725-.091l-2.972 1.729z"/><path fill="#9796F7" d="M519.217 432.975v5.462c0 7.377-11.001 13.359-24.57 13.359-13.571 0-24.572-5.982-24.572-13.359v-5.462h49.142z"/><path opacity=".41" fill="#6782EA" d="M507.138 449.898c-.786.264-1.59.513-2.44.719v-13.746h2.44v13.027zm-24.949.055c.786.263 1.591.512 2.44.718v-13.746h-2.44v13.028zm31.372-2.994c1.862-1.217 3.31-2.627 4.283-4.155v-9.197h-4.283v13.352z"/><ellipse fill="#D9DFF6" cx="494.646" cy="432.975" rx="24.571" ry="13.359"/><ellipse fill="#B4B9F6" cx="494.646" cy="432.808" rx="18.915" ry="10.043"/><path fill="#9796F7" d="M494.646 424.159c10.005 0 18.173 4.126 18.85 9.345.029-.23.064-.462.064-.696 0-5.545-8.467-10.04-18.914-10.04-10.448 0-18.917 4.495-18.917 10.04 0 .234.037.466.068.696.676-5.219 8.844-9.345 18.849-9.345z"/><path fill="#9796F7" d="M503.014 428.741l1.731-1.009-1.366-.79-1.734 1.007c-3.122-1.586-6.963-1.963-9.627-.416-3.357 1.953-1.121 3.992.579 5.674l-3.375 1.961c-.501-.565-.391-1.126.407-1.68l-3.918-2.265c-2.666 1.665-2.045 3.774.626 5.621l-1.753 1.021 1.369.79 1.729-1.006c3.554 1.872 7.437 1.764 9.749.421 3.313-1.927.979-3.985-.68-5.69l3.313-1.924c.396.469.311.993-.391 1.503l3.939 2.273c2.514-1.688 2.129-3.651-.598-5.491zm-9.567 7.18c-.787.46-1.909.486-2.912.069l3.027-1.758c.52.669.654 1.244-.115 1.689zm2.387-4.593c-.444-.652-.503-1.205.244-1.64.834-.484 1.801-.47 2.726-.089l-2.97 1.729z"/><path fill="#D9DFF6" d="M503.014 428.109l1.731-1.007-1.366-.789-1.734 1.004c-3.122-1.584-6.963-1.96-9.627-.415-3.357 1.953-1.121 3.992.579 5.675l-3.375 1.961c-.501-.567-.391-1.126.407-1.682l-3.918-2.264c-2.666 1.667-2.045 3.775.626 5.622l-1.753 1.021 1.369.789 1.729-1.006c3.554 1.873 7.437 1.766 9.749.422 3.313-1.927.979-3.985-.68-5.691l3.313-1.925c.396.471.311.993-.391 1.504l3.939 2.274c2.514-1.688 2.129-3.652-.598-5.493zm-9.567 7.183c-.787.458-1.909.483-2.912.069l3.027-1.759c.52.669.654 1.243-.115 1.69zm2.387-4.595c-.444-.65-.503-1.205.244-1.639.834-.484 1.801-.472 2.726-.09l-2.97 1.729z"/><path fill="#9796F7" d="M519.217 424.807v5.46c0 7.378-11.001 13.359-24.57 13.359-13.571 0-24.572-5.981-24.572-13.359v-5.46h49.142z"/><path opacity=".41" fill="#6782EA" d="M507.138 441.729c-.786.264-1.59.512-2.44.718v-13.746h2.44v13.028zm-24.949.054c.786.264 1.591.512 2.44.718v-13.744h-2.44v13.026zm31.372-2.994c1.862-1.217 3.31-2.625 4.283-4.153v-9.199h-4.283v13.352z"/><ellipse fill="#D9DFF6" cx="494.646" cy="424.807" rx="24.571" ry="13.359"/><ellipse fill="#B4B9F6" cx="494.646" cy="424.638" rx="18.915" ry="10.043"/><path fill="#9796F7" d="M494.646 415.989c10.005 0 18.173 4.127 18.85 9.345.029-.23.064-.461.064-.696 0-5.544-8.467-10.04-18.914-10.04-10.448 0-18.917 4.496-18.917 10.04 0 .235.037.466.068.696.676-5.218 8.844-9.345 18.849-9.345z"/><path fill="#9796F7" d="M503.014 420.571l1.731-1.008-1.366-.791-1.734 1.008c-3.122-1.587-6.963-1.963-9.627-.415-3.357 1.951-1.121 3.99.579 5.672l-3.375 1.964c-.501-.567-.391-1.127.407-1.683l-3.918-2.263c-2.666 1.663-2.045 3.774.626 5.62l-1.753 1.022 1.369.787 1.729-1.004c3.554 1.871 7.437 1.763 9.749.42 3.313-1.927.979-3.984-.68-5.691l3.313-1.924c.396.469.311.993-.391 1.503l3.939 2.273c2.514-1.687 2.129-3.648-.598-5.49zm-9.567 7.181c-.787.459-1.909.485-2.912.071l3.027-1.761c.52.669.654 1.244-.115 1.69zm2.387-4.594c-.444-.65-.503-1.205.244-1.638.834-.485 1.801-.472 2.726-.091l-2.97 1.729z"/><path fill="#D9DFF6" d="M503.014 419.941l1.731-1.009-1.366-.789-1.734 1.006c-3.122-1.586-6.963-1.962-9.627-.415-3.357 1.951-1.121 3.991.579 5.673l-3.375 1.962c-.501-.566-.391-1.127.407-1.681l-3.918-2.266c-2.666 1.667-2.045 3.775.626 5.622l-1.753 1.021 1.369.789 1.729-1.005c3.554 1.871 7.437 1.764 9.749.42 3.313-1.927.979-3.982-.68-5.691l3.313-1.923c.396.469.311.993-.391 1.503l3.939 2.273c2.514-1.687 2.129-3.65-.598-5.49zm-9.567 7.181c-.787.46-1.909.486-2.912.069l3.027-1.759c.52.67.654 1.244-.115 1.69zm2.387-4.595c-.444-.648-.503-1.204.244-1.639.834-.484 1.801-.471 2.726-.088l-2.97 1.727z"/><path fill="#9796F7" d="M634.221 302.31a3.6 3.6 0 01-.53-.579 2.563 2.563 0 01-.321-.617l-.011-.032a2.101 2.101 0 01-.113-.654l.52 84.635v.028a1.94 1.94 0 00.125.658c.005.019.011.035.018.054a2.271 2.271 0 00.249.486l.055.075.039.052c.032.045.062.09.097.134.08.096.166.19.262.284.04.039.091.074.132.111l.122.104c.052.043.097.088.154.131.17.129.359.25.563.367.276.155.576.289.889.407.103.039.211.068.316.104.157.053.31.112.474.155.076.021.158.035.235.052.068.016.134.031.202.045.076.018.153.039.23.053.18.033.359.061.544.083.063.009.13.014.195.021.034.003.066.006.102.011.061.006.121.014.184.019a10.851 10.851 0 00.873.03h.036l.033-.001c.116 0 .23-.004.348-.01.137-.004.271-.014.409-.024.121-.011.241-.023.361-.038l.024-.002c.009-.003.015-.003.024-.004.137-.018.275-.036.41-.06.144-.024.285-.052.425-.081.067-.014.135-.032.203-.049l.088-.021c.05-.014.103-.024.153-.038.164-.043.326-.093.485-.146.096-.032.184-.07.277-.105.049-.019.097-.036.146-.056.045-.017.095-.032.139-.052.262-.113.513-.237.747-.379 1.166-.692 1.744-1.592 1.738-2.485l-.52-84.635c.006.894-.572 1.793-1.739 2.485a6.508 6.508 0 01-1.031.486 8.51 8.51 0 01-.916.291l-.087.02c-.346.082-.702.147-1.063.193l-.025.002a9.86 9.86 0 01-1.115.072l-.036.002a10.45 10.45 0 01-1.092-.051l-.102-.01a9.833 9.833 0 01-.969-.155c-.067-.015-.136-.029-.203-.046a8.555 8.555 0 01-.71-.207c-.104-.036-.214-.065-.314-.104a6.464 6.464 0 01-.891-.409 4.859 4.859 0 01-.838-.6z"/><path fill="#9391EA" d="M635.059 302.911c-2.386-1.349-2.421-3.57-.087-4.959 2.345-1.395 6.188-1.433 8.574-.086 2.379 1.342 2.413 3.567.066 4.961-2.335 1.388-6.175 1.427-8.553.084z"/><path fill="#9796F7" d="M605.947 214.008l9.709-5.577c.131-.076.265-.149.398-.221.136-.073.278-.132.415-.201.235-.118.468-.235.706-.343.209-.095.423-.181.637-.268a18 18 0 01.735-.283c.089-.031.173-.071.264-.102.132-.044.27-.076.401-.117a17.502 17.502 0 011.444-.389c.257-.058.515-.111.776-.159.113-.021.222-.051.334-.07.123-.02.25-.028.373-.047a21.382 21.382 0 011.569-.168 23.1 23.1 0 01.879-.041c.145-.004.284-.019.431-.02.095 0 .193.009.287.009.359.001.723.016 1.087.033.219.012.436.02.658.036.412.032.833.082 1.253.134.149.019.295.026.446.048l.078.015c.668.099 1.346.229 2.032.382.179.04.361.089.539.133.528.129 1.06.272 1.596.433.12.036.236.06.355.097.125.039.252.089.377.129.311.101.623.209.937.321.291.104.58.208.874.321.316.122.635.251.954.385.294.122.589.247.886.378.321.144.644.295.966.45a33.818 33.818 0 011.881.953c.202.107.397.202.599.313.212.117.424.237.638.359a53.258 53.258 0 013.337 2.112 63.034 63.034 0 013.762 2.781c.12.096.24.182.36.278a65.788 65.788 0 012.523 2.163c.148.135.29.288.438.424.674.62 1.332 1.274 1.99 1.929.502.499 1.007.98 1.498 1.497.668.702 1.313 1.438 1.957 2.172.379.428.775.83 1.145 1.268.095.112.185.231.279.344.192.232.379.47.569.704a82.533 82.533 0 012.232 2.853c.21.282.422.56.629.844.133.181.27.353.4.536a89.763 89.763 0 012.013 2.943c.145.219.285.439.428.66.258.4.522.796.775 1.202.248.4.469.818.711 1.223.494.815.975 1.635 1.439 2.466.172.309.364.604.533.915.21.388.393.785.596 1.173.41.783.812 1.569 1.199 2.363.169.349.362.689.527 1.04.177.373.323.756.495 1.132.361.796.711 1.595 1.047 2.4.159.378.342.75.494 1.129.139.346.247.696.381 1.042.339.873.655 1.748.962 2.626.145.415.317.826.455 1.241.164.502.311 1.003.467 1.505.067.222.141.444.206.668.316 1.059.617 2.119.883 3.18.06.245.104.488.164.732.088.372.167.74.25 1.111.243 1.092.456 2.178.643 3.265.055.318.118.637.166.953.024.151.058.302.078.452.128.845.196 1.68.285 2.52.052.483.127.969.164 1.449.115 1.441.182 2.871.182 4.28-.006 11.797-4.179 20.094-10.9 23.943l-9.71 5.576-51.566-90.017z"/><path fill="#D9DFF6" d="M595.049 237.951c.01-23.442 16.473-33.06 36.703-21.444 20.231 11.617 36.674 40.131 36.664 63.573-.012 23.442-16.475 33.06-36.706 21.445-20.229-11.618-36.674-40.131-36.661-63.574zM663.428 278c-.365-20.476-14.886-45.645-32.359-56.11-17.481-10.471-31.397-2.335-31.033 18.139.366 20.467 14.88 45.641 32.361 56.111 17.472 10.467 31.397 2.327 31.031-18.14"/><path fill="#FFF" d="M663.428 278c.366 20.466-13.559 28.607-31.031 18.14-17.481-10.471-31.995-35.645-32.361-56.111-.364-20.475 13.552-28.61 31.033-18.139 17.473 10.466 31.994 35.635 32.359 56.11"/><path fill="#9391EA" d="M603.704 237.915c.366 20.466 14.88 45.64 32.359 56.111 7.747 4.638 14.79 5.615 20.205 3.49-5.676 4.501-14.231 4.4-23.872-1.375-17.481-10.471-31.995-35.645-32.361-56.111-.203-11.399 4.025-18.967 10.825-21.636-4.608 3.655-7.319 10.344-7.156 19.521z"/><path opacity=".3" fill="#6642CC" d="M358.888 295.301l21.862 12.743c3.702 2.159 3.674 7.518-.049 9.639l-3.731 2.125a11.521 11.521 0 01-11.504-.059l-21.862-12.743c-3.702-2.157-3.674-7.515.049-9.635l3.731-2.127a11.526 11.526 0 0111.504.057z"/><path fill="#130159" d="M350.347 298.96s.901-3.002 6.247-2.019c.885.162 1.812 3.856 1.812 3.856l9.766 2.94s-18.521 6.92-18.357 3.952c.244-4.43.532-8.729.532-8.729z"/><path fill="#5601F3" d="M347.384 221.084l2.96 78.698c1.773 2.408 7.784.383 7.784.383.303-2.32 6.031-74.864 6.031-74.864l-16.775-4.217z"/><path fill="#F4C5A2" d="M384.985 173.712c1.258.569 1.47-.861 1.64-1.98.071-.467.332-1.614.451-1.674.219-.111.529 1.238.727.853.128-.257 2.606-3.85 4.48-1.736.974 1.098-1.82 4.618-2.917 5.146-2.114 1.019-2.511.021-3.864 1.659l-.517-2.268z"/><path fill="#00CDC4" d="M365.077 176.415c5.171 3.457 9.583 4.035 9.583 4.035l11.484-8.268s1.544-.641 2.098 3.149c0 0-11.77 13.389-14.368 13.715-2.602.326-6.39-1.553-12.564-4.962-10.453-5.771-1.641-11.286 3.767-7.669z"/><path fill="#130159" d="M359.867 302.874s.9-3.005 6.246-2.021c.886.163 1.813 3.856 1.813 3.856l9.765 2.94s-18.52 6.922-18.356 3.952c.243-4.43.532-8.727.532-8.727z"/><path fill="#681EF7" d="M356.947 227.231l2.958 76.297c1.773 2.407 7.784.381 7.784.381.303-2.32 6.031-74.863 6.031-74.863l-16.773-1.815z"/><path fill="#FED4BD" d="M365.548 167.401l1.165 7.203-6.808-.471 1.335-6.085z"/><path fill="#FFF" d="M368.932 173.079l-9.701-1.212-1.105 3.918 11.188.517z"/><path fill="#FED4BD" d="M367.914 161.999c.495 3.435-.455 7.188-4.146 6.951-2.81-.182-5.448-2.054-5.946-5.488-.498-3.435 1.357-6.547 4.143-6.95 2.787-.406 5.45 2.052 5.949 5.487z"/><path fill="#3D00BD" d="M360.732 169.514s1.281 1.026 3.036-.564c0 0 1.013-2.219.976-3.309-.03-.886-1.275-2.002-.983-2.763.563-1.475 1.936-1.204 2.315 1.683.16-1.361 7.415-4.886 2.896-8.169-5.863-4.26-14.798-.509-11.703 4.987-2.623.743 1.277 5.727 3.463 8.135z"/><path fill="#01E4D0" d="M372.295 179.496c1.169 3.863 2.81 36.004 5.336 47.964-4.698 6.02-26.495 7.34-32.692.316 0 0 1.773-23.661 8.292-45.729 2.755-9.336 11.161-12.472 19.064-2.551z"/><path fill="#F4C5A2" d="M396.543 181.803c1.799.356 2.39-1.881 2.9-2.972 1.76-3.761 1.397-1.069 1.662-1.006.698.163 3.864-1.363 4.267.354.449 1.922-2.051 3.285-3.474 4.044-2.736 1.464-2.712-.116-4.321 1.853l-1.034-2.273z"/><path fill="#01E4D0" d="M370.16 176.803c8.939 9.552 9.748 10.683 9.748 10.683l18.364-7.626s3.503.448 2.259 4.324c0 0-17.002 14.401-21.208 14.14-4.205-.262-9.675-6.567-15.782-13.436-8.178-9.199.899-14.199 6.619-8.085z"/><path opacity=".5" fill="#BBB8F6" d="M109.771 258.03c-56.084 0-101.542 24.722-101.542 55.211 0 30.485 45.458 55.207 101.542 55.207 56.072 0 101.532-24.722 101.532-55.207-.001-30.489-45.461-55.211-101.532-55.211zm-.001 88.469c-40.479 0-73.29-14.893-73.29-33.261 0-18.366 32.811-33.258 73.29-33.258 40.471 0 73.282 14.892 73.282 33.258-.001 18.368-32.812 33.261-73.282 33.261z"/><path fill="#8285DF" d="M209.24 274.156s-15.024-37.252-99.475-37.252-99.475 54.612-99.475 54.612v18.74c0 29.868 44.536 54.088 99.48 54.088 54.933 0 99.47-24.22 99.47-54.088v-36.1zm-99.47 68.683c-39.658 0-71.802-14.59-71.802-32.583s32.144-32.585 71.802-32.585c39.648 0 71.794 14.592 71.794 32.585s-32.147 32.583-71.794 32.583z"/><path fill="#B3B8F6" d="M109.771 220.067c-54.945 0-99.48 24.22-99.48 54.089 0 29.866 44.536 54.087 99.48 54.087 54.933 0 99.47-24.221 99.47-54.087-.001-29.869-44.537-54.089-99.47-54.089zm-.001 86.671c-39.658 0-71.802-14.589-71.802-32.582 0-17.994 32.144-32.584 71.802-32.584 39.648 0 71.794 14.59 71.794 32.584 0 17.993-32.147 32.582-71.794 32.582z"/><path fill="#F6BF03" d="M169.854 306.829c-12.823 8.884-34.938 14.759-60.084 14.759-.627 0-1.247-.017-1.87-.022v42.752c.625.005 1.244.026 1.871.026 37.261 0 69.719-11.151 86.76-27.642v-36.101s-23.837 7.121-26.677 6.228z"/><path fill="#F6DD03" d="M169.854 291.981c-12.823 8.885-34.938 14.757-60.084 14.757-.627 0-1.247-.014-1.87-.02v21.499c.625.006 1.244.025 1.871.025 37.261 0 69.719-11.151 86.76-27.642-6.059-1.951-12.104-3.955-18.151-5.944-2.836-.929-5.686-1.783-8.526-2.675z"/><path fill="#00CDC4" d="M108.312 327.793c-34.565 1.229-71.856-18.318-70.268-37.4-9.272 0-27.754-14.846-27.754-14.846v34.73c0 29.602 43.752 53.641 98.021 54.067v-36.551z"/><path fill="#01E4D0" d="M108.313 306.722c-37.96-.343-68.682-14.049-70.269-31.175h-27.69c1.349 28.959 44.543 52.257 97.958 52.677v-21.502z"/><path opacity=".5" fill="#BBB8F6" d="M197.508 352.384l3.445 1.962c3.438 1.958 3.462 6.904.045 8.897l-20.184 11.765a10.636 10.636 0 01-10.622.053l-3.445-1.961c-3.438-1.957-3.463-6.906-.043-8.898l20.184-11.764a10.628 10.628 0 0110.62-.054z"/><path opacity=".3" fill="#6642CC" d="M439.317 334.056l3.444 1.962c3.438 1.96 3.464 6.906.045 8.899l-20.185 11.764a10.634 10.634 0 01-10.622.054l-3.444-1.961c-3.438-1.959-3.463-6.906-.044-8.898l20.185-11.765a10.635 10.635 0 0110.621-.055z"/><path fill="#F4C5A2" d="M417.826 238.854s-4.003-2.002-4.501-2.509c-.501-.507-2.245-2.616-3.392-2.687-.717-.044-.133.564.365 1.365 1.149 1.849-3.008-1.729-3.998-.291-.634.92-.073 4.368 4.761 5.267 2.038.378 4.124 2.1 4.985 2.39l1.78-3.535z"/><path fill="#F6DD03" d="M429.294 230.098c1.821 10.166 4.206 15.64 4.206 15.64l-20.052-9.915s-4.146-.846-2.347 4.824c0 0 25.567 17.02 34.136 11.467 4.565-2.959-1.309-24.869-8.414-28.426-3.785-1.211-9.057-2.124-7.529 6.41z"/><path fill="#FED4BD" d="M423.869 216.591v7.421l5.889-.712-2.222-7.553z"/><path fill="#FFFAFF" d="M423.926 220.503l5.709-.814 1.366 3.196-8.335 1.249z"/><path fill="#130159" d="M437.18 338.491s-2.328-.973-7.078.459c-3.175.958-10.447 3.596-10.447 3.596s17.53 4.79 17.547 2.075c.028-4.049-.022-6.13-.022-6.13z"/><path fill="#130159" d="M427.126 343.689s-2.153-.134-7.078.46c-2.098.252-10.446 3.594-10.446 3.594s17.529 4.791 17.548 2.076c.027-4.048-.024-6.13-.024-6.13z"/><path fill="#5601F3" d="M442.609 265.766l-4.059 73.48s-3.845 1.804-9.291-.618l-.528-71.512 13.878-1.35z"/><path fill="#681EF7" d="M434.055 268.348l-5.726 76.845c-8.019.909-8.473-1.544-8.473-1.544.454-4.388-1.699-78.626-1.699-78.626l15.898 3.325z"/><path fill="#FED4BD" d="M419.846 211.542c.34 3.446 2.16 6.855 5.677 5.74 2.679-.847 4.787-3.292 4.447-6.738-.34-3.447-2.882-6.017-5.678-5.742-2.796.276-4.787 3.294-4.446 6.74z"/><path fill="#3D00BD" d="M428.598 217.102s-.993 1.3-3.075.18c0 0-1.512-1.906-1.737-2.971-.182-.866.758-2.245.293-2.913-.899-1.294-2.163-.703-1.841 2.185-.48-1.28-8.353-2.958-4.761-7.22 4.66-5.529 14.214-4.036 12.531 2.031 2.719.091.132 5.853-1.41 8.708z"/><path fill="#F6BF03" d="M416.75 227.238s1.54 29.308 1.54 45.205c5.87 5.296 25.173.76 26.464-2.334 1.292-3.093-.613-5.796-1.119-9.442-1.619-11.652-.082-26.988-3.208-32.817-4.227-7.879-14.184-8.457-23.677-.612z"/><path fill="#3D00BD" d="M423.615 284.24l-19.18-11.508v18.279l18.821 10.979z"/><path fill="#7676E5" d="M404.933 279.697s-.955-.609-.955-.491v6.042l.955.397v-5.948z"/><path fill="#F4C5A2" d="M410.769 280.729c-1.607 2.097-2.826 8.497 1.063 9.233 1.14.216 3.323-4.205 3.535-7.675"/><path fill="#F6DD03" d="M414.246 232.475c1.63-8.515 7.872-8.624 8.813 5.461.479 7.156.293 11.068-.723 19.923-.764 6.647-6.056 26.03-6.091 26.059-.713.603-6.213-1.974-6.369-4.084 2.694-8.764 3.423-11.401 4.265-22.869.713-9.722-1.139-17.978.105-24.49z"/><path fill="#3D00BD" d="M128.55 247.472c-.538 3.286-1.673 8.578-2.211 11.862-.191 1.159-.381 2.338-.245 3.506.136 1.167.644 2.343 1.6 3.025 1.238.885 2.904.769 4.417.616l6.801-.688c1.167-.116 2.353-.239 3.441-.679 1.088-.437 2.085-1.244 2.477-2.35.485-1.371-.031-2.872-.544-4.235l-2.712-7.196c-.42-1.114-.841-2.232-1.382-3.292"/><path fill="#130159" d="M171.368 357.152l-.316 7.185 14.115 6.124-6.854-10.667-1.824-4.188zm10.612-4.659l-.315 7.183 15.376 1.772-8.115-6.316-1.825-4.186z"/><path fill="#5601F3" d="M136.935 295.091c-2.456 10.28 3.057 12.572 9.363 14.848 6.757 2.44 20.268 4.445 20.268 4.445l14.512 39.453c2.502 1.79 5.151 1.162 7.902-1.15l-12.282-45.002-24.27-13.555-15.493.961z"/><path fill="#681EF7" d="M130.432 300.079c-2.456 10.28 3.058 12.572 9.364 14.848 6.757 2.44 20.267 4.445 20.267 4.445l9.996 38.68c2.097 1.905 4.947 1.621 8.254 0l-9.611-44.813-21.885-14.093-16.385.933z"/><path fill="#F70083" d="M154.526 295.3c-.417-2.753-5.916-2.081-5.388-14.1.34-7.76-.926-17.767-5.281-20.079-3.661-1.942-11.093 1.474-13.07 2.732-4.206 2.678-2.077 4.265-2.977 9.169-.899 4.905-.595 26.726-.595 31.712 0 1.901 17.124 5.756 26.295-6.154"/><path fill="#827FDE" d="M153.386 312.349l-12.903-7.505c-.166-.097-.158-.332.007-.429l23.641-13.737a.25.25 0 01.251 0l12.882 7.494a.251.251 0 010 .433l-23.64 13.737a.225.225 0 01-.238.007z"/><path fill="#DFE3FF" d="M177.171 298.225l-23.516 13.666a.32.32 0 01-.314 0l-12.756-7.423a.313.313 0 010-.542l23.515-13.665a.31.31 0 01.314 0l12.757 7.422a.315.315 0 010 .542z"/><path fill="#FED4BD" d="M161.389 292.254c2.142.467 6.087 3.116 5.686 3.881-.4.763-2.482 2.643-7.367-1.94-4.887-4.585 1.681-1.941 1.681-1.941z"/><path fill="#F1539A" d="M151.922 292.229l7.758 3.586c.187-1.839 2.088-2.723 4.14-2.735l-12.896-8.62-1.786-6.441s-.062 4.466 0 6.203c.119 3.395.98 6.387 2.784 8.007z"/><path fill="#FED4BD" d="M134.651 263.107c-.112 1.701 4.843.677 4.189-.664l-.987-5.413c-.109-.599-.229-1.22-.593-1.708-1.373-1.833-2.416-.429-2.495 1.048-.12 2.238-.076 4.496-.114 6.737z"/><path fill="#FED4BD" d="M140.933 252.319c.61-1.839.772-3.895.054-5.693-.72-1.8-2.444-3.261-4.381-3.304-2.061-.045-3.919 1.511-4.713 3.414-.794 1.902-.69 4.066-.252 6.082.366 1.682 1.007 3.394 2.314 4.515 3.855 3.3 5.976-1.999 6.978-5.014z"/><path fill="#3D00BD" d="M136.336 249.928c.005.699.551 1.357 1.238 1.491s1.439-.273 1.707-.918c.167.762 1.065 1.222 1.828 1.053s1.348-.835 1.591-1.578c.244-.743.191-1.55.046-2.319a9.918 9.918 0 00-.685-2.185c-.332-.745-.76-1.451-1.317-2.047-1.355-1.442-5.371-2.363-7.332-.661-4.01-.512-4.943 3.246-4.994 6.511-.274 1.812 1.039 3.178 1.608 4.92.314.963 1.114 1.316 2.118 1.17.854-.125-1.428-1.909-.954-4.174.247-1.177 1.417 1.441 1.818 1.298-.025.009.313-2.565.401-2.708.792.593 2.112 1.54 2.927.147z"/><path fill="#FED4BD" d="M146.523 300.468c2.142.468 6.088 3.115 5.687 3.881-.401.765-2.483 2.644-7.369-1.94s1.682-1.941 1.682-1.941z"/><path fill="#F1539A" d="M129.922 264.645c-6.1 1.033-5.229 23.826-3.088 28.385 2.141 4.56 17.949 10.405 17.949 10.405.6-2.081 1.652-3.176 3.099-3.414l-15.056-11.012s-.032-9.995.077-13.576c.072-2.445 2.195-11.663-2.981-10.788z"/><path fill="#8285DF" d="M153.165 311.451l4.208-14.177a.683.683 0 01.316-.397l23.07-13.405a.38.38 0 01.556.437l-4.207 14.165a.697.697 0 01-.316.404l-23.07 13.406a.38.38 0 01-.557-.433z"/><path fill="#D9DFF6" d="M153.769 311.721c.891-3.006 3.708-12.49 4.209-14.178a.688.688 0 01.314-.396l23.07-13.406a.381.381 0 01.557.438l-4.207 14.165a.706.706 0 01-.318.404l-23.068 13.405c-.298.172-.656-.103-.557-.432z"/><path opacity=".5" fill="#BBB8F6" d="M260.119 348.521c2.163-1.248 5.653-1.248 7.795-.004l150.851 87.665c2.142 1.244 2.131 3.266-.033 4.514l-112.906 64.361c-2.163 1.249-5.653 1.249-7.795.003L147.18 417.396c-2.141-1.244-2.13-3.266.033-4.514l112.906-64.361z"/><path fill="#B4B9F6" d="M260.503 346.739c2.127-1.228 5.559-1.228 7.665-.004l148.313 86.19c2.106 1.224 2.096 3.211-.032 4.438l-111.006 63.28c-2.128 1.227-5.56 1.227-7.665.004l-148.313-86.191c-2.106-1.223-2.095-3.21.032-4.439l111.006-63.278z"/><path fill="#FFF" d="M262.104 352.226c1.975-1.141 5.162-1.141 7.118-.004l137.739 80.045c1.956 1.136 1.945 2.982-.03 4.124L303.84 495.155c-1.975 1.143-5.161 1.143-7.118.006l-137.739-80.047c-1.956-1.137-1.945-2.981.03-4.122l103.091-58.766z"/><path fill="#9796F7" d="M241.93 351.567c1.522-.878 3.978-.878 5.484-.002l5.762 3.529c1.509.876 1.5 2.298-.022 3.176l-79.429 45.277c-1.522.878-3.978.878-5.485.003l-5.762-3.529c-1.508-.875-1.5-2.297.022-3.177l79.43-45.277z"/><path fill="#DFE3FF" d="M288.518 479.032c-.583 0-1.149-.3-1.461-.83a1.653 1.653 0 01.618-2.271l89.331-50.817a1.695 1.695 0 012.299.607 1.648 1.648 0 01-.615 2.268l-89.331 50.82a1.706 1.706 0 01-.841.223zm-12.553-7.635a1.69 1.69 0 01-1.459-.829 1.648 1.648 0 01.616-2.268l89.33-50.82a1.696 1.696 0 012.301.607 1.65 1.65 0 01-.617 2.271l-89.33 50.817a1.69 1.69 0 01-.841.222zm-12.551-7.63a1.69 1.69 0 01-1.461-.831 1.65 1.65 0 01.618-2.27l89.332-50.821a1.698 1.698 0 012.301.607 1.652 1.652 0 01-.616 2.271l-89.333 50.821a1.734 1.734 0 01-.841.223zm-12.553-7.634a1.69 1.69 0 01-1.46-.831 1.649 1.649 0 01.617-2.269l89.33-50.821a1.697 1.697 0 012.3.607 1.652 1.652 0 01-.616 2.271l-89.331 50.821a1.69 1.69 0 01-.84.222zm-12.553-7.633a1.689 1.689 0 01-1.46-.832 1.65 1.65 0 01.616-2.269l89.333-50.821a1.7 1.7 0 012.302.607 1.652 1.652 0 01-.618 2.271l-89.332 50.822a1.7 1.7 0 01-.841.222zm-12.551-7.634a1.688 1.688 0 01-1.46-.831 1.647 1.647 0 01.617-2.269l89.33-50.821a1.698 1.698 0 012.3.609c.465.793.188 1.81-.616 2.268l-89.331 50.822a1.685 1.685 0 01-.84.222zm-12.552-7.635a1.692 1.692 0 01-1.46-.83 1.652 1.652 0 01.617-2.27l89.33-50.82a1.7 1.7 0 012.302.609 1.648 1.648 0 01-.618 2.269l-89.33 50.819a1.69 1.69 0 01-.841.223zm-12.553-7.632c-.583 0-1.149-.3-1.461-.83a1.652 1.652 0 01.618-2.271l89.332-50.819a1.697 1.697 0 012.299.609 1.648 1.648 0 01-.616 2.268l-89.332 50.82a1.71 1.71 0 01-.84.223zm-12.552-7.635a1.689 1.689 0 01-1.459-.829 1.65 1.65 0 01.616-2.27l89.33-50.82a1.7 1.7 0 012.3.609 1.648 1.648 0 01-.616 2.269l-89.33 50.819a1.692 1.692 0 01-.841.222z"/><g><path opacity=".5" fill="#BBB8F6" d="M406.841 554.327l-59.069-34.104c-2.877-1.66-2.877-5.813 0-7.473l86.743-50.082a15.65 15.65 0 0115.651 0l53.444 30.855c5.054 2.919 5.054 10.215 0 13.132l-82.569 47.672a14.203 14.203 0 01-14.2 0z"/><path fill="#9796F7" d="M505.042 491.573l-3.621.529-59.565-34.388-88.813 51.276V508l-5.033-.163v5.07a6.042 6.042 0 003.016 5.228l56.064 32.452a14.572 14.572 0 0014.555.021l80.091-46.097a6.6 6.6 0 003.307-5.718v-7.22z"/><path fill="#B4B9F6" d="M407.587 544.695L350 511.447c-2.652-1.531-2.652-5.359 0-6.89l84.378-48.716a14.955 14.955 0 0114.954 0l52.138 30.101c4.761 2.75 4.761 9.621 0 12.371l-80.335 46.382a13.553 13.553 0 01-13.548 0z"/><path fill="#D9DFF6" d="M494.716 488.232l-46.235-26.694a15.113 15.113 0 00-15.114 0c-3.345 1.932-3.345 6.761 0 8.692l46.237 26.694a15.11 15.11 0 0015.112 0c3.347-1.932 3.347-6.76 0-8.692z"/><path fill="#9796F7" d="M413.531 486.994l-9.881-5.704a1.553 1.553 0 010-2.692l9.881-5.705a1.557 1.557 0 011.554 0l9.883 5.705a1.554 1.554 0 010 2.692l-9.883 5.704a1.552 1.552 0 01-1.554 0zm16.139 9.318l-9.882-5.705c-1.036-.597-1.036-2.093 0-2.692l9.882-5.705a1.564 1.564 0 011.555 0l9.881 5.705c1.036.6 1.036 2.096 0 2.692l-9.881 5.705a1.554 1.554 0 01-1.555 0zm16.138 9.318l-9.881-5.705a1.554 1.554 0 010-2.692l9.881-5.704a1.559 1.559 0 011.555 0l9.882 5.704c1.036.599 1.036 2.095 0 2.692l-9.882 5.705a1.554 1.554 0 01-1.555 0z"/><path fill="#01E4D0" d="M461.947 514.947l-9.883-5.705a1.553 1.553 0 010-2.691l9.882-5.706a1.559 1.559 0 011.555 0l9.881 5.706a1.553 1.553 0 010 2.691l-9.881 5.705a1.547 1.547 0 01-1.554 0z"/><path fill="#D9DFF6" d="M397.227 496.407l-9.881-5.705c-1.036-.597-1.036-2.093 0-2.692l9.881-5.705a1.559 1.559 0 011.555 0l9.882 5.705c1.036.6 1.036 2.096 0 2.692l-9.882 5.705c-.481.28-1.073.28-1.555 0zm16.139 9.319l-9.883-5.705c-1.036-.599-1.036-2.095 0-2.691l9.882-5.706a1.559 1.559 0 011.555 0l9.881 5.706a1.553 1.553 0 010 2.691l-9.881 5.705a1.552 1.552 0 01-1.554 0zm16.139 9.316l-9.881-5.704c-1.038-.599-1.038-2.095 0-2.691l9.881-5.705a1.55 1.55 0 011.553 0l9.883 5.705a1.553 1.553 0 010 2.691l-9.883 5.704a1.55 1.55 0 01-1.553 0zm16.137 9.317l-9.88-5.705a1.553 1.553 0 010-2.691l9.88-5.706a1.567 1.567 0 011.557 0l9.881 5.706c1.036.599 1.036 2.095 0 2.691l-9.881 5.705a1.553 1.553 0 01-1.557 0zm-64.718-18.537l-9.881-5.706c-1.036-.599-1.036-2.095 0-2.691l9.881-5.705a1.554 1.554 0 011.555 0l9.882 5.705a1.553 1.553 0 010 2.691l-9.882 5.706a1.559 1.559 0 01-1.555 0zm16.138 9.316l-9.881-5.705a1.553 1.553 0 010-2.691l9.881-5.705a1.56 1.56 0 011.556 0l9.881 5.705a1.554 1.554 0 010 2.691l-9.881 5.705a1.556 1.556 0 01-1.556 0zm16.137 9.317l-9.881-5.705c-1.035-.597-1.035-2.093 0-2.691l9.881-5.705a1.556 1.556 0 011.556 0l9.882 5.705c1.035.599 1.035 2.095 0 2.691l-9.882 5.705a1.56 1.56 0 01-1.556 0z"/><path fill="#F6BF03" d="M411.915 542.539l-8.465-4.887c-1.167-.675-1.167-2.361 0-3.035l24.768-14.3a3.803 3.803 0 013.797 0l8.462 4.886c1.169.675 1.169 2.362 0 3.037l-24.768 14.299a3.788 3.788 0 01-3.794 0z"/><path fill="#D9DFF6" d="M364.62 515.234l-9.883-5.706c-1.035-.599-1.035-2.095 0-2.691l9.883-5.705a1.554 1.554 0 011.555 0l9.88 5.705a1.553 1.553 0 010 2.691l-9.88 5.706a1.554 1.554 0 01-1.555 0zm16.139 9.317l-9.882-5.706a1.551 1.551 0 010-2.69l9.882-5.705a1.552 1.552 0 011.554 0l9.883 5.705c1.035.598 1.035 2.094 0 2.69l-9.883 5.706a1.557 1.557 0 01-1.554 0zm16.137 9.319l-9.881-5.705c-1.035-.6-1.035-2.096 0-2.694l9.881-5.705a1.564 1.564 0 011.555 0l9.882 5.705a1.556 1.556 0 010 2.694l-9.882 5.705a1.564 1.564 0 01-1.555 0z"/></g><g><path opacity=".5" fill="#BBB8F6" d="M211.542 282.195c0 6.792 10.367 12.297 23.159 12.297 12.789 0 23.156-5.505 23.156-12.297 0-6.787-10.367-12.292-23.156-12.292-12.792.001-23.159 5.506-23.159 12.292z"/><path fill="#B3B8F6" d="M208.618 247.894l5.074 30.919c.467 7.218 9.754 12.835 20.761 12.835 11.005 0 20.293-5.617 20.76-12.835l5.075-30.919h-51.67z"/><path fill="#9796F7" d="M208.618 242.098v7.989c0 8.541 11.566 15.467 25.835 15.467s25.835-6.926 25.835-15.467v-7.989h-51.67z"/><ellipse fill="#D9DFF6" cx="234.453" cy="242.098" rx="25.835" ry="15.466"/><path fill="#FFF" d="M234.453 254.935c-14.078 0-23.886-6.765-23.886-12.837s9.809-12.837 23.886-12.837 23.886 6.765 23.886 12.837-9.809 12.837-23.886 12.837z"/><path fill="#B3B8F6" d="M234.453 254.935c-14.078 0-23.886-6.765-23.886-12.837s9.809-12.837 23.886-12.837 23.886 6.765 23.886 12.837-9.809 12.837-23.886 12.837z"/><path fill="#8285DF" d="M234.453 238.016c-10.708 0-18.94 3.914-22.271 8.46 3.331 4.544 11.563 8.459 22.271 8.459 10.707 0 18.939-3.915 22.27-8.459-3.331-4.546-11.563-8.46-22.27-8.46z"/><path fill="#603EFF" d="M224.377 217.52c.295-2.695.691-5.441 1.934-7.851 1.241-2.41 3.49-4.458 6.184-4.77 2.904-.335 5.742 1.422 7.449 3.793 1.71 2.372 2.486 5.276 3.107 8.132a104.027 104.027 0 012.378 22.59c-.012 2.744-.179 5.641-1.675 7.942-1.852 2.85-5.434 4.185-8.834 4.206-2.43.014-7.963-.401-9.779-2.269-1.767-1.817-1.234-6.847-1.368-9.246a136.6 136.6 0 01.604-22.527z"/><path fill="#603EFF" d="M217.081 225.958c-1.883-3.705-2.33-8.118-1.226-12.125.336-1.225 1.123-2.631 2.392-2.585 1.093.04 1.832 1.214 1.904 2.305.075 1.091-.298 2.157-.425 3.243-.321 2.769 1.144 5.663 3.563 7.044 1.24.708 2.689 1.045 3.815 1.921 1.338 1.042 2.058 2.824 1.82 4.502-1.199 8.481-10.179-1.031-11.843-4.305zm31.734 3.691a15.44 15.44 0 004.752-9.133c.179-1.303.113-2.813-.875-3.682-1.104-.971-2.937-.632-3.991.392-1.053 1.024-1.484 2.527-1.704 3.981-.221 1.453-.282 2.948-.78 4.331-.497 1.382-1.555 2.683-2.999 2.957-1.604.304-3.472-.658-4.789.304-2.597 1.895-.122 4.73 2.107 4.788 2.852.074 6.288-2.089 8.279-3.938z"/></g><g><path opacity=".5" fill="#BBB8F6" d="M136.771 440.712a6.395 6.395 0 016.372.03l98.844 57.442c4.265 2.479 4.235 8.649-.054 11.085a6.39 6.39 0 01-6.371-.029l-98.843-57.442c-4.266-2.479-4.237-8.65.052-11.086z"/><path fill="#B4B9F6" d="M230.026 486.774c.293-.094.58-.158.851-.186l.077-.007a3.06 3.06 0 01.877.052c.267.058.519.148.748.282l-88.107-51.304c-.01-.003-.019-.01-.029-.016a2.691 2.691 0 00-.534-.224c-.06-.018-.124-.03-.186-.044-.015-.001-.027-.006-.042-.008a1.196 1.196 0 00-.064-.016 2.692 2.692 0 00-.314-.036 2.798 2.798 0 00-.343-.002c-.037.002-.076.008-.112.011-.026.001-.051.005-.078.008-.066.006-.13.009-.197.02a3.982 3.982 0 00-.457.098c-.064.017-.132.046-.197.067-.06.019-.12.041-.181.062-.078.029-.153.048-.233.08-.236.1-.478.22-.724.361-.331.19-.653.421-.968.672-.104.081-.2.177-.301.263-.15.133-.305.254-.451.398-.068.067-.132.143-.199.212-.058.061-.114.12-.17.182-.064.069-.132.136-.194.206a11.73 11.73 0 00-.42.514c-.048.062-.094.126-.141.19a3.576 3.576 0 00-.072.099c-.044.059-.09.118-.132.179a12.91 12.91 0 00-.569.886l-.021.039-.019.034a11.39 11.39 0 00-.609 1.204c-.004.008-.009.017-.012.027l-.012.024c-.067.154-.131.31-.19.465-.063.161-.121.324-.176.489-.025.078-.048.159-.072.239l-.032.104c-.019.061-.039.122-.056.182-.054.198-.104.396-.146.592-.025.12-.04.237-.06.355l-.032.184c-.009.06-.022.118-.03.177a7.694 7.694 0 00-.066 1.005c.004 1.635.583 2.784 1.514 3.326l88.106 51.301c-.93-.539-1.508-1.689-1.514-3.322 0-.386.037-.781.098-1.183.008-.063.021-.123.031-.187.064-.374.149-.749.262-1.127.009-.035.021-.069.031-.104a11.808 11.808 0 01.464-1.246c.178-.41.383-.811.607-1.202l.021-.037c.22-.383.463-.75.722-1.104.022-.034.047-.066.071-.099.238-.32.493-.623.755-.909l.172-.183c.21-.217.428-.415.65-.607.101-.089.198-.183.301-.265.314-.252.637-.48.966-.674.328-.188.647-.325.958-.439.06-.018.121-.039.18-.058z"/><path fill="#9796F7" d="M135.696 443.892c.008-.059.021-.117.03-.176a8.86 8.86 0 01.032-.185c.02-.118.035-.236.06-.355.042-.195.091-.394.146-.592.017-.06.037-.121.056-.182l.032-.104c.024-.08.047-.161.072-.241.055-.163.113-.326.176-.487a14.179 14.179 0 01.214-.516 12.044 12.044 0 01.609-1.204l.019-.034.021-.039a14.487 14.487 0 01.568-.886c.043-.061.088-.12.133-.179.023-.035.048-.066.072-.099.047-.064.092-.129.141-.19.136-.176.276-.348.42-.514.063-.07.13-.137.194-.206l.17-.182c.067-.069.131-.145.199-.212.146-.145.301-.266.451-.398.101-.086.197-.182.301-.263.314-.251.636-.481.968-.672.246-.142.488-.262.724-.361.08-.032.155-.051.233-.08.061-.021.121-.043.181-.062.065-.021.133-.051.197-.067.154-.042.307-.075.457-.098.067-.011.131-.014.197-.02.026-.003.052-.007.077-.008.037-.003.076-.009.113-.011a2.927 2.927 0 01.657.038l.064.016c.015.002.027.007.042.008.062.014.125.026.186.044.094.028.186.06.274.098.089.035.176.08.26.126.01.006.019.013.029.016l4.692 2.733h-.018c-.04 0-.082.01-.121.011a2.61 2.61 0 01-.082.01c-.072.006-.14.01-.213.021-.16.024-.323.06-.489.104-.068.019-.141.051-.21.071a6.433 6.433 0 00-.194.067c-.084.029-.164.051-.249.087a6.903 6.903 0 00-.777.385 8.518 8.518 0 00-1.038.721c-.11.088-.214.189-.322.283-.162.141-.328.272-.484.425-.074.073-.142.152-.214.229-.062.064-.122.129-.182.194-.069.074-.142.144-.209.222-.155.177-.305.361-.45.549-.052.066-.101.136-.15.205a4.077 4.077 0 00-.078.105c-.048.063-.097.125-.142.191a13.441 13.441 0 00-.61.95l-.022.043-.021.035a15.247 15.247 0 00-.458.865c-.068.142-.132.283-.194.428l-.013.029-.013.026a13.042 13.042 0 00-.392 1.023c-.028.085-.052.171-.078.257l-.035.111c-.019.065-.042.13-.059.196-.059.212-.111.423-.156.635-.027.127-.043.252-.065.379l-.034.199c-.01.063-.024.125-.033.188a8.286 8.286 0 00-.07 1.078c.002.875.158 1.621.438 2.22l-4.583-2.667c-.93-.542-1.509-1.691-1.514-3.326 0-.328.022-.665.067-1.005z"/><path fill="#FFF" d="M228.888 487.275c1.43-.824 2.729-.905 3.669-.371s12.611 17.377 12.611 17.377-18.963-4.21-19.902-4.748c-.939-.537-1.524-1.69-1.529-3.332-.009-3.272 2.305-7.28 5.151-8.926z"/><path fill="#9796F7" d="M240.394 497.457c2.569 3.642 4.774 6.824 4.774 6.824s-3.438-.763-7.455-1.681c-1.61-2.379 1.33-5.698 2.681-5.143z"/></g></svg>