<svg xmlns="http://www.w3.org/2000/svg" width="837" height="728" viewBox="552.5 -72.5 837 728" enable-background="new 552.5 -72.5 837 728"><filter height="415.6%" width="510%" id="h" filterUnits="objectBoundingBox" y="-155.9%" x="-198.3%"><feOffset result="shadowOffsetOuter1" in="SourceAlpha"/><feGaussianBlur stdDeviation="2.5" result="shadowBlurOuter1" in="shadowOffsetOuter1"/><feColorMatrix values="0 0 0 0 0 0 0 0 0 1 0 0 0 0 0.918817935 0 0 0 1 0" result="shadowMatrixOuter1" in="shadowBlurOuter1"/><feMerge><feMergeNode in="shadowMatrixOuter1"/><feMergeNode in="SourceGraphic"/></feMerge></filter><filter height="435.7%" width="510%" id="g" filterUnits="objectBoundingBox" y="-167.8%" x="-198.3%"><feOffset result="shadowOffsetOuter1" in="SourceAlpha"/><feGaussianBlur stdDeviation="2.5" result="shadowBlurOuter1" in="shadowOffsetOuter1"/><feColorMatrix values="0 0 0 0 0 0 0 0 0 1 0 0 0 0 0.918817935 0 0 0 1 0" result="shadowMatrixOuter1" in="shadowBlurOuter1"/><feMerge><feMergeNode in="shadowMatrixOuter1"/><feMergeNode in="SourceGraphic"/></feMerge></filter><filter height="435.7%" width="510%" id="e" filterUnits="objectBoundingBox" y="-167.8%" x="-198.3%"><feOffset result="shadowOffsetOuter1" in="SourceAlpha"/><feGaussianBlur stdDeviation="2.5" result="shadowBlurOuter1" in="shadowOffsetOuter1"/><feColorMatrix values="0 0 0 0 0 0 0 0 0 1 0 0 0 0 0.918817935 0 0 0 1 0" result="shadowMatrixOuter1" in="shadowBlurOuter1"/><feMerge><feMergeNode in="shadowMatrixOuter1"/><feMergeNode in="SourceGraphic"/></feMerge></filter><filter height="415.6%" width="510%" id="c" filterUnits="objectBoundingBox" y="-155.9%" x="-198.3%"><feOffset result="shadowOffsetOuter1" in="SourceAlpha"/><feGaussianBlur stdDeviation="2.5" result="shadowBlurOuter1" in="shadowOffsetOuter1"/><feColorMatrix values="0 0 0 0 0 0 0 0 0 1 0 0 0 0 0.918817935 0 0 0 1 0" result="shadowMatrixOuter1" in="shadowBlurOuter1"/><feMerge><feMergeNode in="shadowMatrixOuter1"/><feMergeNode in="SourceGraphic"/></feMerge></filter><filter height="302.3%" width="346.3%" id="bc" filterUnits="objectBoundingBox" y="-99.2%" x="-121.2%"><feOffset result="shadowOffsetOuter1" in="SourceAlpha"/><feGaussianBlur stdDeviation="2.5" result="shadowBlurOuter1" in="shadowOffsetOuter1"/><feColorMatrix values="0 0 0 0 0 0 0 0 0 1 0 0 0 0 0.918817935 0 0 0 1 0" result="shadowMatrixOuter1" in="shadowBlurOuter1"/><feMerge><feMergeNode in="shadowMatrixOuter1"/><feMergeNode in="SourceGraphic"/></feMerge></filter><filter height="302.3%" width="346.3%" id="aY" filterUnits="objectBoundingBox" y="-99.2%" x="-121.2%"><feOffset result="shadowOffsetOuter1" in="SourceAlpha"/><feGaussianBlur stdDeviation="2.5" result="shadowBlurOuter1" in="shadowOffsetOuter1"/><feColorMatrix values="0 0 0 0 0 0 0 0 0 1 0 0 0 0 0.918817935 0 0 0 1 0" result="shadowMatrixOuter1" in="shadowBlurOuter1"/><feMerge><feMergeNode in="shadowMatrixOuter1"/><feMergeNode in="SourceGraphic"/></feMerge></filter><filter height="302.3%" width="346.3%" id="aU" filterUnits="objectBoundingBox" y="-99.2%" x="-121.2%"><feOffset result="shadowOffsetOuter1" in="SourceAlpha"/><feGaussianBlur stdDeviation="2.5" result="shadowBlurOuter1" in="shadowOffsetOuter1"/><feColorMatrix values="0 0 0 0 0 0 0 0 0 1 0 0 0 0 0.918817935 0 0 0 1 0" result="shadowMatrixOuter1" in="shadowBlurOuter1"/><feMerge><feMergeNode in="shadowMatrixOuter1"/><feMergeNode in="SourceGraphic"/></feMerge></filter><filter height="302.3%" width="346.3%" id="aQ" filterUnits="objectBoundingBox" y="-99.2%" x="-121.2%"><feOffset result="shadowOffsetOuter1" in="SourceAlpha"/><feGaussianBlur stdDeviation="2.5" result="shadowBlurOuter1" in="shadowOffsetOuter1"/><feColorMatrix values="0 0 0 0 0 0 0 0 0 1 0 0 0 0 0.918817935 0 0 0 1 0" result="shadowMatrixOuter1" in="shadowBlurOuter1"/><feMerge><feMergeNode in="shadowMatrixOuter1"/><feMergeNode in="SourceGraphic"/></feMerge></filter><filter height="302.3%" width="346.3%" id="aM" filterUnits="objectBoundingBox" y="-99.2%" x="-121.2%"><feOffset result="shadowOffsetOuter1" in="SourceAlpha"/><feGaussianBlur stdDeviation="2.5" result="shadowBlurOuter1" in="shadowOffsetOuter1"/><feColorMatrix values="0 0 0 0 0 0 0 0 0 1 0 0 0 0 0.918817935 0 0 0 1 0" result="shadowMatrixOuter1" in="shadowBlurOuter1"/><feMerge><feMergeNode in="shadowMatrixOuter1"/><feMergeNode in="SourceGraphic"/></feMerge></filter><filter height="302.3%" width="346.3%" id="aI" filterUnits="objectBoundingBox" y="-99.2%" x="-121.2%"><feOffset result="shadowOffsetOuter1" in="SourceAlpha"/><feGaussianBlur stdDeviation="2.5" result="shadowBlurOuter1" in="shadowOffsetOuter1"/><feColorMatrix values="0 0 0 0 0 0 0 0 0 1 0 0 0 0 0.918817935 0 0 0 1 0" result="shadowMatrixOuter1" in="shadowBlurOuter1"/><feMerge><feMergeNode in="shadowMatrixOuter1"/><feMergeNode in="SourceGraphic"/></feMerge></filter><filter height="435.7%" width="510%" id="ah" filterUnits="objectBoundingBox" y="-167.8%" x="-198.3%"><feOffset result="shadowOffsetOuter1" in="SourceAlpha"/><feGaussianBlur stdDeviation="2.5" result="shadowBlurOuter1" in="shadowOffsetOuter1"/><feColorMatrix values="0 0 0 0 0 0 0 0 0 1 0 0 0 0 0.918817935 0 0 0 1 0" result="shadowMatrixOuter1" in="shadowBlurOuter1"/><feMerge><feMergeNode in="shadowMatrixOuter1"/><feMergeNode in="SourceGraphic"/></feMerge></filter><filter height="415.6%" width="510%" id="af" filterUnits="objectBoundingBox" y="-155.9%" x="-198.3%"><feOffset result="shadowOffsetOuter1" in="SourceAlpha"/><feGaussianBlur stdDeviation="2.5" result="shadowBlurOuter1" in="shadowOffsetOuter1"/><feColorMatrix values="0 0 0 0 0 0 0 0 0 1 0 0 0 0 0.918817935 0 0 0 1 0" result="shadowMatrixOuter1" in="shadowBlurOuter1"/><feMerge><feMergeNode in="shadowMatrixOuter1"/><feMergeNode in="SourceGraphic"/></feMerge></filter><filter height="415.6%" width="510%" id="ae" filterUnits="objectBoundingBox" y="-155.9%" x="-198.3%"><feOffset result="shadowOffsetOuter1" in="SourceAlpha"/><feGaussianBlur stdDeviation="2.5" result="shadowBlurOuter1" in="shadowOffsetOuter1"/><feColorMatrix values="0 0 0 0 0 0 0 0 0 1 0 0 0 0 0.918817935 0 0 0 1 0" result="shadowMatrixOuter1" in="shadowBlurOuter1"/><feMerge><feMergeNode in="shadowMatrixOuter1"/><feMergeNode in="SourceGraphic"/></feMerge></filter><filter height="435.7%" width="510%" id="aa" filterUnits="objectBoundingBox" y="-167.8%" x="-198.3%"><feOffset result="shadowOffsetOuter1" in="SourceAlpha"/><feGaussianBlur stdDeviation="2.5" result="shadowBlurOuter1" in="shadowOffsetOuter1"/><feColorMatrix values="0 0 0 0 0 0 0 0 0 1 0 0 0 0 0.918817935 0 0 0 1 0" result="shadowMatrixOuter1" in="shadowBlurOuter1"/><feMerge><feMergeNode in="shadowMatrixOuter1"/><feMergeNode in="SourceGraphic"/></feMerge></filter><filter height="435.7%" width="510%" id="Y" filterUnits="objectBoundingBox" y="-167.8%" x="-198.3%"><feOffset result="shadowOffsetOuter1" in="SourceAlpha"/><feGaussianBlur stdDeviation="2.5" result="shadowBlurOuter1" in="shadowOffsetOuter1"/><feColorMatrix values="0 0 0 0 0 0 0 0 0 1 0 0 0 0 0.918817935 0 0 0 1 0" result="shadowMatrixOuter1" in="shadowBlurOuter1"/><feMerge><feMergeNode in="shadowMatrixOuter1"/><feMergeNode in="SourceGraphic"/></feMerge></filter><filter height="415.6%" width="510%" id="T" filterUnits="objectBoundingBox" y="-155.9%" x="-198.3%"><feOffset result="shadowOffsetOuter1" in="SourceAlpha"/><feGaussianBlur stdDeviation="2.5" result="shadowBlurOuter1" in="shadowOffsetOuter1"/><feColorMatrix values="0 0 0 0 0 0 0 0 0 1 0 0 0 0 0.918817935 0 0 0 1 0" result="shadowMatrixOuter1" in="shadowBlurOuter1"/><feMerge><feMergeNode in="shadowMatrixOuter1"/><feMergeNode in="SourceGraphic"/></feMerge></filter><filter height="415.6%" width="510%" id="P" filterUnits="objectBoundingBox" y="-155.9%" x="-198.3%"><feOffset result="shadowOffsetOuter1" in="SourceAlpha"/><feGaussianBlur stdDeviation="2.5" result="shadowBlurOuter1" in="shadowOffsetOuter1"/><feColorMatrix values="0 0 0 0 0 0 0 0 0 1 0 0 0 0 0.918817935 0 0 0 1 0" result="shadowMatrixOuter1" in="shadowBlurOuter1"/><feMerge><feMergeNode in="shadowMatrixOuter1"/><feMergeNode in="SourceGraphic"/></feMerge></filter><linearGradient id="a" gradientUnits="userSpaceOnUse" x1="393.147" y1="670" x2="393.591" y2="669.907" gradientTransform="matrix(209.323 0 0 -71.7352 -81259.547 48191.79)"><stop offset="0" stop-color="#02e8fd" stop-opacity=".427"/><stop offset="1" stop-color="#01ccfb" stop-opacity="0"/></linearGradient><linearGradient id="b" gradientUnits="userSpaceOnUse" x1="393.474" y1="669.37" x2="392.06" y2="669.368" gradientTransform="matrix(209.323 0 0 -71.7352 -81259.547 48191.79)"><stop offset="0" stop-color="#01e4fc" stop-opacity="0"/><stop offset=".482" stop-color="#02ebfc"/><stop offset="1" stop-color="#01e2fb" stop-opacity="0"/></linearGradient><path fill="url(#a)" stroke="url(#b)" stroke-width="1.444" d="M1154.903 168.05L1001.01 79.128a55.942 55.942 0 00-55.817-.093l-123.535 70.848 10.216 17.812 123.54-70.847a35.405 35.405 0 0135.323.058l153.893 88.921 10.273-17.777z"/><g transform="translate(1018.728 146.083)" filter="url(#c)"><path fill="#00F6FF" d="M-42.057-58.754l-3.994-2.309 3.994-2.303 3.993 2.305-3.993 2.307z"/><path fill="#03E2F9" d="M-38.064-61.062l-3.993-2.305v-4.612l3.993 2.305v4.612z"/><path fill="#69E0FF" d="M-42.057-63.366l-3.994 2.305v-4.612l3.994-2.305v4.612z"/></g><linearGradient id="d" gradientUnits="userSpaceOnUse" x1="377.134" y1="667.005" x2="375.795" y2="667.523" gradientTransform="matrix(25.059 0 0 -17.035 -8522.838 11475.861)"><stop offset="0" stop-color="#00f6ff" stop-opacity="0"/><stop offset="1" stop-color="#02cde7"/></linearGradient><path fill="url(#d)" d="M932.497 98.16v4.612l-35.9 20.203v-4.611l-3.995-2.307 35.901-20.201 3.994 2.304z"/><g transform="translate(968.215 168.41)" filter="url(#e)"><path fill="#00F6FF" d="M-67.624-47.74l-3.994 2.306v-4.612l3.994-2.306v4.612z"/><path fill="#03E2F9" d="M-71.618-45.434l-3.995-2.306v-4.612l3.995 2.306v4.612z"/><path fill="#69E0FF" d="M-71.618-50.046l-3.995-2.306 3.995-2.307 3.994 2.307-3.994 2.306z"/></g><linearGradient id="f" gradientUnits="userSpaceOnUse" x1="379.151" y1="666.753" x2="377.813" y2="667.314" gradientTransform="matrix(24.775 0 0 -17.527 -8317.41 11815.99)"><stop offset="0" stop-color="#00f6ff" stop-opacity="0"/><stop offset="1" stop-color="#02cde7"/></linearGradient><path fill="url(#f)" d="M1080.724 136.987l-3.994 2.305-35.447-20.985 3.994-2.306v-4.612l35.447 20.986v4.612z"/><g transform="translate(1061.775 167.064)" filter="url(#g)"><path fill="#00F6FF" d="M-16.499-46.452l-3.994-2.306 3.994-2.306 3.994 2.306-3.994 2.306z"/><path fill="#03E2F9" d="M-20.493-48.758v-4.61l3.994-2.307v4.612l-3.994 2.305z"/><path fill="#69E0FF" d="M-16.604-50.941v-4.734l4.1 2.367v4.733l-4.1-2.366z"/></g><g transform="translate(1095.016 186.144)" filter="url(#h)"><path fill="#00F6FF" d="M3.107-35.038l-3.996-2.309 3.996-2.303L7.1-37.345l-3.993 2.307z"/><path fill="#03E2F9" d="M7.1-37.345L3.107-39.65v-4.612L7.1-41.956v4.611z"/><path fill="#69E0FF" d="M3.107-39.649l-3.996 2.305v-4.612l3.996-2.305v4.612z"/></g><path fill="#01E5FB" d="M829.051 185.865l-1.146-1.99 136.726-78.671a19.542 19.542 0 0119.532.024l150.779 87.233-1.153 1.99-150.78-87.235a17.243 17.243 0 00-17.232-.021l-136.726 78.67z"/><path fill="#01E5FB" d="M827.782 202.354l-1.146-1.99 142.475-81.979a8.045 8.045 0 018.041.009l156.521 90.555-1.152 1.99-156.52-90.555a5.75 5.75 0 00-5.744-.006l-142.475 81.976z"/><path opacity=".3" fill="#0D054C" enable-background="new" d="M778.778 88.895L976.79 206.529c1.993 1.167 2.823 4.065 1.856 6.472-.394.977-1.046 1.767-1.856 2.241L780.482 330.303c-5.162 3.023-11.187 3.023-16.35 0L563.566 214.112c-1.993-1.167-2.825-4.064-1.856-6.472.392-.977 1.046-1.767 1.856-2.241L762.429 88.895c5.162-3.026 11.187-3.026 16.349 0z"/><path fill="#01E1FA" d="M763.934 108.308L596.24 206.551c-.569.334-1.039.9-1.321 1.61-.717 1.776-.103 3.913 1.32 4.747l169.131 97.979c4.175 2.445 9.033 2.445 13.206 0l165.539-97.025c.568-.334 1.037-.899 1.324-1.608.714-1.776.1-3.915-1.326-4.75l-166.976-99.197c-4.171-2.445-9.031-2.443-13.205 0l.002.001zm13.786-.992l166.979 99.199c1.937 1.136 2.726 3.884 1.808 6.167-.379.94-1.012 1.704-1.808 2.172L779.16 311.879c-4.532 2.656-9.837 2.656-14.365 0L595.657 213.9c-1.937-1.135-2.726-3.885-1.808-6.167.376-.939 1.012-1.705 1.808-2.171l167.693-98.244c4.532-2.659 9.837-2.659 14.367 0l.003-.002z"/><linearGradient id="i" gradientUnits="userSpaceOnUse" x1="392.861" y1="669.857" x2="391.483" y2="670.309" gradientTransform="matrix(184.8823 0 0 -108.85 -71742.313 73146.656)"><stop offset="0" stop-color="#00c2fa"/><stop offset="1" stop-color="#0b78ff"/></linearGradient><path fill="url(#i)" d="M776.536 124.551l139.517 82.884c1.403.823 1.99 2.866 1.308 4.559a3.195 3.195 0 01-1.308 1.58l-138.314 81.069c-3.638 2.133-7.884 2.133-11.521 0l-141.316-81.865c-1.404-.823-1.99-2.865-1.308-4.559a3.184 3.184 0 011.308-1.58l140.114-82.088c3.638-2.133 7.884-2.133 11.52 0z"/><linearGradient id="j" gradientUnits="userSpaceOnUse" x1="391.131" y1="669.799" x2="392.41" y2="669.767" gradientTransform="matrix(158.0602 0 0 -85.0655 -61146.871 57190.926)"><stop offset="0" stop-color="#1a22be"/><stop offset=".661" stop-color="#0b0d7e"/><stop offset="1" stop-color="#1a22be"/></linearGradient><path fill="url(#j)" d="M796.705 148.279l100.523 12.683v47.369a3.5 3.5 0 01-.162 2.047c-.239.596-.638 1.076-1.13 1.364L776.47 281.765c-3.143 1.843-6.81 1.843-9.95 0l-119.467-70.021c-.756-.442-1.236-1.29-1.352-2.221h-.024v-48.56h100.608l20.235-11.861c3.141-1.841 6.809-1.841 9.95 0l20.235-.823z"/><path fill="#0B0F89" d="M669.078 190.921a2.998 2.998 0 011.68 2.688v16.939a.998.998 0 01-1.437.898l-3.118-1.523a2.994 2.994 0 01-1.679-2.69v-16.939a.997.997 0 011.436-.896l3.118 1.523zm-9.642-5.311a2.993 2.993 0 011.681 2.69v16.939a1 1 0 01-1.437.897l-3.118-1.524a2.992 2.992 0 01-1.68-2.69v-16.939a.998.998 0 011.436-.897l3.118 1.524z"/><linearGradient id="k" gradientUnits="userSpaceOnUse" x1="389.89" y1="669.554" x2="388.132" y2="669.868" gradientTransform="matrix(82.1547 0 0 -85.0655 -31126.654 57190.488)"><stop offset="0" stop-color="#0f0856"/><stop offset="1" stop-color="#0b0f89"/></linearGradient><path fill="url(#k)" d="M796.116 160.233H896.64v47.369a3.504 3.504 0 01-.163 2.048c-.239.595-.638 1.076-1.131 1.364l-119.465 70.021c-3.144 1.843-6.812 1.843-9.95 0V148.373c3.139-1.841 6.807-1.841 9.95 0l20.235 11.86z"/><path fill="#0B0F89" d="M826.952 215.691l48.967-28.804c.453-.267.999-.042 1.22.503.062.153.095.316.095.482v4.481c0 1.258-.598 2.408-1.538 2.962l-48.967 28.802c-.452.266-.998.042-1.219-.504a1.222 1.222 0 01-.092-.481v-4.483c0-1.257.594-2.405 1.534-2.958z"/><linearGradient id="l" gradientUnits="userSpaceOnUse" x1="380.76" y1="666.409" x2="379.38" y2="667.091" gradientTransform="matrix(32.547 0 0 -23.5268 -11517.543 15893.244)"><stop offset="0" stop-color="#00c2fa"/><stop offset="1" stop-color="#0b78ff"/></linearGradient><path fill="url(#l)" d="M829.379 217.29l48.966-28.804c.454-.266 1-.042 1.222.505.061.153.092.316.092.48v4.484c0 1.257-.596 2.405-1.534 2.958l-48.969 28.804c-.452.268-.998.042-1.219-.503a1.265 1.265 0 01-.094-.482v-4.481c0-1.257.596-2.407 1.535-2.961h.001z"/><linearGradient id="m" gradientUnits="userSpaceOnUse" x1="380.758" y1="665.615" x2="379.378" y2="666.125" gradientTransform="matrix(32.547 0 0 -20.34 -11517.543 13762.067)"><stop offset="0" stop-color="#00c2fa"/><stop offset="1" stop-color="#0b78ff"/></linearGradient><path fill="url(#m)" d="M829.379 231.241l48.966-28.805c.454-.266 1-.04 1.222.505.061.153.092.317.092.482v-.592c0 1.257-.596 2.407-1.534 2.96l-48.969 28.804c-.452.266-.998.04-1.219-.504a1.26 1.26 0 01-.094-.481v.591c0-1.259.595-2.408 1.536-2.96z"/><path fill="#0B0F89" d="M776.47 88.687l119.467 70.021c1.212.71 1.719 2.474 1.13 3.939-.239.596-.638 1.076-1.13 1.364L776.47 234.033c-3.143 1.841-6.81 1.841-9.95 0l-119.467-70.022c-1.214-.71-1.72-2.474-1.13-3.939.237-.595.636-1.076 1.13-1.364L766.52 88.687c3.14-1.843 6.807-1.843 9.95 0z"/><linearGradient id="n" gradientUnits="userSpaceOnUse" x1="392.554" y1="670.234" x2="390.324" y2="669.871" gradientTransform="matrix(153.5756 0 0 -90.4187 -59375.578 60747.688)"><stop offset="0" stop-color="#188eff"/><stop offset="1" stop-color="#1b37d6"/></linearGradient><path fill="url(#n)" d="M776.375 88.62l115.891 68.848c1.166.685 1.652 2.38 1.087 3.79a2.651 2.651 0 01-1.087 1.31L777.373 229.91c-3.021 1.77-6.547 1.77-9.568 0l-117.389-68.005c-1.166-.684-1.653-2.38-1.087-3.789.229-.571.612-1.035 1.087-1.312l116.39-68.186c3.019-1.772 6.548-1.772 9.567 0l.002.002z"/><path fill="none" stroke="#00BDFA" stroke-width=".722" d="M774.787 109.496c-2.085-1.221-4.505-1.221-6.587 0l-86.075 50.449a1.424 1.424 0 00-.57.701c-.322.802-.045 1.768.572 2.128l86.073 50.45c2.083 1.22 4.504 1.22 6.587 0l86.075-50.45c.261-.164.463-.411.57-.701.322-.802.045-1.767-.572-2.128l-86.073-50.449z"/><linearGradient id="o" gradientUnits="userSpaceOnUse" x1="389.949" y1="669.42" x2="388.563" y2="669.351" gradientTransform="matrix(88.1718 0 0 -51.6361 -33541.035 34726.184)"><stop offset="0" stop-color="#1a22be"/><stop offset="1" stop-color="#0b0f89"/></linearGradient><path fill="url(#o)" d="M774.268 121.59l66.643 38.864c.678.395.961 1.375.633 2.186a1.538 1.538 0 01-.631.758l-66.641 38.865a5.41 5.41 0 01-5.552 0l-66.643-38.865c-.678-.395-.96-1.374-.632-2.186a1.54 1.54 0 01.63-.758l66.643-38.864a5.406 5.406 0 015.55 0z"/><linearGradient id="p" gradientUnits="userSpaceOnUse" x1="389.807" y1="669.197" x2="388.428" y2="669.645" gradientTransform="matrix(88.1718 0 0 -51.6361 -33541.035 34723.809)"><stop offset="0" stop-color="#00c2fa"/><stop offset="1" stop-color="#0b78ff"/></linearGradient><path fill="url(#p)" d="M774.268 117.785l66.643 38.865c.678.395.961 1.374.633 2.186a1.547 1.547 0 01-.631.758l-66.641 38.864a5.41 5.41 0 01-5.552 0l-66.643-38.864c-.678-.395-.96-1.375-.632-2.186.12-.315.343-.582.63-.758l66.643-38.865a5.406 5.406 0 015.55 0z"/><linearGradient id="q" gradientUnits="userSpaceOnUse" x1="370.079" y1="662.789" x2="367.605" y2="662.574" gradientTransform="matrix(18.8945 0 0 -10.977 -6169.572 7458.439)"><stop offset="0" stop-color="#1a22be"/><stop offset="1" stop-color="#0b0f89"/></linearGradient><path fill="url(#q)" d="M794.677 176.588l2.542 1.287c.253.148.359.512.236.816a.572.572 0 01-.236.284l-24.891 14.516a2.016 2.016 0 01-2.072 0l-2.542-1.484c-.256-.148-.359-.315-.236-.621a.56.56 0 01.236-.281l24.891-14.517a2.02 2.02 0 012.072 0z"/><linearGradient id="r" gradientUnits="userSpaceOnUse" x1="391.131" y1="670.133" x2="392.41" y2="670.101" gradientTransform="matrix(158.0602 0 0 -85.0655 -61146.871 57142.926)"><stop offset="0" stop-color="#1a22be"/><stop offset=".661" stop-color="#0b0d7e"/><stop offset="1" stop-color="#1a22be"/></linearGradient><path fill="url(#r)" d="M796.705 71.872l100.523 12.684v47.369a3.5 3.5 0 01-.162 2.047c-.239.596-.638 1.077-1.13 1.364L776.47 205.357c-3.143 1.842-6.81 1.842-9.95 0l-119.467-70.022c-.756-.442-1.236-1.29-1.352-2.221h-.024v-48.56h100.608l20.235-11.86c3.141-1.842 6.809-1.842 9.95 0l20.235-.822z"/><path fill="#0B0F89" d="M669.078 114.514a2.996 2.996 0 011.68 2.687v16.939a.998.998 0 01-1.437.898l-3.118-1.524a2.994 2.994 0 01-1.679-2.69v-16.939a.998.998 0 011.436-.896l3.118 1.525zm-9.642-5.311a2.994 2.994 0 011.681 2.69v16.939a.998.998 0 01-1.437.897l-3.118-1.523a2.992 2.992 0 01-1.68-2.69v-16.939a.998.998 0 011.436-.896l3.118 1.522z"/><linearGradient id="s" gradientUnits="userSpaceOnUse" x1="389.89" y1="669.888" x2="388.132" y2="670.202" gradientTransform="matrix(82.1547 0 0 -85.0655 -31126.654 57142.488)"><stop offset="0" stop-color="#0f0856"/><stop offset="1" stop-color="#0b0f89"/></linearGradient><path fill="url(#s)" d="M796.116 83.826H896.64v47.369a3.5 3.5 0 01-.163 2.047c-.239.596-.638 1.077-1.131 1.364l-119.465 70.021c-3.144 1.842-6.812 1.842-9.95 0V71.966c3.139-1.842 6.807-1.842 9.95 0l20.235 11.86z"/><path fill="#0B0F89" d="M826.952 139.282l48.967-28.803c.453-.267.999-.041 1.22.503.062.153.095.317.095.483v4.481c0 1.257-.598 2.407-1.538 2.961l-48.967 28.803c-.452.266-.998.042-1.219-.505a1.22 1.22 0 01-.092-.48v-4.483c0-1.258.594-2.406 1.534-2.958v-.002z"/><linearGradient id="t" gradientUnits="userSpaceOnUse" x1="380.759" y1="667.617" x2="379.38" y2="668.299" gradientTransform="matrix(32.547 0 0 -23.5268 -11517.543 15845.244)"><stop offset="0" stop-color="#00c2fa"/><stop offset="1" stop-color="#0b78ff"/></linearGradient><path fill="url(#t)" d="M829.379 140.882l48.966-28.804c.454-.266 1-.042 1.222.504.061.153.092.316.092.481v4.483c0 1.257-.596 2.406-1.534 2.958l-48.969 28.805c-.452.268-.998.042-1.219-.503a1.27 1.27 0 01-.094-.482v-4.481c0-1.258.596-2.408 1.535-2.962l.001.001z"/><linearGradient id="u" gradientUnits="userSpaceOnUse" x1="380.758" y1="667.011" x2="379.378" y2="667.521" gradientTransform="matrix(32.547 0 0 -20.34 -11517.543 13714.067)"><stop offset="0" stop-color="#00c2fa"/><stop offset="1" stop-color="#0b78ff"/></linearGradient><path fill="url(#u)" d="M829.379 154.833l48.966-28.804c.454-.266 1-.04 1.222.504.061.153.092.317.092.482v-.592c0 1.257-.596 2.407-1.534 2.959l-48.969 28.804c-.452.266-.998.041-1.219-.504a1.26 1.26 0 01-.094-.48v.59c0-1.257.595-2.406 1.536-2.959z"/><path fill="#0B0F89" d="M776.47 12.279L895.937 82.3c1.212.71 1.719 2.474 1.13 3.938-.239.596-.638 1.077-1.13 1.364L776.47 157.625c-3.143 1.842-6.81 1.842-9.95 0L647.053 87.604c-1.214-.709-1.72-2.473-1.13-3.938.237-.595.636-1.076 1.13-1.364L766.52 12.279c3.14-1.841 6.807-1.841 9.95 0z"/><linearGradient id="v" gradientUnits="userSpaceOnUse" x1="392.551" y1="670.549" x2="390.325" y2="670.186" gradientTransform="matrix(153.5756 0 0 -90.4187 -59375.578 60699.688)"><stop offset="0" stop-color="#188eff"/><stop offset="1" stop-color="#1b37d6"/></linearGradient><path fill="url(#v)" d="M776.375 12.212L892.266 81.06c1.166.685 1.652 2.38 1.087 3.789a2.653 2.653 0 01-1.087 1.311l-114.893 67.342c-3.021 1.77-6.547 1.77-9.568 0L650.416 85.498c-1.166-.685-1.653-2.38-1.087-3.79.229-.572.612-1.035 1.087-1.312l116.39-68.187c3.019-1.771 6.548-1.771 9.567 0l.002.003z"/><path fill="#00BDFA" d="M774.496 33.583c-1.904-1.114-4.101-1.114-6.005 0l-86.073 50.451a.849.849 0 00-.33.419c-.219.548-.032 1.207.33 1.417l86.073 50.451c1.904 1.114 4.101 1.114 6.005 0l86.073-50.451c.152-.1.27-.247.33-.419.221-.547.032-1.207-.33-1.417l-86.073-50.451zm.582-.989l86.073 50.447c.874.513 1.239 1.784.813 2.839-.172.43-.459.775-.813.984l-86.073 50.448c-2.262 1.328-4.903 1.328-7.167 0l-86.075-50.448c-.875-.513-1.239-1.783-.814-2.839.173-.43.46-.775.814-.984l86.075-50.447c2.262-1.328 4.902-1.328 7.167 0z"/><linearGradient id="w" gradientUnits="userSpaceOnUse" x1="389.949" y1="669.972" x2="388.561" y2="669.902" gradientTransform="matrix(88.1718 0 0 -51.6361 -33541.035 34678.184)"><stop offset="0" stop-color="#1a22be"/><stop offset="1" stop-color="#0b0f89"/></linearGradient><path fill="url(#w)" d="M774.268 45.183l66.643 38.865c.678.395.961 1.374.633 2.186a1.538 1.538 0 01-.631.758l-66.641 38.865a5.415 5.415 0 01-5.552 0l-66.643-38.865c-.678-.395-.96-1.375-.632-2.186.12-.315.343-.582.63-.758l66.643-38.865a5.406 5.406 0 015.55 0z"/><linearGradient id="x" gradientUnits="userSpaceOnUse" x1="389.807" y1="669.748" x2="388.427" y2="670.196" gradientTransform="matrix(88.1718 0 0 -51.6361 -33541.035 34675.809)"><stop offset="0" stop-color="#00c2fa"/><stop offset="1" stop-color="#0b78ff"/></linearGradient><path fill="url(#x)" d="M774.268 41.378l66.643 38.864c.678.395.961 1.375.633 2.186a1.538 1.538 0 01-.631.758l-66.641 38.865a5.41 5.41 0 01-5.552 0l-66.643-38.865c-.678-.395-.96-1.374-.632-2.186a1.54 1.54 0 01.63-.758l66.643-38.864a5.406 5.406 0 015.55 0z"/><linearGradient id="y" gradientUnits="userSpaceOnUse" x1="370.078" y1="665.378" x2="367.605" y2="665.163" gradientTransform="matrix(18.8945 0 0 -10.977 -6169.572 7410.447)"><stop offset="0" stop-color="#1a22be"/><stop offset="1" stop-color="#0b0f89"/></linearGradient><path fill="url(#y)" d="M794.677 100.181l2.542 1.287c.253.148.359.513.236.817a.57.57 0 01-.236.283l-24.891 14.517a2.02 2.02 0 01-2.072 0l-2.542-1.484c-.256-.148-.359-.315-.236-.621a.562.562 0 01.236-.282l24.891-14.516a2.014 2.014 0 012.072-.001z"/><linearGradient id="z" gradientUnits="userSpaceOnUse" x1="391.131" y1="670.465" x2="392.41" y2="670.433" gradientTransform="matrix(158.0602 0 0 -85.0655 -61146.871 57095.113)"><stop offset="0" stop-color="#1a22be"/><stop offset=".661" stop-color="#0b0d7e"/><stop offset="1" stop-color="#1a22be"/></linearGradient><path fill="url(#z)" d="M796.705-4.227L897.229 8.457v47.37a3.497 3.497 0 01-.162 2.046c-.239.596-.638 1.076-1.13 1.364L776.47 129.259c-3.143 1.843-6.81 1.843-9.95 0L647.053 59.237c-.756-.44-1.236-1.29-1.352-2.221h-.024V8.457h100.608L766.52-3.404c3.141-1.841 6.809-1.841 9.95 0l20.235-.823z"/><path fill="#0B0F89" d="M669.078 38.415a2.994 2.994 0 011.68 2.689v16.939a.998.998 0 01-1.438.896l-3.118-1.523a2.993 2.993 0 01-1.679-2.689V37.788a.998.998 0 011.436-.897l3.119 1.524zm-9.642-5.309a2.992 2.992 0 011.681 2.687v16.941a1 1 0 01-1.437.897l-3.118-1.523a2.992 2.992 0 01-1.68-2.689v-16.94a.997.997 0 011.436-.896l3.118 1.523z"/><linearGradient id="A" gradientUnits="userSpaceOnUse" x1="389.89" y1="670.22" x2="388.132" y2="670.534" gradientTransform="matrix(82.1547 0 0 -85.0655 -31126.654 57094.668)"><stop offset="0" stop-color="#0f0856"/><stop offset="1" stop-color="#0b0f89"/></linearGradient><path fill="url(#A)" d="M796.116 7.728H896.64v47.369a3.498 3.498 0 01-.163 2.046c-.239.595-.638 1.076-1.131 1.364l-119.465 70.021c-3.144 1.842-6.812 1.842-9.95 0V-4.135c3.139-1.841 6.807-1.841 9.95 0l20.234 11.861v.002z"/><path fill="#0B0F89" d="M826.952 63.184l48.967-28.803c.453-.267.999-.042 1.22.505.062.152.095.315.095.48v4.483c0 1.258-.598 2.406-1.538 2.958l-48.967 28.804c-.452.267-.998.041-1.219-.503a1.228 1.228 0 01-.092-.483v-4.481c0-1.257.594-2.406 1.534-2.96z"/><linearGradient id="B" gradientUnits="userSpaceOnUse" x1="380.76" y1="668.82" x2="379.381" y2="669.502" gradientTransform="matrix(32.547 0 0 -23.528 -11517.537 15798.242)"><stop offset="0" stop-color="#00c2fa"/><stop offset="1" stop-color="#0b78ff"/></linearGradient><path fill="url(#B)" d="M829.379 64.784l48.966-28.804c.454-.266 1-.041 1.222.504.061.153.092.317.092.482v4.481c0 1.258-.596 2.406-1.534 2.958l-48.969 28.807c-.452.266-.998.041-1.219-.504a1.267 1.267 0 01-.094-.483v-4.481c0-1.258.596-2.407 1.535-2.959l.001-.001z"/><linearGradient id="C" gradientUnits="userSpaceOnUse" x1="380.759" y1="668.404" x2="379.378" y2="668.915" gradientTransform="matrix(32.547 0 0 -20.3406 -11517.543 13666.68)"><stop offset="0" stop-color="#00c2fa"/><stop offset="1" stop-color="#0b78ff"/></linearGradient><path fill="url(#C)" d="M829.379 78.736l48.966-28.806c.454-.266 1-.04 1.222.505.061.153.092.317.092.482v-.592c0 1.258-.596 2.407-1.534 2.961l-48.969 28.803c-.452.267-.998.041-1.219-.504a1.26 1.26 0 01-.094-.481v.591c0-1.258.595-2.406 1.536-2.959z"/><path fill="#0B0F89" d="M776.47-63.819L895.937 6.203c1.212.711 1.719 2.473 1.13 3.939-.239.594-.638 1.076-1.13 1.364L776.47 81.527c-3.143 1.841-6.81 1.841-9.95 0L647.053 11.506c-1.214-.711-1.72-2.475-1.13-3.939.237-.596.636-1.075 1.13-1.364L766.52-63.819c3.14-1.843 6.807-1.843 9.95 0z"/><linearGradient id="D" gradientUnits="userSpaceOnUse" x1="392.551" y1="670.861" x2="390.326" y2="670.499" gradientTransform="matrix(153.5756 0 0 -90.417 -59375.578 60650.707)"><stop offset="0" stop-color="#188eff"/><stop offset="1" stop-color="#1b37d6"/></linearGradient><path fill="url(#D)" d="M776.375-63.886L892.266 4.962c1.166.685 1.652 2.38 1.087 3.79a2.656 2.656 0 01-1.087 1.312l-114.893 67.34c-3.021 1.77-6.547 1.77-9.568 0L650.416 9.4c-1.166-.684-1.653-2.38-1.087-3.789.229-.571.612-1.033 1.087-1.312l116.39-68.186c3.019-1.771 6.548-1.771 9.567 0h.002z"/><path fill="#00BDFA" d="M774.496-42.514c-1.904-1.118-4.101-1.118-6.005 0L682.418 7.935a.84.84 0 00-.33.42c-.219.549-.032 1.207.33 1.417l86.073 50.45c1.904 1.115 4.101 1.115 6.005 0l86.073-50.45a.842.842 0 00.33-.419c.221-.548.032-1.207-.33-1.417l-86.073-50.451v.001zm.582-.991l86.073 50.45c.874.511 1.239 1.783.813 2.837-.172.43-.459.775-.813.983l-86.073 50.45c-2.262 1.326-4.903 1.326-7.167 0l-86.075-50.451c-.875-.511-1.239-1.782-.814-2.836.173-.43.46-.776.814-.982l86.075-50.451c2.262-1.325 4.901-1.325 7.167 0z"/><linearGradient id="E" gradientUnits="userSpaceOnUse" x1="390.062" y1="670.645" x2="387.835" y2="670.286" gradientTransform="matrix(88.1713 0 0 -51.6361 -33540.89 34628.715)"><stop offset="0" stop-color="#188eff"/><stop offset="1" stop-color="#1b37d6"/></linearGradient><path opacity=".3" fill="url(#E)" enable-background="new" d="M774.117-33.578L840.76 5.287c.676.395.958 1.373.63 2.186-.12.315-.343.582-.63.758l-66.643 38.863a5.41 5.41 0 01-5.552 0L701.925 8.23c-.677-.395-.961-1.374-.632-2.188a1.53 1.53 0 01.632-.756l66.639-38.866a5.41 5.41 0 015.552 0l.001.002z"/><g opacity=".5"><linearGradient id="F" gradientUnits="userSpaceOnUse" x1="392.184" y1="671.079" x2="392.184" y2="669.219" gradientTransform="matrix(183.1643 0 0 -131.746 -71063.68 88498.188)"><stop offset="0" stop-color="#6be9ff" stop-opacity="0"/><stop offset="1" stop-color="#01f3fa"/></linearGradient><path fill="url(#F)" d="M915.849 86.182c.448 82.534.448 124.364 0 125.494-.275.689-.732 1.246-1.296 1.581l-137.006 81.068c-3.601 2.133-7.808 2.133-11.41 0l-139.975-81.866c-1.39-.822-1.971-2.865-1.297-4.559.184-.46.184-41.031 0-121.718h290.984z"/><linearGradient id="G" gradientUnits="userSpaceOnUse" x1="388.885" y1="671.076" x2="388.885" y2="669.216" gradientTransform="matrix(88.9148 0 0 -130.742 -33882.316 87824.008)"><stop offset="0" stop-color="#6be9ff" stop-opacity="0"/><stop offset="1" stop-color="#01f3fa"/></linearGradient><path fill="url(#G)" d="M766.139 86.182v208.143l-139.977-81.866c-1.39-.822-1.971-2.865-1.297-4.559.184-.46.184-41.031 0-121.718h141.274z"/><linearGradient id="H" gradientUnits="userSpaceOnUse" x1="344.661" y1="671.043" x2="344.661" y2="669.052" gradientTransform="matrix(11.155 0 0 -158.54 -3197.35 106421.61)"><stop offset="0" stop-color="#6be9ff" stop-opacity="0"/><stop offset="1" stop-color="#01f3fa"/></linearGradient><path fill="url(#H)" d="M638.461-23.377l17.76 10.146v242.253l-17.76-10.147V-23.377z"/><linearGradient id="I" gradientUnits="userSpaceOnUse" x1="346.228" y1="670.788" x2="346.228" y2="668.988" gradientTransform="matrix(11.155 0 0 -158.54 -3167.835 106439.242)"><stop offset="0" stop-color="#6be9ff" stop-opacity="0"/><stop offset="1" stop-color="#01f3fa"/></linearGradient><path fill="url(#I)" d="M685.455 4.769l17.758 10.145v242.252l-17.758-10.146V4.769z"/><linearGradient id="J" gradientUnits="userSpaceOnUse" x1="347.793" y1="670.254" x2="347.793" y2="668.923" gradientTransform="matrix(11.155 0 0 -158.54 -3138.35 106456.742)"><stop offset="0" stop-color="#6be9ff" stop-opacity="0"/><stop offset="1" stop-color="#01f3fa"/></linearGradient><path fill="url(#J)" d="M732.389 32.671l17.76 10.146V285.07l-17.76-10.148V32.671z"/><linearGradient id="K" gradientUnits="userSpaceOnUse" x1="437.148" y1="671.039" x2="437.148" y2="669.047" gradientTransform="matrix(-11.155 0 0 -158.54 5769.444 106422.734)"><stop offset="0" stop-color="#6be9ff" stop-opacity="0"/><stop offset="1" stop-color="#01f3fa"/></linearGradient><path fill="url(#K)" d="M901.945-21.495l-17.76 10.146v242.253l17.76-10.147V-21.495z"/><linearGradient id="L" gradientUnits="userSpaceOnUse" x1="438.715" y1="670.783" x2="438.715" y2="668.983" gradientTransform="matrix(-11.155 0 0 -158.54 5739.93 106440.492)"><stop offset="0" stop-color="#6be9ff" stop-opacity="0"/><stop offset="1" stop-color="#01f3fa"/></linearGradient><path fill="url(#L)" d="M854.953 6.649l-17.76 10.146v242.253l17.76-10.148V6.649z"/><linearGradient id="M" gradientUnits="userSpaceOnUse" x1="440.281" y1="670.249" x2="440.281" y2="668.917" gradientTransform="matrix(-11.155 0 0 -158.54 5710.452 106457.992)"><stop offset="0" stop-color="#6be9ff" stop-opacity="0"/><stop offset="1" stop-color="#01f3fa"/></linearGradient><path fill="url(#M)" d="M808.018 34.553L790.26 44.699v242.252l17.758-10.147V34.553z"/></g><linearGradient id="N" gradientUnits="userSpaceOnUse" x1="392.809" y1="670.359" x2="392.962" y2="669.326" gradientTransform="matrix(159.3904 0 0 -141.026 -61365.148 94831.586)"><stop offset="0" stop-color="#02e8fd" stop-opacity="0"/><stop offset=".305" stop-color="#02e5fd" stop-opacity=".385"/><stop offset="1" stop-color="#01ccfb" stop-opacity="0"/></linearGradient><linearGradient id="O" gradientUnits="userSpaceOnUse" x1="392.864" y1="670.314" x2="392.769" y2="669.521" gradientTransform="matrix(159.3904 0 0 -141.026 -61365.148 94831.586)"><stop offset="0" stop-color="#01e4fc" stop-opacity="0"/><stop offset=".236" stop-color="#02ebfc"/><stop offset="1" stop-color="#01e2fb" stop-opacity="0"/></linearGradient><path fill="url(#N)" stroke="url(#O)" stroke-width="1.444" d="M1278.451 263.884l89.248 53.183a3.687 3.687 0 01-.055 6.366l-233.896 133.895 8.94 15.615 233.896-133.895a21.682 21.682 0 007.854-7.715c6.13-10.285 2.761-23.594-7.524-29.723l-89.25-53.184-9.213 15.458z"/><g transform="translate(1246.944 313.662)" filter="url(#P)"><linearGradient id="Q" gradientUnits="userSpaceOnUse" x1="-911.596" y1="304.258" x2="-913.822" y2="303.909" gradientTransform="matrix(5.018 0 0 -2.897 4672.065 919.173)"><stop offset="0" stop-color="#188eff"/><stop offset="1" stop-color="#1b37d6"/></linearGradient><path fill="url(#Q)" d="M93.05 40.455l-3.994-2.307 3.994-2.306 3.994 2.306-3.994 2.307z"/><linearGradient id="R" gradientUnits="userSpaceOnUse" x1="-972.559" y1="321.51" x2="-973.019" y2="322.815" gradientTransform="matrix(2.509 0 0 -4.345 2535.791 1434.425)"><stop offset="0" stop-color="#00c2fa"/><stop offset="1" stop-color="#0b78ff"/></linearGradient><path fill="url(#R)" d="M97.044 38.149l-3.994-2.306v-4.611l3.994 2.304v4.613z"/><linearGradient id="S" gradientUnits="userSpaceOnUse" x1="-971.388" y1="319.008" x2="-973.744" y2="322.728" gradientTransform="matrix(2.509 0 0 -4.345 2533.281 1434.425)"><stop offset="0" stop-color="#00c2fa"/><stop offset="1" stop-color="#0b78ff"/></linearGradient><path fill="url(#S)" d="M93.05 35.843l-3.994 2.306v-4.613l3.994-2.304v4.611z"/></g><g transform="translate(1201.527 339.952)" filter="url(#T)"><linearGradient id="U" gradientUnits="userSpaceOnUse" x1="-871.508" y1="272.597" x2="-873.737" y2="272.248" gradientTransform="matrix(5.018 0 0 -2.897 4444.162 843.01)"><stop offset="0" stop-color="#188eff"/><stop offset="1" stop-color="#1b37d6"/></linearGradient><path fill="url(#U)" d="M66.162 56.02l-3.994-2.307 3.994-2.306 3.994 2.306-3.994 2.307z"/><linearGradient id="V" gradientUnits="userSpaceOnUse" x1="-937.805" y1="291.634" x2="-938.265" y2="292.94" gradientTransform="matrix(2.509 0 0 -4.345 2421.84 1320.194)"><stop offset="0" stop-color="#00c2fa"/><stop offset="1" stop-color="#0b78ff"/></linearGradient><path fill="url(#V)" d="M70.157 53.713l-3.994-2.306v-4.613l3.994 2.308v4.611z"/><linearGradient id="W" gradientUnits="userSpaceOnUse" x1="-936.686" y1="289.136" x2="-939.041" y2="292.856" gradientTransform="matrix(2.509 0 0 -4.345 2419.331 1320.194)"><stop offset="0" stop-color="#00c2fa"/><stop offset="1" stop-color="#0b78ff"/></linearGradient><path fill="url(#W)" d="M66.162 51.407l-3.994 2.306v-4.611l3.994-2.308v4.613z"/></g><linearGradient id="X" gradientUnits="userSpaceOnUse" x1="381.738" y1="661.613" x2="383.17" y2="662.244" gradientTransform="matrix(24.775 0 0 -17.527 -8164.895 11969.834)"><stop offset="0" stop-color="#00f6ff" stop-opacity="0"/><stop offset="1" stop-color="#02cde7"/></linearGradient><path fill="url(#X)" d="M1284.11 381.905v-4.613l35.449-20.985v4.613l3.994 2.304-35.447 20.985-2.959-1.707-1.037-.597z"/><g transform="translate(1234.108 320.95)" filter="url(#Y)"><path fill="#00F6FF" d="M85.452 44.581l-3.994-2.308 3.994-2.304 3.994 2.304-3.994 2.308z"/><path fill="#03E2F9" d="M89.446 42.274l-3.994-2.304v-4.613l3.994 2.306v4.611z"/><path fill="#69E0FF" d="M85.452 39.97l-3.994 2.304v-4.611l3.994-2.306v4.613z"/></g><linearGradient id="Z" gradientUnits="userSpaceOnUse" x1="383.488" y1="663.134" x2="382.151" y2="663.695" gradientTransform="matrix(24.775 0 0 -17.527 -8135.894 11923.147)"><stop offset="0" stop-color="#00f6ff" stop-opacity="0"/><stop offset="1" stop-color="#02cde7"/></linearGradient><path fill="url(#Z)" d="M1369.709 307.571l-3.993 2.306-35.449-20.987 3.994-2.304v-4.613l35.448 20.987v4.611z"/><g transform="translate(1243.296 274.214)" filter="url(#aa)"><path fill="#00F6FF" d="M90.965 16.983l-3.994-2.308 3.994-2.304 3.995 2.304-3.995 2.308z"/><path fill="#03E2F9" d="M86.971 14.676v-4.609l3.994-2.308v4.613l-3.994 2.304z"/><path fill="#69E0FF" d="M90.965 12.372V7.759l3.995 2.308v4.609l-3.995-2.304z"/></g><path fill="#01E5FB" d="M1149.181 204.023l1.15-1.99 198.059 114.419a3.448 3.448 0 01-.008 5.976l-181.697 104.246-1.143-1.996 181.695-104.244a1.15 1.15 0 00.003-1.99l-198.059-114.418v-.003z"/><linearGradient id="ab" gradientUnits="userSpaceOnUse" x1="394.495" y1="669.743" x2="393.293" y2="669.634" gradientTransform="matrix(413.6331 0 0 -164.1688 -162112.516 110468.25)"><stop offset="0" stop-color="#02e8fd" stop-opacity="0"/><stop offset=".378" stop-color="#02e5fd" stop-opacity=".385"/><stop offset="1" stop-color="#01ccfb" stop-opacity="0"/><stop offset="1" stop-color="#01ccfb" stop-opacity="0"/></linearGradient><linearGradient id="ac" gradientUnits="userSpaceOnUse" x1="394.366" y1="669.586" x2="393.366" y2="669.485" gradientTransform="matrix(413.6331 0 0 -164.1688 -162112.516 110468.25)"><stop offset="0" stop-color="#01e4fc" stop-opacity="0"/><stop offset=".351" stop-color="#02ebfc"/><stop offset="1" stop-color="#01e2fb" stop-opacity="0"/></linearGradient><path fill="url(#ab)" stroke="url(#ac)" stroke-width="1.444" d="M419.413 655.387l27.417 7.579 397.826-236.741a29.059 29.059 0 0129.281-.256l190.179 108.708c6.202 3.545 10.804 1.514 12.888-4.232 1.926-5.311.728-11.634-2.696-13.593L884.13 408.144a49.6 49.6 0 00-49.975.437L419.411 655.387h.002z"/><linearGradient id="ad" gradientUnits="userSpaceOnUse" x1="393.754" y1="669.535" x2="392.828" y2="669.282" gradientTransform="matrix(314.882 0 0 -138.2866 -123116.195 93109.844)"><stop offset="0" stop-color="#11d1ff"/><stop offset="1" stop-color="#4fdcff" stop-opacity="0"/></linearGradient><path fill="url(#ad)" d="M482.613 656.014l-1.152-1.988 374.504-216.929a9.196 9.196 0 019.076-.081l117.72 65.415-1.116 2.009-117.72-65.415a6.903 6.903 0 00-6.808.06L482.613 656.014z"/><g transform="translate(875.312 390.014)" filter="url(#ae)"><path fill="#00F6FF" d="M-126.962 85.657l-3.994-2.309 3.994-2.305 3.994 2.308-3.994 2.306z"/><path fill="#03E2F9" d="M-122.968 83.351l-3.994-2.308v-4.611l3.994 2.306v4.613z"/><path fill="#69E0FF" d="M-126.962 81.044l-3.994 2.308v-4.613l3.994-2.306v4.611z"/></g><g transform="translate(982.48 370.36)" filter="url(#af)"><path fill="#00F6FF" d="M-63.517 74.022l-3.994-2.309 3.994-2.304 3.994 2.306-3.994 2.307z"/><path fill="#03E2F9" d="M-59.523 71.715l-3.994-2.306v-4.613l3.994 2.306v4.613z"/><path fill="#69E0FF" d="M-63.517 69.41l-3.994 2.306v-4.613l3.994-2.306v4.613z"/></g><linearGradient id="ag" gradientUnits="userSpaceOnUse" x1="374.01" y1="659.975" x2="375.442" y2="660.606" gradientTransform="matrix(24.775 0 0 -17.527 -8488.3 12018.365)"><stop offset="0" stop-color="#00f6ff" stop-opacity="0"/><stop offset="1" stop-color="#02cde7"/></linearGradient><path fill="url(#ag)" d="M769.243 459.171v-4.611l35.447-20.985v4.611l3.994 2.306-35.447 20.986-2.959-1.707-1.035-.6z"/><g transform="translate(910.701 369.484)" filter="url(#ah)"><path fill="#00F6FF" d="M-106.012 73.313l-3.994-2.306 3.994-2.306 3.993 2.306-3.993 2.306z"/><path fill="#03E2F9" d="M-102.018 71.007l-3.993-2.306V64.09l3.993 2.304v4.613z"/><path fill="#69E0FF" d="M-106.012 68.702l-3.994 2.306v-4.613l3.994-2.304v4.611z"/></g><g transform="translate(729.029 307.169)"><circle opacity=".15" fill="#03E1F9" enable-background="new" cx="-59.426" cy="95.026" r="12.193"/><circle fill="#03E1F9" cx="-59.426" cy="95.026" r="2.537"/><circle opacity=".3" fill="#03E1F9" enable-background="new" cx="-59.426" cy="95.026" r="7.101"/><linearGradient id="ai" gradientUnits="userSpaceOnUse" x1="-623.799" y1="359.439" x2="-623.799" y2="357.542" gradientTransform="matrix(1.594 0 0 -33.461 934.91 12070.772)"><stop offset="0" stop-color="#04f1fc" stop-opacity="0"/><stop offset="1" stop-color="#03e1f9"/></linearGradient><path fill="url(#ai)" d="M-60.695 41.12h2.537v53.271h-2.537V41.12z"/></g><g transform="translate(864.151 415.949)"><circle opacity=".15" fill="#03E1F9" enable-background="new" cx="-124.88" cy="146.135" r="12.194"/><circle fill="#03E1F9" cx="-124.88" cy="146.135" r="2.536"/><circle opacity=".3" fill="#03E1F9" enable-background="new" cx="-124.88" cy="146.135" r="7.1"/><linearGradient id="aj" gradientUnits="userSpaceOnUse" x1="-799.984" y1="249.131" x2="-799.984" y2="247.232" gradientTransform="matrix(1.594 0 0 -33.461 1150.295 8430.886)"><stop offset="0" stop-color="#04f1fc" stop-opacity="0"/><stop offset="1" stop-color="#03e1f9"/></linearGradient><path fill="url(#aj)" d="M-126.148 92.231h2.537v53.271h-2.537V92.231z"/></g><g transform="translate(1038.25 97.403)"><circle opacity=".15" fill="#03E1F9" enable-background="new" cx="-21.811" cy="-42.45" r="12.193"/><circle fill="#03E1F9" cx="-21.811" cy="-42.45" r="2.536"/><circle opacity=".3" fill="#03E1F9" enable-background="new" cx="-21.811" cy="-42.45" r="7.1"/><linearGradient id="ak" gradientUnits="userSpaceOnUse" x1="-909.421" y1="573.312" x2="-909.421" y2="571.416" gradientTransform="matrix(1.594 0 0 -33.461 1427.809 19089.768)"><stop offset="0" stop-color="#04f1fc" stop-opacity="0"/><stop offset="1" stop-color="#03e1f9"/></linearGradient><path fill="url(#ak)" d="M-23.079-96.354h2.538v53.271h-2.538v-53.271z"/></g><g transform="translate(777.54 97.976)"><circle opacity=".15" fill="#03E1F9" enable-background="new" cx="-176.155" cy="-42.111" r="12.193"/><circle fill="#03E1F9" cx="-176.155" cy="-42.11" r="2.536"/><circle opacity=".3" fill="#03E1F9" enable-background="new" cx="-176.155" cy="-42.111" r="7.101"/><linearGradient id="al" gradientUnits="userSpaceOnUse" x1="-745.54" y1="572.73" x2="-745.54" y2="570.834" gradientTransform="matrix(1.594 0 0 -33.461 1012.237 19070.584)"><stop offset="0" stop-color="#04f1fc" stop-opacity="0"/><stop offset="1" stop-color="#03e1f9"/></linearGradient><path fill="url(#al)" d="M-177.424-96.015h2.537v53.27h-2.537v-53.27z"/></g><g transform="translate(960.899 283.048)"><circle opacity=".15" fill="#03E1F9" enable-background="new" cx="-67.603" cy="67.455" r="12.193"/><circle fill="#03E1F9" cx="-67.603" cy="67.455" r="2.537"/><circle opacity=".3" fill="#03E1F9" enable-background="new" cx="-67.603" cy="67.456" r="7.1"/><linearGradient id="am" gradientUnits="userSpaceOnUse" x1="-860.799" y1="384.382" x2="-860.799" y2="382.486" gradientTransform="matrix(1.594 0 0 -33.461 1304.512 12877.88)"><stop offset="0" stop-color="#04f1fc" stop-opacity="0"/><stop offset="1" stop-color="#03e1f9"/></linearGradient><path fill="url(#am)" d="M-68.872 13.551h2.537v53.271h-2.537V13.551z"/></g><linearGradient id="an" gradientUnits="userSpaceOnUse" x1="389.711" y1="670.264" x2="391.847" y2="670.264" gradientTransform="matrix(75.5642 0 0 -107.8558 -28220.646 72442.531)"><stop offset="0" stop-color="#1a22be"/><stop offset=".637" stop-color="#0b0d7e"/><stop offset="1" stop-color="#1a22be"/></linearGradient><path fill="url(#an)" d="M1373.477 86.516v124.893c.09.414.063.866-.103 1.281a1.724 1.724 0 01-.708.854l-37.588 22.139a6.042 6.042 0 01-6.227 0l-74.764-43.819c-.472-.276-.773-.808-.845-1.39h-.016V64.838l120.251 21.678z"/><path fill="#0B0F89" d="M1266.597 180.046a1.873 1.873 0 011.051 1.683v10.602a.624.624 0 01-.898.561l-1.952-.953a1.874 1.874 0 01-1.052-1.683v-10.601a.625.625 0 01.9-.562l1.951.953zm-6.034-3.322a1.868 1.868 0 011.052 1.683v10.602a.624.624 0 01-.899.56l-1.952-.954a1.872 1.872 0 01-1.05-1.682V176.33a.623.623 0 01.898-.561l1.951.955z"/><linearGradient id="ao" gradientUnits="userSpaceOnUse" x1="384.236" y1="670.225" x2="384.029" y2="670.487" gradientTransform="matrix(28.0622 0 0 -95.8328 -9433.688 64380.96)"><stop offset="0" stop-color="#0f0856"/><stop offset="1" stop-color="#0b0f89"/></linearGradient><path fill="url(#ao)" d="M1373.334 86.282v124.893c.091.414.063.866-.102 1.28a1.725 1.725 0 01-.707.855l-37.589 22.141a6.042 6.042 0 01-6.227 0V83.747l44.625 2.535z"/><path fill="#0B0F89" d="M1297.902 41.286l74.766 43.82c.757.446 1.074 1.548.706 2.464a1.73 1.73 0 01-.706.854l-37.59 22.142a6.042 6.042 0 01-6.227 0l-74.764-43.82c-.761-.445-1.076-1.548-.708-2.464.136-.354.384-.654.708-.854l37.59-22.141a6.036 6.036 0 016.225-.001z"/><linearGradient id="ap" gradientUnits="userSpaceOnUse" x1="391.593" y1="669.958" x2="389.369" y2="669.593" gradientTransform="matrix(72.758 0 0 -42.967 -27112.213 28854.402)"><stop offset="0" stop-color="#188eff"/><stop offset="1" stop-color="#1b37d6"/></linearGradient><path fill="url(#ap)" d="M1297.847 41.244l72.523 43.084c.729.429 1.034 1.49.68 2.373a1.653 1.653 0 01-.68.82l-34.728 20.465a5.807 5.807 0 01-5.987 0l-73.463-42.558c-.728-.429-1.034-1.49-.679-2.373.145-.357.384-.647.679-.82l35.663-20.992a5.818 5.818 0 015.992.001z"/><path fill="#00BDFA" d="M1292.839 54.492l-16.693 9.894a.684.684 0 00-.268.334c-.163.407-.022.896.268 1.066l53.864 31.57c1.2.725 2.702.726 3.902.003l16.694-9.894a.673.673 0 00.268-.334c.163-.406.022-.896-.268-1.067l-53.865-31.57a3.777 3.777 0 00-3.901-.001l-.001-.001zm58.349 30.582c.804.471 1.119 1.571.752 2.485-.153.382-.416.7-.749.896l-16.694 9.893a4.923 4.923 0 01-5.067 0l-53.865-31.57c-.803-.473-1.119-1.572-.753-2.486.155-.382.417-.701.75-.895l16.694-9.894a4.924 4.924 0 015.068 0l53.864 31.57v.001z"/><linearGradient id="aq" gradientUnits="userSpaceOnUse" x1="385.934" y1="668.271" x2="384.547" y2="668.202" gradientTransform="matrix(31.8292 0 0 -18.6986 -10945.307 12571.288)"><stop offset="0" stop-color="#1a22be"/><stop offset="1" stop-color="#0b0f89"/></linearGradient><path fill="url(#aq)" d="M1296.527 61.878l41.704 24.322c.425.247.6.86.394 1.368a.95.95 0 01-.394.474l-4.53 2.643c-1.07.64-2.404.64-3.474 0L1288.52 66.36c-.424-.247-.6-.86-.395-1.368a.956.956 0 01.395-.474l4.53-2.643a3.39 3.39 0 013.475 0l.002.003z"/><linearGradient id="ar" gradientUnits="userSpaceOnUse" x1="385.791" y1="668.07" x2="384.412" y2="668.521" gradientTransform="matrix(31.8292 0 0 -18.6966 -10945.307 12568.463)"><stop offset="0" stop-color="#00c2fa"/><stop offset="1" stop-color="#0b78ff"/></linearGradient><path fill="url(#ar)" d="M1296.527 59.497l41.704 24.321c.425.247.6.86.394 1.369a.947.947 0 01-.394.473l-4.53 2.643c-1.07.64-2.404.64-3.474 0l-41.708-24.321c-.424-.247-.6-.859-.395-1.37a.954.954 0 01.395-.473v.135-.135l4.53-2.642a3.385 3.385 0 013.475 0h.003z"/><linearGradient id="as" gradientUnits="userSpaceOnUse" x1="371.639" y1="662.595" x2="369.164" y2="662.38" gradientTransform="matrix(11.8243 0 0 -6.8691 -3022.542 4646.044)"><stop offset="0" stop-color="#1a22be"/><stop offset="1" stop-color="#0b0f89"/></linearGradient><path fill="url(#as)" d="M1354.17 90.614l1.592.806c.157.092.223.32.146.509a.35.35 0 01-.149.179l-15.575 9.084a1.265 1.265 0 01-1.298 0l-1.592-.928c-.159-.092-.223-.197-.146-.389a.353.353 0 01.146-.175l15.578-9.086a1.27 1.27 0 011.298 0z"/><linearGradient id="at" gradientUnits="userSpaceOnUse" x1="392.188" y1="671.013" x2="392.188" y2="669.151" gradientTransform="matrix(122.649 0 0 -103.55 -46871.773 69556.383)"><stop offset="0" stop-color="#6be9ff" stop-opacity="0"/><stop offset="1" stop-color="#01f3fa"/></linearGradient><path opacity=".21" fill="url(#at)" enable-background="new" d="M1327.063 73.066h-194.921c.082 110.109.082 165.06 0 164.853-.451-1.135-.063-2.502.869-3.054l93.766-54.836c2.413-1.428 5.23-1.428 7.642 0l91.777 54.305c.378.223.685.597.867 1.059.201.504.201-53.603 0-162.325v-.002z"/><linearGradient id="au" gradientUnits="userSpaceOnUse" x1="388.894" y1="670.954" x2="388.894" y2="669.093" gradientTransform="matrix(59.5615 0 0 -98.214 -21983.729 65978.578)"><stop offset="0" stop-color="#6be9ff" stop-opacity="0"/><stop offset="1" stop-color="#01f3fa"/></linearGradient><path opacity=".1" fill="url(#au)" enable-background="new" d="M1226.777 81.562h-94.635c.082 104.444.082 156.564 0 156.358-.451-1.136-.063-2.504.869-3.055l93.766-54.836V81.562z"/><g transform="matrix(1 0 0 -1 1124.387 242.045)"><linearGradient id="av" gradientUnits="userSpaceOnUse" x1="-732.499" y1="-429.013" x2="-732.499" y2="-433.418" gradientTransform="matrix(110.867 0 0 130.577 81315.117 56197.742)"><stop offset="0" stop-color="#6be9ff" stop-opacity="0"/><stop offset="1" stop-color="#01f3fa"/></linearGradient><path fill="url(#av)" d="M16.863 11.852l11.896 6.796v162.277l-11.896-6.796V11.852zm31.48 18.853l11.896 6.798V199.78l-11.896-6.798V30.705zm31.439 18.692l11.898 6.798v162.277l-11.898-6.797V49.397zm113.584-36.284l-11.896 6.798v162.275l11.896-6.796V13.113zm-31.483 18.852l-11.893 6.798v162.278l11.895-6.798-.002-162.278zm-31.438 18.693l-11.896 6.798v162.277l11.896-6.797V50.658z"/></g><linearGradient id="aw" gradientUnits="userSpaceOnUse" x1="372.339" y1="669.844" x2="372.163" y2="668.797" gradientTransform="matrix(15.5066 0 0 -55.172 -4564.174 37123.219)"><stop offset="0" stop-color="#188eff"/><stop offset="1" stop-color="#1b37d6"/></linearGradient><path opacity=".5" fill="url(#aw)" enable-background="new" d="M1196.458 157.132l9.019 5.539c-.648 1.39-.979 2.863-.866 4.133l5.175 57.774c.846 9.418 4.544 16.442 10.353 20.14l-8.649-5.01.039.001c-6.106-3.604-10.016-10.748-10.883-20.446l-5.176-57.773c-.216-2.404 1.561-5.513.987-4.359h.001z"/><linearGradient id="ax" gradientUnits="userSpaceOnUse" x1="386.394" y1="665.204" x2="384.167" y2="665.097" gradientTransform="matrix(34.706 0 0 -11.1157 -12108.518 7505.443)"><stop offset="0" stop-color="#188eff"/><stop offset="1" stop-color="#1b37d6"/></linearGradient><path opacity=".5" fill="url(#ax)" enable-background="new" d="M1242.949 115.28l44.092-12.257c.822-.229 1.539-.148 2.101.187l9.061 5.265c-.549-.295-1.235-.356-2.02-.139l-44.09 12.254-9.144-5.312v.002z"/><linearGradient id="ay" gradientUnits="userSpaceOnUse" x1="385.728" y1="668.027" x2="384.349" y2="668.974" gradientTransform="matrix(34.945 0 0 -29.768 -12232.022 20038.258)"><stop offset="0" stop-color="#00c2fa"/><stop offset="1" stop-color="#0b78ff"/></linearGradient><path opacity=".8" fill="url(#ay)" enable-background="new" d="M1205.477 162.67l-9.018-5.539c.598-1.207 1.417-2.34 2.4-3.203l44.09-38.649 9.144 5.311-44.092 38.649c-1.046.92-1.921 2.139-2.524 3.431z"/><linearGradient id="az" gradientUnits="userSpaceOnUse" x1="389.741" y1="669.388" x2="389.123" y2="670.693" gradientTransform="matrix(59.6776 0 0 -89.1829 -21983.906 59930.973)"><stop offset="0" stop-color="#00c2fa"/><stop offset="1" stop-color="#0b78ff"/></linearGradient><path opacity=".8" fill="url(#az)" enable-background="new" d="M1208.001 159.24c-2.172 1.904-3.608 5.112-3.391 7.564l5.175 57.774c1.188 13.263 8.044 21.779 18.47 22.946l23.838 2.665 23.837-30.186c10.428-13.204 17.282-29.634 18.469-44.271l5.177-63.748c.219-2.703-1.219-4.25-3.393-3.646l-44.088 12.253-44.094 38.649z"/><linearGradient id="aA" gradientUnits="userSpaceOnUse" x1="387.817" y1="669.044" x2="387.199" y2="670.349" gradientTransform="matrix(44.5026 0 0 -66.5063 -15989.768 44714.934)"><stop offset="0" stop-color="#00c2fa"/><stop offset="1" stop-color="#0b78ff"/></linearGradient><path fill="url(#aA)" d="M1219.213 164.315c-1.619 1.42-2.69 3.811-2.528 5.64l3.858 43.082c.887 9.893 5.998 16.244 13.773 17.114l17.776 1.985 17.776-22.511c7.775-9.845 12.886-22.097 13.771-33.013l3.86-47.538c.163-2.017-.907-3.171-2.529-2.719l-32.879 9.138-32.878 28.822z"/><path fill="#00BDFA" d="M1251.812 128.679l.128-.033 38.873-10.805c2.342-.653 3.939 1.066 3.716 3.816l-4.56 56.207c-1.059 13.022-7.146 27.615-16.408 39.343l-21.216 26.865-21.334-2.385c-9.489-1.062-15.723-8.804-16.792-20.752l-4.563-50.938c-.21-2.354 1.137-5.358 3.185-7.152l38.971-34.166zm.561 1.039l-38.777 33.991c-1.783 1.563-2.972 4.216-2.796 6.185l4.563 50.938c1.025 11.445 6.879 18.719 15.776 19.713l20.7 2.313 20.82-26.364c9.125-11.558 15.124-25.936 16.161-38.726l4.563-56.205c.164-2.022-.776-3.031-2.264-2.618l-38.746 10.773z"/><g opacity=".5"><linearGradient id="aB" gradientUnits="userSpaceOnUse" x1="388.894" y1="670.58" x2="388.894" y2="668.719" gradientTransform="matrix(59.5615 0 0 -87.582 -21983.72 58884.68)"><stop offset="0" stop-color="#6be9ff" stop-opacity="0"/><stop offset="1" stop-color="#01f3fa"/></linearGradient><path fill="url(#aB)" d="M1226.777 153.985v139.429l-93.764-54.842c-.934-.551-1.322-1.918-.871-3.055.123-.308.123-27.487 0-81.535h94.635v.003z"/><linearGradient id="aC" gradientUnits="userSpaceOnUse" x1="344.725" y1="670.634" x2="344.725" y2="668.643" gradientTransform="matrix(7.472 0 0 -106.201 -1428.59 71341.219)"><stop offset="0" stop-color="#6be9ff" stop-opacity="0"/><stop offset="1" stop-color="#01f3fa"/></linearGradient><path fill="url(#aC)" d="M1141.25 80.593l11.896 6.796v162.277l-11.896-6.796V80.593z"/><linearGradient id="aD" gradientUnits="userSpaceOnUse" x1="346.293" y1="670.379" x2="346.293" y2="668.577" gradientTransform="matrix(7.472 0 0 -106.201 -1408.817 71353.094)"><stop offset="0" stop-color="#6be9ff" stop-opacity="0"/><stop offset="1" stop-color="#01f3fa"/></linearGradient><path fill="url(#aD)" d="M1172.729 99.447l11.896 6.796V268.52l-11.896-6.795V99.447z"/><linearGradient id="aE" gradientUnits="userSpaceOnUse" x1="347.862" y1="669.843" x2="347.862" y2="668.512" gradientTransform="matrix(7.473 0 0 -106.201 -1389.462 71364.852)"><stop offset="0" stop-color="#6be9ff" stop-opacity="0"/><stop offset="1" stop-color="#01f3fa"/></linearGradient><path fill="url(#aE)" d="M1204.169 118.139l11.898 6.796v162.277l-11.898-6.798V118.139z"/><linearGradient id="aF" gradientUnits="userSpaceOnUse" x1="437.082" y1="670.63" x2="437.082" y2="668.639" gradientTransform="matrix(-7.472 0 0 -106.201 4577.685 71342.031)"><stop offset="0" stop-color="#6be9ff" stop-opacity="0"/><stop offset="1" stop-color="#01f3fa"/></linearGradient><path fill="url(#aF)" d="M1317.753 81.854l-11.896 6.796v162.277l11.896-6.796V81.854z"/><linearGradient id="aG" gradientUnits="userSpaceOnUse" x1="438.649" y1="670.373" x2="438.649" y2="668.573" gradientTransform="matrix(-7.472 0 0 -106.201 4557.911 71353.844)"><stop offset="0" stop-color="#6be9ff" stop-opacity="0"/><stop offset="1" stop-color="#01f3fa"/></linearGradient><path fill="url(#aG)" d="M1286.271 100.708l-11.895 6.796v162.279l11.895-6.797V100.708z"/><linearGradient id="aH" gradientUnits="userSpaceOnUse" x1="440.207" y1="669.84" x2="440.207" y2="668.509" gradientTransform="matrix(-7.473 0 0 -106.201 4538.556 71365.602)"><stop offset="0" stop-color="#6be9ff" stop-opacity="0"/><stop offset="1" stop-color="#01f3fa"/></linearGradient><path fill="url(#aH)" d="M1254.832 119.4l-11.896 6.796v162.277l11.896-6.798V119.4z"/></g><g transform="translate(1190.625 249.06)" filter="url(#aI)"><linearGradient id="aJ" gradientUnits="userSpaceOnUse" x1="-834.138" y1="397.938" x2="-835.517" y2="398.373" gradientTransform="matrix(8.577 0 0 -4.951 7222.864 1976.179)"><stop offset="0" stop-color="#00c2fa"/><stop offset="1" stop-color="#0b78ff"/></linearGradient><path fill="url(#aJ)" d="M62.541 8.925l-6.827-3.94 6.827-3.941 6.828 3.941-6.828 3.94z"/><linearGradient id="aK" gradientUnits="userSpaceOnUse" x1="-871.784" y1="403.231" x2="-874.14" y2="406.951" gradientTransform="matrix(4.289 0 0 -7.427 3813.37 3017.19)"><stop offset="0" stop-color="#00c2fa"/><stop offset="1" stop-color="#0b78ff"/></linearGradient><path fill="url(#aK)" d="M69.369 4.984l-6.828-3.941v-7.882l6.828 3.942v7.881z"/><linearGradient id="aL" gradientUnits="userSpaceOnUse" x1="-873.941" y1="406.929" x2="-874.684" y2="405.882" gradientTransform="matrix(4.288 0 0 -7.427 3808.284 3017.19)"><stop offset="0" stop-color="#188eff"/><stop offset="1" stop-color="#1b37d6"/></linearGradient><path fill="url(#aL)" d="M62.541 1.043l-6.827 3.941v-7.882l6.827-3.942v7.883z"/></g><g transform="translate(1199.39 219.843)" filter="url(#aM)"><linearGradient id="aN" gradientUnits="userSpaceOnUse" x1="-842.298" y1="430.645" x2="-843.677" y2="431.08" gradientTransform="matrix(8.577 0 0 -4.951 7298.042 2120.834)"><stop offset="0" stop-color="#00c2fa"/><stop offset="1" stop-color="#0b78ff"/></linearGradient><path fill="url(#aN)" d="M67.729-8.372l-6.827-3.94 6.827-3.942 6.828 3.942-6.828 3.94z"/><linearGradient id="aO" gradientUnits="userSpaceOnUse" x1="-879.295" y1="434.778" x2="-881.651" y2="438.498" gradientTransform="matrix(4.289 0 0 -7.427 3850.96 3234.184)"><stop offset="0" stop-color="#00c2fa"/><stop offset="1" stop-color="#0b78ff"/></linearGradient><path fill="url(#aO)" d="M74.557-12.312l-6.828-3.942v-7.882l6.828 3.941v7.883z"/><linearGradient id="aP" gradientUnits="userSpaceOnUse" x1="-881.49" y1="438.474" x2="-882.232" y2="437.428" gradientTransform="matrix(4.288 0 0 -7.427 3845.869 3234.184)"><stop offset="0" stop-color="#188eff"/><stop offset="1" stop-color="#1b37d6"/></linearGradient><path fill="url(#aP)" d="M67.729-16.254l-6.827 3.942v-7.882l6.827-3.941v7.881z"/></g><g transform="rotate(-75 718.302 -664.667)" filter="url(#aQ)"><linearGradient id="aR" gradientUnits="userSpaceOnUse" x1="-720.721" y1="-633.534" x2="-722.1" y2="-633.099" gradientTransform="matrix(2.2199 4.7823 8.2847 -1.2814 6907.788 2683.567)"><stop offset="0" stop-color="#00c2fa"/><stop offset="1" stop-color="#0b78ff"/></linearGradient><path fill="url(#aR)" d="M53.096 51.473l-6.827-3.941 6.826-3.941 6.828 3.94-6.827 3.942z"/><linearGradient id="aS" gradientUnits="userSpaceOnUse" x1="-702.742" y1="-657.266" x2="-705.098" y2="-653.546" gradientTransform="matrix(1.1101 7.1739 4.1429 -1.9222 3567.822 3843.108)"><stop offset="0" stop-color="#00c2fa"/><stop offset="1" stop-color="#0b78ff"/></linearGradient><path fill="url(#aS)" d="M59.923 47.532l-6.828-3.94V35.71l6.829 3.94-.001 7.882z"/><linearGradient id="aT" gradientUnits="userSpaceOnUse" x1="-706.926" y1="-658.418" x2="-707.668" y2="-659.465" gradientTransform="matrix(1.1098 7.1739 4.1419 -1.9222 3562.756 3843.108)"><stop offset="0" stop-color="#188eff"/><stop offset="1" stop-color="#1b37d6"/></linearGradient><path fill="url(#aT)" d="M53.096 43.591l-6.826 3.941v-7.883l6.826-3.94v7.882z"/></g><g transform="rotate(-30 1032.226 -2165.775)" filter="url(#aU)"><linearGradient id="aV" gradientUnits="userSpaceOnUse" x1="-977.175" y1="-34.263" x2="-978.555" y2="-33.828" gradientTransform="matrix(7.4279 2.4755 4.2885 -4.2877 7492.33 2303.972)"><stop offset="0" stop-color="#00c2fa"/><stop offset="1" stop-color="#0b78ff"/></linearGradient><path fill="url(#aV)" d="M81.184 34.946l-6.826-3.94 6.826-3.943 6.829 3.943-6.829 3.94z"/><linearGradient id="aW" gradientUnits="userSpaceOnUse" x1="-1004.934" y1="-58.767" x2="-1007.29" y2="-55.047" gradientTransform="matrix(3.7144 3.7135 2.1445 -6.432 3951.814 3402.194)"><stop offset="0" stop-color="#00c2fa"/><stop offset="1" stop-color="#0b78ff"/></linearGradient><path fill="url(#aW)" d="M88.012 31.005l-6.829-3.943.001-7.881 6.828 3.942v7.882z"/><linearGradient id="aX" gradientUnits="userSpaceOnUse" x1="-1008.671" y1="-56.66" x2="-1009.413" y2="-57.706" gradientTransform="matrix(3.7135 3.7135 2.144 -6.432 3946.697 3402.198)"><stop offset="0" stop-color="#188eff"/><stop offset="1" stop-color="#1b37d6"/></linearGradient><path fill="url(#aX)" d="M81.183 27.062l-6.826 3.943v-7.882l6.827-3.942-.001 7.881z"/></g><g transform="rotate(-60 785.923 -901.186)" filter="url(#aY)"><linearGradient id="aZ" gradientUnits="userSpaceOnUse" x1="-828.9" y1="-454.476" x2="-830.279" y2="-454.041" gradientTransform="matrix(4.2885 4.2877 7.4279 -2.4755 6982.332 2472.263)"><stop offset="0" stop-color="#00c2fa"/><stop offset="1" stop-color="#0b78ff"/></linearGradient><path fill="url(#aZ)" d="M45.581 46.32l-6.826-3.94 6.826-3.942 6.828 3.942-6.828 3.94z"/><linearGradient id="ba" gradientUnits="userSpaceOnUse" x1="-826.521" y1="-489.052" x2="-828.876" y2="-485.333" gradientTransform="matrix(2.1445 6.432 3.7144 -3.7135 3646.647 3560.377)"><stop offset="0" stop-color="#00c2fa"/><stop offset="1" stop-color="#0b78ff"/></linearGradient><path fill="url(#ba)" d="M52.408 42.38l-6.828-3.942v-7.881l6.829 3.942-.001 7.881z"/><linearGradient id="bb" gradientUnits="userSpaceOnUse" x1="-830.955" y1="-489.11" x2="-831.697" y2="-490.156" gradientTransform="matrix(2.144 6.432 3.7135 -3.7135 3641.582 3560.376)"><stop offset="0" stop-color="#188eff"/><stop offset="1" stop-color="#1b37d6"/></linearGradient><path fill="url(#bb)" d="M45.581 38.437l-6.826 3.942v-7.882l6.826-3.941v7.881z"/></g><g transform="rotate(-105 678.265 -369.172)" filter="url(#bc)"><linearGradient id="bd" gradientUnits="userSpaceOnUse" x1="-318.161" y1="-927.376" x2="-319.54" y2="-927.812" gradientTransform="matrix(-2.2199 4.7823 8.2847 1.2814 7012.31 2799.188)"><stop offset="0" stop-color="#00c2fa"/><stop offset="1" stop-color="#0b78ff"/></linearGradient><path fill="url(#bd)" d="M29.86 92.104l-6.826-3.94 6.827-3.942 6.828 3.942-6.829 3.94z"/><linearGradient id="be" gradientUnits="userSpaceOnUse" x1="-294.746" y1="-918.023" x2="-297.101" y2="-921.743" gradientTransform="matrix(-1.1101 7.1739 4.1429 1.9222 3517.997 3985.357)"><stop offset="0" stop-color="#00c2fa"/><stop offset="1" stop-color="#0b78ff"/></linearGradient><path fill="url(#be)" d="M36.688 88.163l-6.828-3.942V76.34l6.828 3.942v7.881z"/><linearGradient id="bf" gradientUnits="userSpaceOnUse" x1="-297.896" y1="-921.175" x2="-298.638" y2="-920.128" gradientTransform="matrix(-1.1098 7.1739 4.1419 1.9222 3512.894 3985.357)"><stop offset="0" stop-color="#188eff"/><stop offset="1" stop-color="#1b37d6"/></linearGradient><path fill="url(#bf)" d="M29.86 84.222l-6.827 3.942-.001-7.882 6.827-3.942.001 7.882z"/></g><linearGradient id="bg" gradientUnits="userSpaceOnUse" x1="388.993" y1="669.967" x2="391.129" y2="669.967" gradientTransform="matrix(75.5642 0 0 -107.8558 -28312.404 72496.71)"><stop offset="0" stop-color="#1a22be"/><stop offset=".637" stop-color="#0b0d7e"/><stop offset="1" stop-color="#1a22be"/></linearGradient><path fill="url(#bg)" d="M1227.358 172.766v124.893c.09.414.063.866-.103 1.28a1.716 1.716 0 01-.706.854l-37.59 22.138a6.037 6.037 0 01-6.227 0l-74.764-43.818c-.472-.274-.773-.807-.845-1.39h-.016V151.087l120.251 21.679z"/><path fill="#0B0F89" d="M1120.48 266.294a1.877 1.877 0 011.051 1.684v10.602a.625.625 0 01-.9.56l-1.951-.953a1.87 1.87 0 01-1.051-1.682v-10.602a.624.624 0 01.898-.56l1.953.953v-.002zm-6.035-3.321c.643.314 1.05.967 1.05 1.682v10.602a.622.622 0 01-.624.623.639.639 0 01-.275-.062l-1.951-.957a1.87 1.87 0 01-1.051-1.681v-10.6a.624.624 0 01.898-.561l1.953.954z"/><linearGradient id="bh" gradientUnits="userSpaceOnUse" x1="382.301" y1="669.889" x2="382.094" y2="670.151" gradientTransform="matrix(28.0622 0 0 -95.8328 -9525.472 64435.145)"><stop offset="0" stop-color="#0f0856"/><stop offset="1" stop-color="#0b0f89"/></linearGradient><path fill="url(#bh)" d="M1227.216 172.532v124.892c.091.415.063.866-.103 1.279a1.714 1.714 0 01-.706.855l-37.589 22.141a6.046 6.046 0 01-6.227 0V169.996l44.625 2.536z"/><path fill="#0B0F89" d="M1151.785 127.533l74.764 43.822c.758.446 1.074 1.548.706 2.465a1.724 1.724 0 01-.706.853l-37.59 22.142a6.042 6.042 0 01-6.227 0l-74.764-43.82c-.759-.446-1.076-1.548-.708-2.465.136-.354.385-.655.708-.853l37.59-22.142a6.042 6.042 0 016.227 0v-.002z"/><linearGradient id="bi" gradientUnits="userSpaceOnUse" x1="390.847" y1="669.212" x2="388.621" y2="668.847" gradientTransform="matrix(72.758 0 0 -42.967 -27204.035 28908.555)"><stop offset="0" stop-color="#188eff"/><stop offset="1" stop-color="#1b37d6"/></linearGradient><path fill="url(#bi)" d="M1151.728 127.494l72.523 43.085c.729.428 1.036 1.49.68 2.372a1.643 1.643 0 01-.68.82l-34.728 20.465a5.807 5.807 0 01-5.987 0l-73.461-42.558c-.729-.428-1.035-1.49-.681-2.373a1.66 1.66 0 01.681-.819l35.662-20.992a5.81 5.81 0 015.991 0z"/><path fill="#00BDFA" d="M1146.721 140.742l-16.692 9.893a.672.672 0 00-.266.335c-.165.407-.025.896.266 1.066l53.866 31.57c1.198.725 2.7.726 3.9.003l16.694-9.895a.674.674 0 00.266-.334c.165-.406.023-.896-.266-1.066l-53.866-31.57a3.774 3.774 0 00-3.902-.002zm58.348 30.581c.806.471 1.121 1.572.752 2.485a1.81 1.81 0 01-.747.896l-16.695 9.893a4.92 4.92 0 01-5.066 0l-53.865-31.569c-.805-.472-1.12-1.574-.752-2.487.153-.382.416-.701.748-.895l16.694-9.895a4.923 4.923 0 015.067 0l53.865 31.57-.001.002z"/><linearGradient id="bj" gradientUnits="userSpaceOnUse" x1="384.227" y1="666.558" x2="382.84" y2="666.488" gradientTransform="matrix(31.8292 0 0 -18.6986 -11037.092 12625.459)"><stop offset="0" stop-color="#1a22be"/><stop offset="1" stop-color="#0b0f89"/></linearGradient><path fill="url(#bj)" d="M1150.41 148.128l41.704 24.321c.424.247.602.86.395 1.368a.961.961 0 01-.395.474l-4.53 2.642c-1.07.64-2.404.64-3.474 0l-41.708-24.324c-.423-.247-.601-.86-.396-1.368a.96.96 0 01.396-.475l4.53-2.642a3.385 3.385 0 013.475 0l.003.004z"/><linearGradient id="bk" gradientUnits="userSpaceOnUse" x1="384.083" y1="666.354" x2="382.704" y2="666.804" gradientTransform="matrix(31.8292 0 0 -18.6966 -11037.092 12622.634)"><stop offset="0" stop-color="#00c2fa"/><stop offset="1" stop-color="#0b78ff"/></linearGradient><path fill="url(#bk)" d="M1150.41 145.746l41.704 24.321c.424.247.602.86.395 1.37a.963.963 0 01-.395.473l-4.53 2.643a3.387 3.387 0 01-3.474 0l-41.708-24.322c-.423-.247-.601-.86-.396-1.369a.96.96 0 01.396-.473v.136-.136l4.53-2.643a3.385 3.385 0 013.475 0h.003z"/><linearGradient id="bl" gradientUnits="userSpaceOnUse" x1="367.043" y1="657.924" x2="364.57" y2="657.709" gradientTransform="matrix(11.8243 0 0 -6.8691 -3114.325 4700.215)"><stop offset="0" stop-color="#1a22be"/><stop offset="1" stop-color="#0b0f89"/></linearGradient><path fill="url(#bl)" d="M1208.051 176.863l1.593.806c.156.092.222.319.146.509a.352.352 0 01-.147.178l-15.576 9.084c-.4.239-.899.239-1.299 0l-1.592-.928c-.158-.092-.223-.198-.146-.388a.363.363 0 01.146-.175l15.578-9.086a1.263 1.263 0 011.297 0z"/><linearGradient id="bm" gradientUnits="userSpaceOnUse" x1="392.736" y1="670.787" x2="392.708" y2="669.255" gradientTransform="matrix(107.2394 0 0 -117.29 -40814.852 78900.047)"><stop offset="0" stop-color="#02e8fd" stop-opacity="0"/><stop offset=".305" stop-color="#02e5fd" stop-opacity=".385"/><stop offset="1" stop-color="#01ccfb" stop-opacity="0"/></linearGradient><linearGradient id="bn" gradientUnits="userSpaceOnUse" x1="392.337" y1="670.65" x2="392.442" y2="669.554" gradientTransform="matrix(107.2394 0 0 -117.29 -40814.852 78900.047)"><stop offset="0" stop-color="#01e4fc" stop-opacity="0"/><stop offset=".262" stop-color="#02ebfc"/><stop offset=".96" stop-color="#01e4fb" stop-opacity=".402"/><stop offset="1" stop-color="#01e2fb" stop-opacity="0"/></linearGradient><path fill="url(#bm)" stroke="url(#bn)" stroke-width="1.313" d="M1232.487 215.731l-16.113 9.359 151.533 89.327a3.323 3.323 0 011.154 4.56c-.293.492-.707.9-1.204 1.186l-124.687 71.381 16.156 9.471 116.602-66.754a19.567 19.567 0 007.088-6.966c5.535-9.285 2.495-21.3-6.787-26.829l-143.742-84.735z"/><path fill="#00F6FF" d="M1189.86 409.866l-3.983-2.301 3.983-2.299 3.982 2.299-3.982 2.301z"/><path fill="#03E2F9" d="M1193.843 407.565l-3.982-2.296v-4.601l3.982 2.299v4.598z"/><path fill="#69E0FF" d="M1189.86 405.269l-3.983 2.297v-4.598l3.983-2.299v4.6z"/><g transform="translate(1230.958 410.848)"><circle opacity=".15" fill="#03E1F9" enable-background="new" cx="-655.164" cy="-32.729" r="10.975"/><circle fill="#03E1F9" cx="-655.164" cy="-32.729" r="2.283"/><circle opacity=".3" fill="#03E1F9" enable-background="new" cx="-655.164" cy="-32.728" r="6.39"/><linearGradient id="bo" gradientUnits="userSpaceOnUse" x1="-1567.369" y1="259.298" x2="-1567.369" y2="257.416" gradientTransform="matrix(1.445 0 0 -30.349 1609.686 7790.38)"><stop offset="0" stop-color="#04f1fc" stop-opacity="0"/><stop offset="1" stop-color="#03e1f9"/></linearGradient><path fill="url(#bo)" d="M-656.304-81.243h2.282v47.941h-2.282v-47.941z"/></g><g transform="translate(1248.781 231.726)"><circle opacity=".15" fill="#03E1F9" enable-background="new" cx="78.433" cy="224.826" r="10.974"/><circle fill="#03E1F9" cx="78.433" cy="224.826" r="2.282"/><circle opacity=".3" fill="#03E1F9" enable-background="new" cx="78.433" cy="224.825" r="6.39"/><linearGradient id="bp" gradientUnits="userSpaceOnUse" x1="-1077.512" y1="429.933" x2="-1077.512" y2="428.051" gradientTransform="matrix(1.445 0 0 -30.349 1635.44 13226.55)"><stop offset="0" stop-color="#04f1fc" stop-opacity="0"/><stop offset="1" stop-color="#03e1f9"/></linearGradient><path fill="url(#bp)" d="M77.293 176.311h2.283v47.941h-2.283v-47.941z"/></g><g transform="translate(1248.781 231.726)"><circle opacity=".15" fill="#03E1F9" enable-background="new" cx="-234.88" cy="-36.654" r="10.974"/><circle fill="#03E1F9" cx="-234.88" cy="-36.654" r="2.282"/><circle opacity=".3" fill="#03E1F9" enable-background="new" cx="-234.88" cy="-36.654" r="6.39"/><linearGradient id="bq" gradientUnits="userSpaceOnUse" x1="-1294.337" y1="438.548" x2="-1294.337" y2="436.668" gradientTransform="matrix(1.445 0 0 -30.349 1635.44 13226.55)"><stop offset="0" stop-color="#04f1fc" stop-opacity="0"/><stop offset="1" stop-color="#03e1f9"/></linearGradient><path fill="url(#bq)" d="M-236.019-85.168h2.283v47.941h-2.283v-47.941z"/></g><path opacity=".3" fill="#0D054C" enable-background="new" d="M1073.332 371.749L1300.49 504.9c2.304 1.35 3.267 4.703 2.147 7.49-.453 1.129-1.211 2.045-2.147 2.594l-227.158 133.152c-5.973 3.499-12.945 3.499-18.917 0L827.258 514.984c-2.306-1.353-3.269-4.706-2.149-7.491.454-1.13 1.212-2.046 2.149-2.593l227.157-133.153c5.972-3.501 12.944-3.501 18.917 0v.002z"/><path fill="none" stroke="#22FCFF" stroke-width=".5" d="M1071.683 395.517l187.515 110.251c1.901 1.119 2.697 3.895 1.772 6.202-.376.937-1 1.692-1.772 2.146l-187.515 110.25c-4.931 2.9-10.688 2.9-15.617 0l-187.515-110.25c-1.903-1.12-2.699-3.896-1.774-6.2.376-.938 1-1.692 1.774-2.148l187.515-110.251c4.929-2.896 10.686-2.896 15.617 0h0z"/><path fill="#0B0F89" d="M1027.419 255.852c1.482-1.06 2.31-1.624 2.488-1.692 1.223-.465 2.791-.1 4.504.898l170.069 99.12c4.7 2.78 7.063 6.326 7.063 13.63v140.523c0 3.489-.951 5.455-2.454 6.144l-1.338.767c.803-.588-59.309-87.051-180.332-259.39z"/><path fill="#0B0F89" d="M1211.544 379.251v133.383l-1.526 1.082V380.334l1.526-1.079v-.004z"/><linearGradient id="br" gradientUnits="userSpaceOnUse" x1="392.183" y1="670.736" x2="389.089" y2="667.413" gradientTransform="matrix(105.522 0 0 -151.4895 -40192.566 101884.086)"><stop offset="0" stop-color="#fff"/><stop offset="1" stop-color="#486bd7"/></linearGradient><path fill="url(#br)" d="M1202.955 518.783l-170.001-99.103c-4.265-2.475-7.063-5.141-7.063-13.626V261.977c0-6.658 3.162-7.665 7.063-5.392l170.001 99.103c4.7 2.777 7.063 6.325 7.063 13.626v144.078c0 6.365-3.161 7.664-7.063 5.393v-.002z"/><linearGradient id="bs" gradientUnits="userSpaceOnUse" x1="392.131" y1="670.73" x2="389.077" y2="667.405" gradientTransform="matrix(104.208 0 0 -150.6133 -39673.32 101296.227)"><stop offset="0" stop-color="#fff"/><stop offset="1" stop-color="#486bd7"/></linearGradient><path fill="url(#bs)" d="M1203.556 356.901c3.14 1.841 5.698 6.313 5.698 9.971v148.101c0 3.655-2.554 5.136-5.698 3.297l-170.439-99.861c-3.142-1.839-5.697-6.313-5.697-9.971V260.339c0-3.658 2.556-5.138 5.697-3.297l170.439 99.859z"/><path fill="#0B0F89" d="M1201.615 364.777v145.114l-169.612-98.595V266.182l169.612 98.595z"/><linearGradient id="bt" gradientUnits="userSpaceOnUse" x1="391.509" y1="671.018" x2="390.673" y2="668.906" gradientTransform="matrix(93.699 0 0 -130.821 -35523.078 88016.063)"><stop offset="0" stop-color="#188eff"/><stop offset="1" stop-color="#1b37d6"/></linearGradient><path fill="url(#bt)" d="M1198.558 376.425v124.722a1.527 1.527 0 01-2.297 1.32l-159.305-92.74a3.825 3.825 0 01-1.896-3.303V275.929a1.527 1.527 0 012.296-1.32l32.345 18.83c.511.296.945.709 1.27 1.2l5.675 8.615 120.015 69.868a3.817 3.817 0 011.898 3.301v.002z"/><path fill="#1830BA" d="M1154.326 427.477v12.373a1.16 1.16 0 01-1.748 1.001l-33.561-19.462a2.898 2.898 0 01-1.445-2.506v-12.371a1.16 1.16 0 011.748-1.003l33.56 19.46a2.9 2.9 0 011.446 2.508z"/><path fill="#0B0F89" d="M1122.879 421.172v-9.118l4.047 2.334c.998.577 1.784 1.313 2.281 2.122.398.646.599 1.27.599 1.896v.024c0 1.03-.523 1.301-1.146 1.307 1.011.986 1.633 1.958 1.633 3.182v.024c0 1.671-1.297 1.756-3.265.62l-4.149-2.391zm1.865-4.356l1.772 1.021c.847.488 1.383.509 1.383-.168v-.027c0-.598-.446-1.194-1.26-1.662l-1.894-1.091v1.927h-.001zm0 3.676l2.283 1.312c.846.491 1.356.472 1.356-.206v-.024c0-.613-.436-1.242-1.42-1.812l-2.218-1.277v2.008h-.001zm10.768 8.105c-2.343-1.35-3.775-3.542-3.775-6.227v-5.21l1.92 1.106v5.157c0 1.485.711 2.664 1.882 3.339 1.172.673 1.883.341 1.883-1.104v-5.223l1.918 1.104v5.146c-.001 2.761-1.482 3.261-3.828 1.912zm8.237 4.603v-3.593l-3.35-7.455 2.24 1.291 2.081 4.859 2.12-2.439 2.181 1.258-3.353 3.551v3.632l-1.919-1.104z"/><linearGradient id="bu" gradientUnits="userSpaceOnUse" x1="382.822" y1="666.707" x2="378.018" y2="663.38" gradientTransform="matrix(27.254 0 0 -31.415 -9263.27 21320.76)"><stop offset="0" stop-color="#fff"/><stop offset="1" stop-color="#486bd7"/></linearGradient><path fill="url(#bu)" d="M1117.572 383.623v-4.412l47.557 27.401-.015 4.409-47.542-27.398zm47.508 38.591l-.012 4.404-29.769-17.152.014-4.409 29.767 17.153v.004zm-4.213-10.505v4.414l-43.295-24.946v-4.414l43.295 24.946zm0-10.688l-25.501-14.694.013-4.405 25.488 14.685v4.414zm-43.295-24.827v-4.393l13.588 7.638-.014 4.386-13.574-7.631zm0 23.07v-4.393l13.517 7.597-.012 4.389-13.505-7.59v-.003z"/><linearGradient id="bv" gradientUnits="userSpaceOnUse" x1="383.875" y1="665.075" x2="385.62" y2="664.827" gradientTransform="matrix(34.963 0 0 -24.698 -12304.47 16802.271)"><stop offset="0" stop-color="#1a22be"/><stop offset="1" stop-color="#0b0f89"/></linearGradient><path fill="url(#bv)" d="M1117.572 365.774v-7.952l61.008 35.15-.018 7.943-60.99-35.141z"/><path fill="#0B0F89" d="M1195.501 386.347c0 2.411-1.974 4.366-4.407 4.366a4.429 4.429 0 01-2.217-.594l-144.14-82.961a13.16 13.16 0 01-6.624-11.399c0-2.409 1.974-4.363 4.409-4.363.775 0 1.541.205 2.215.591l144.14 82.964a13.156 13.156 0 016.624 11.396z"/><linearGradient id="bw" gradientUnits="userSpaceOnUse" x1="335.718" y1="650.727" x2="334.642" y2="648.617" gradientTransform="matrix(5.692 0 0 -7.0054 -719.835 4932.246)"><stop offset="0" stop-color="#188eff"/><stop offset="1" stop-color="#1b37d6"/></linearGradient><path fill="url(#bw)" d="M1187.479 387.72c2.741 1.569 4.965.416 4.965-2.572 0-2.989-2.224-6.684-4.965-8.251-2.744-1.568-4.967-.416-4.967 2.574 0 2.987 2.222 6.68 4.967 8.249z"/><linearGradient id="bx" gradientUnits="userSpaceOnUse" x1="285.133" y1="622.541" x2="278.754" y2="619.217" gradientTransform="matrix(3.0645 0 0 -3.0643 318.03 2287.535)"><stop offset="0" stop-color="#fff"/><stop offset="1" stop-color="#486bd7"/></linearGradient><path fill="url(#bx)" d="M1185.935 382.025c-.531-1.202-.422-2.327.337-2.67.887-.404 2.329.421 3.215 1.84.89 1.419.89 2.898 0 3.302-.758.344-1.916-.204-2.79-1.251l-.973.441c-.211.097-.553-.1-.76-.436-.21-.338-.21-.687 0-.784l.971-.442zm.877.386c.59.941 1.543 1.488 2.133 1.22.587-.268.587-1.248 0-2.188-.59-.944-1.543-1.487-2.133-1.221-.588.266-.588 1.248 0 2.189z"/><path fill="#1830BA" d="M1116.043 358.627v87.574a2.57 2.57 0 01-3.858 2.225l-68.585-39.931a6.437 6.437 0 01-3.195-5.562V315.36a2.572 2.572 0 013.86-2.225l68.586 39.931a6.433 6.433 0 013.192 5.561z"/><path fill="#0B0F89" d="M1112.28 422.119a2.316 2.316 0 01-3.474 2.002l-61.761-35.957a5.796 5.796 0 01-2.875-5.009V321.87a2.318 2.318 0 013.473-2.004l61.76 35.959a5.8 5.8 0 012.877 5.008v61.286z"/><linearGradient id="by" gradientUnits="userSpaceOnUse" x1="369.912" y1="665.606" x2="369.134" y2="663.494" gradientTransform="matrix(15.2616 0 0 -22.1061 -4562.449 15058.907)"><stop offset="0" stop-color="#188eff"/><stop offset="1" stop-color="#1b37d6"/></linearGradient><path fill="url(#by)" d="M1074.341 384.958c-1.782-1.038-3.227-3.49-3.227-5.479 0-1.986 1.444-2.758 3.227-1.716 1.782 1.038 3.228 3.492 3.228 5.478-.001 1.987-1.446 2.756-3.228 1.717zm10.343-1.204c1.548 1.071 2.77 3.147 2.924 4.965.175 2.1-1.135 3.112-2.924 2.267a4.39 4.39 0 01-.64-.372c-1.791-1.24-3.1-3.783-2.925-5.678.178-1.892 1.773-2.42 3.565-1.182zm6.643-9.82c.186.348.256.716.188.984l-2.319 8.985c-.102.41-.476.524-.907.274l-16.393-9.55c-.444-.254-.83-.833-.906-1.369l-2.913-16.609-3.166-1.846v-2.094l3.914 2.28c.434.255.809.807.911 1.333l.907 5.142 2.666 1.552v-.07c0-4.225 3.071-5.86 6.861-3.651 3.79 2.211 6.864 7.425 6.864 11.649v.07l3.571 2.081c.291.162.56.479.722.839zm-11.157-1.438c2.745 1.582 4.965.402 4.983-2.647 0-3.067-2.23-6.854-4.983-8.457-2.752-1.604-4.982-.418-4.982 2.651 0 3.065 2.23 6.851 4.982 8.453zm-.751-5.885l3.289-1.541 1.287 2.286-3.949 1.855c-.176.091-.413.053-.66-.104a1.995 1.995 0 01-.657-.697l-2.38-4.077 1.346-.68 1.724 2.958z"/><path fill="#1830BA" d="M1154.324 449.511v20.772a1.162 1.162 0 01-1.746 1.004l-33.561-19.462a2.895 2.895 0 01-1.447-2.507v-20.772c0-.646.52-1.163 1.162-1.163.206 0 .407.056.587.156l33.559 19.462a2.905 2.905 0 011.448 2.51h-.002zm38.886 22.403v20.775a1.163 1.163 0 01-1.75 1.003l-33.559-19.46a2.898 2.898 0 01-1.446-2.508v-20.775c0-.641.521-1.16 1.161-1.158.208 0 .407.055.587.158l33.559 19.458a2.908 2.908 0 011.448 2.511v-.004z"/><path fill="#0B0F89" d="M1134.658 457.102a.506.506 0 01-.511.496.496.496 0 01-.259-.067l-13.667-7.975a1.229 1.229 0 01-.637-1.07v-16.88c0-.275.229-.497.511-.497a.55.55 0 01.26.067l13.666 7.974c.39.217.633.626.637 1.071v16.881zm39.112 22.753a.507.507 0 01-.512.496.534.534 0 01-.259-.066l-13.666-7.976a1.232 1.232 0 01-.638-1.069v-16.883c0-.272.229-.493.512-.493a.55.55 0 01.259.063l13.667 7.975c.39.218.633.627.637 1.072v16.881z"/><path fill="#01E5FB" d="M1180.003 474.906c-1.649-.951-2.75-3.043-2.75-4.827v-.035c0-1.786 1.082-2.635 2.765-1.667 1.665.959 2.751 3.061 2.751 4.83v.035c0 1.785-1.117 2.616-2.766 1.664zm7.151 10.071c-1.651-.952-2.75-3.059-2.75-4.829v-.034c0-1.785 1.085-2.637 2.766-1.664 1.665.959 2.75 3.043 2.75 4.827v.035c0 1.77-1.118 2.619-2.766 1.665zm-7.136-11.97c.521.3.886-.061.886-.823v-.035c0-.762-.379-1.57-.899-1.872-.536-.309-.888.062-.888.825v.033c0 .781.399 1.583.904 1.873l-.003-.001zm7.152 10.07c.519.303.887-.059.887-.822v-.034c0-.78-.384-1.572-.902-1.872-.55-.317-.887.043-.887.821v.036c0 .762.398 1.582.902 1.871zm-4.232-7.242l3.742-3.442 2.065 1.19-4.603 4.022-3.651 3.355-2.062-1.188 4.509-3.937z"/><path fill="none" stroke="#01E5FB" stroke-width="2.189" stroke-linecap="round" d="M1006.861 393.975l-36.745 21.079v-10.859a36.571 36.571 0 0118.374-31.721c5.879-3.368 13.375-1.335 16.746 4.543a12.263 12.263 0 011.625 6.1v10.858z"/><linearGradient id="bz" gradientUnits="userSpaceOnUse" x1="384.081" y1="664.47" x2="385.826" y2="664.308" gradientTransform="matrix(42.179 0 0 -24.066 -15242.84 16391.207)"><stop offset="0" stop-color="#1a22be"/><stop offset="1" stop-color="#0b0f89"/></linearGradient><path fill="url(#bz)" d="M971.36 423.072l-13.727-6.833 60.024-35.162 4.536 5.208 9.038 2.107-59.871 34.68z"/><linearGradient id="bA" gradientUnits="userSpaceOnUse" x1="384.879" y1="669.413" x2="384.257" y2="667.303" gradientTransform="matrix(40.028 0 0 -64.801 -14386.395 43748.926)"><stop offset="0" stop-color="#188eff"/><stop offset="1" stop-color="#1b37d6"/></linearGradient><path fill="url(#bA)" d="M971.36 423.072l2.878 78.392 66.966-38.549-9.972-74.522-59.872 34.679z"/><path fill="none" stroke="#01E5FB" stroke-width="2.189" stroke-linecap="round" d="M984.633 423.453v-10.855a36.57 36.57 0 0118.373-31.72c5.879-3.371 13.376-1.339 16.747 4.538a12.275 12.275 0 011.627 6.104v10.858"/><linearGradient id="bB" gradientUnits="userSpaceOnUse" x1="314.945" y1="668.207" x2="314.924" y2="666.097" gradientTransform="matrix(5.421 0 0 -47.323 -737.706 32029.955)"><stop offset="0" stop-color="#188eff"/><stop offset="1" stop-color="#1b37d6"/></linearGradient><path fill="url(#bB)" d="M971.36 423.072l2.878 78.392-9.459-19.06 1.5-63.514 5.081 4.182z"/><linearGradient id="bC" gradientUnits="userSpaceOnUse" x1="357.329" y1="667.586" x2="357.439" y2="665.549" gradientTransform="matrix(11.695 0 0 -39.302 -3223.632 26642.322)"><stop offset="0" stop-color="#188eff"/><stop offset="1" stop-color="#1b37d6"/></linearGradient><path fill="url(#bC)" d="M957.483 416.239l-11.609 68.578 18.906-2.413 1.5-63.514-8.797-2.651z"/><linearGradient id="bD" gradientUnits="userSpaceOnUse" x1="369.455" y1="653.531" x2="367.823" y2="652.588" gradientTransform="matrix(16.322 0 0 -10.906 -5049.061 7612.343)"><stop offset="0" stop-color="#188eff"/><stop offset="1" stop-color="#1b37d6"/></linearGradient><path fill="url(#bD)" d="M974.219 501.435l-28.48-16.638 19.041-2.393 9.439 19.031z"/><path fill="none" stroke="#01E5FB" stroke-width="2.189" stroke-linecap="round" d="M1026.188 437.053l-27.704 15.778v-8.128c0-9.806 5.282-18.862 13.852-23.743a9.295 9.295 0 014.601-1.218c5.11 0 9.252 4.111 9.252 9.186v8.125z"/><linearGradient id="bE" gradientUnits="userSpaceOnUse" x1="381.106" y1="661.273" x2="382.85" y2="661.114" gradientTransform="matrix(31.802 0 0 -18.014 -11131.096 12353.837)"><stop offset="0" stop-color="#1a22be"/><stop offset="1" stop-color="#0b0f89"/></linearGradient><path fill="url(#bE)" d="M999.418 458.834l-10.349-5.118 45.258-26.315 3.42 3.897 6.813 1.577-45.142 25.959z"/><linearGradient id="bF" gradientUnits="userSpaceOnUse" x1="381.749" y1="668.232" x2="381.117" y2="666.12" gradientTransform="matrix(30.18 0 0 -48.506 -10485.278 32832.367)"><stop offset="0" stop-color="#188eff"/><stop offset="1" stop-color="#1b37d6"/></linearGradient><path fill="url(#bF)" d="M999.418 458.834l2.172 58.68 50.492-28.854-7.521-55.784-45.143 25.958z"/><path fill="none" stroke="#01E5FB" stroke-width="2.189" stroke-linecap="round" d="M1009.427 459.12v-8.127c0-9.804 5.285-18.862 13.855-23.743a9.3 9.3 0 014.6-1.217c5.108 0 9.248 4.11 9.248 9.184v8.126"/><linearGradient id="bG" gradientUnits="userSpaceOnUse" x1="291.812" y1="666.584" x2="291.79" y2="664.472" gradientTransform="matrix(4.088 0 0 -35.424 -194.83 24060.867)"><stop offset="0" stop-color="#188eff"/><stop offset="1" stop-color="#1b37d6"/></linearGradient><path fill="url(#bG)" d="M999.418 458.834l2.172 58.68-7.134-14.268 1.133-47.544 3.829 3.132z"/><linearGradient id="bH" gradientUnits="userSpaceOnUse" x1="346.597" y1="665.631" x2="346.709" y2="663.594" gradientTransform="matrix(8.818 0 0 -29.42 -2068.983 20028.059)"><stop offset="0" stop-color="#188eff"/><stop offset="1" stop-color="#1b37d6"/></linearGradient><path fill="url(#bH)" d="M988.956 453.716l-8.754 51.338 14.254-1.808 1.133-47.544-6.633-1.986z"/><linearGradient id="bI" gradientUnits="userSpaceOnUse" x1="361.768" y1="646.476" x2="360.136" y2="645.547" gradientTransform="matrix(12.306 0 0 -8.164 -3445.063 5783.04)"><stop offset="0" stop-color="#188eff"/><stop offset="1" stop-color="#1b37d6"/></linearGradient><path fill="url(#bI)" d="M1001.574 517.492l-21.473-12.454 14.354-1.792 7.119 14.246z"/><linearGradient id="bJ" gradientUnits="userSpaceOnUse" x1="385.138" y1="663.012" x2="383.626" y2="663.489" gradientTransform="matrix(42.511 0 0 -24.542 -15409.127 16752.701)"><stop offset="0" stop-color="#00c2fa"/><stop offset="1" stop-color="#0b78ff"/></linearGradient><path fill="url(#bJ)" d="M933.095 454.121l37.09 21.412-37.09 21.411-37.088-21.411 37.088-21.412z"/><path opacity=".7" fill="#141BAA" enable-background="new" d="M947.612 462.525l7.925 4.575-37.091 21.41-7.924-4.574 37.09-21.411z"/><linearGradient id="bK" gradientUnits="userSpaceOnUse" x1="384.155" y1="665.975" x2="384.737" y2="665.477" gradientTransform="matrix(42.511 0 0 -36.813 -15409.127 25004.959)"><stop offset="0" stop-color="#1a22be"/><stop offset="1" stop-color="#0b0f89"/></linearGradient><path fill="url(#bK)" d="M970.215 475.561v42.824l-37.088 21.412v-42.823l37.088-21.413zm-37.088 21.414v42.823l-37.09-21.412v-42.824l37.09 21.413z"/><path fill="#0B0F89" d="M918.423 488.475v12.265l-7.9-4.557v-12.267l7.9 4.559z"/><linearGradient id="bL" gradientUnits="userSpaceOnUse" x1="385.628" y1="662.507" x2="384.116" y2="662.984" gradientTransform="matrix(42.511 0 0 -24.542 -15381.096 16769.342)"><stop offset="0" stop-color="#00c2fa"/><stop offset="1" stop-color="#0b78ff"/></linearGradient><path fill="url(#bL)" d="M981.993 483.152l37.09 21.413-37.09 21.411-37.088-21.411 37.088-21.413z"/><path opacity=".7" fill="#141BAA" enable-background="new" d="M996.513 491.556l7.923 4.576-37.093 21.411-7.923-4.573 37.093-21.414z"/><linearGradient id="bM" gradientUnits="userSpaceOnUse" x1="384.646" y1="665.638" x2="385.227" y2="665.14" gradientTransform="matrix(42.511 0 0 -36.813 -15381.096 25021.615)"><stop offset="0" stop-color="#1a22be"/><stop offset="1" stop-color="#0b0f89"/></linearGradient><path fill="url(#bM)" d="M1019.112 504.594v42.823l-37.089 21.412v-42.824l37.089-21.411zm-37.088 21.411v42.824l-37.089-21.412v-42.823l37.089 21.411z"/><path fill="#0B0F89" d="M967.319 517.506v12.268l-7.899-4.559v-12.267l7.899 4.558z"/><linearGradient id="bN" gradientUnits="userSpaceOnUse" x1="344.555" y1="651.391" x2="344.752" y2="652.5" gradientTransform="matrix(7.99 0 0 -12.0269 -1709.353 8407.518)"><stop offset="0" stop-color="#131aa7"/><stop offset="1" stop-color="#090c62"/></linearGradient><path fill="url(#bN)" d="M1039.996 575.1c-1.367-.819-2.238-2.767-2.238-5.519 0-4.863 2.721-10.392 6.082-12.346 1.568-.914 2.999-.885 4.077-.099l3.783 2.203-1.876 4.794c-.514 4.409-2.998 8.975-5.984 10.714l-.25.137.571 2.551-4.166-2.431.001-.004z"/><linearGradient id="bO" gradientUnits="userSpaceOnUse" x1="337.041" y1="650.179" x2="337.757" y2="649.681" gradientTransform="matrix(6.969 0 0 -10.8816 -1304.236 7639.813)"><stop offset="0" stop-color="#1a22be"/><stop offset="1" stop-color="#0b0f89"/></linearGradient><path fill="url(#bO)" d="M1047.908 577.229c3.359-1.952 6.08-7.48 6.08-12.343 0-4.864-2.721-7.223-6.08-5.268-3.356 1.954-6.079 7.481-6.079 12.347s2.72 7.221 6.079 5.267v-.003z"/><path fill="none" stroke="#00BDFA" stroke-width=".657" d="M1047.622 573.571c1.96-1.142 3.61-4.49 3.61-7.415 0-2.724-1.325-3.874-3.036-2.879-1.962 1.142-3.61 4.49-3.61 7.417 0 2.725 1.325 3.872 3.036 2.877z"/><linearGradient id="bP" gradientUnits="userSpaceOnUse" x1="346.545" y1="652.043" x2="346.742" y2="653.152" gradientTransform="matrix(7.99 0 0 -12.0269 -1688.005 8397.002)"><stop offset="0" stop-color="#131aa7"/><stop offset="1" stop-color="#090c62"/></linearGradient><path fill="url(#bP)" d="M1077.247 556.745c-1.367-.82-2.239-2.767-2.239-5.519 0-4.862 2.723-10.391 6.081-12.346 1.571-.915 3.001-.884 4.078-.098l3.782 2.202-1.875 4.794c-.514 4.41-2.998 8.973-5.985 10.713a5.99 5.99 0 01-.248.137l.569 2.551-4.166-2.429v-.006h.003z"/><linearGradient id="bQ" gradientUnits="userSpaceOnUse" x1="339.322" y1="650.897" x2="340.038" y2="650.4" gradientTransform="matrix(6.969 0 0 -10.8816 -1282.888 7629.297)"><stop offset="0" stop-color="#1a22be"/><stop offset="1" stop-color="#0b0f89"/></linearGradient><path fill="url(#bQ)" d="M1085.16 558.877c3.357-1.956 6.078-7.483 6.078-12.347s-2.721-7.22-6.078-5.266c-3.358 1.955-6.082 7.482-6.082 12.348s2.724 7.221 6.082 5.265z"/><path fill="none" stroke="#00BDFA" stroke-width=".657" d="M1084.871 555.217c1.962-1.142 3.612-4.489 3.612-7.415 0-2.725-1.326-3.876-3.035-2.88-1.961 1.144-3.612 4.491-3.612 7.416 0 2.726 1.325 3.873 3.035 2.879z"/><linearGradient id="bR" gradientUnits="userSpaceOnUse" x1="389.755" y1="669.747" x2="388.825" y2="667.636" gradientTransform="matrix(64.646 0 0 -85.6105 -24058.078 57752.168)"><stop offset="0" stop-color="#188eff"/><stop offset="1" stop-color="#1b37d6"/></linearGradient><path fill="url(#bR)" d="M1133.757 562.327l-50.815 26.474a6.877 6.877 0 01-6.615-.142l-33.012-19.058c-2.611-1.508-2.53-5.303.145-6.697l51.198-26.669a6.856 6.856 0 016.61.143l28.62 16.521 16.415-80.632a12.99 12.99 0 00-6.325-13.894l-17.563-9.94a4.582 4.582 0 00-6.757 3.11l-4.856 24.83a3.825 3.825 0 01-4.567 2.895 3.824 3.824 0 01-2.933-4.359l4.858-24.835c1.297-6.624 7.72-10.944 14.346-9.647a12.2 12.2 0 013.674 1.36l17.562 9.938a20.633 20.633 0 0110.052 22.068l-17.44 85.655a3.83 3.83 0 01-2.597 2.879zm-80.593 4.138l26.62 15.368 44.65-23.261-26.621-15.37-44.652 23.26.003.003z"/><linearGradient id="bS" gradientUnits="userSpaceOnUse" x1="380.706" y1="666.024" x2="381.555" y2="665.527" gradientTransform="matrix(26.904 0 0 -38.567 -9137.553 26180.988)"><stop offset="0" stop-color="#1a22be"/><stop offset="1" stop-color="#0b0f89"/></linearGradient><path fill="url(#bS)" d="M1103.471 472.457l-7.475 46.598 41.48 20.699 5.466-45.601-39.471-21.696z"/><linearGradient id="bT" gradientUnits="userSpaceOnUse" x1="387.005" y1="663.929" x2="388.75" y2="663.765" gradientTransform="matrix(53.576 0 0 -30.76 -19687.924 20964.24)"><stop offset="0" stop-color="#1a22be"/><stop offset="1" stop-color="#0b0f89"/></linearGradient><path fill="url(#bT)" d="M1097.025 517.211l43.157 23.877-61.516 29.796-31.972-26.836 50.331-26.837z"/><linearGradient id="bU" gradientUnits="userSpaceOnUse" x1="385.496" y1="666.416" x2="387.224" y2="665.918" gradientTransform="matrix(43.662 0 0 -43.8807 -15763.195 29760.775)"><stop offset="0" stop-color="#1a22be"/><stop offset="1" stop-color="#0b0f89"/></linearGradient><path fill="url(#bU)" d="M1146.681 492.752l-8.141 46.808-55.529 29.146a5.349 5.349 0 01-7.772-3.926l-4.746-30.956 76.188-41.073v.001zm-49.857 34.532c-1.652.859-3.318 3.07-3.724 4.933l-5.851 26.987c-.405 1.861.607 2.675 2.261 1.812 1.65-.859 3.316-3.069 3.723-4.933l5.852-26.986c.404-1.862-.608-2.674-2.261-1.815v.002zm16.313-8.507c-1.653.861-3.319 3.072-3.726 4.935l-5.852 26.988c-.403 1.861.608 2.672 2.262 1.812s3.318-3.071 3.724-4.934l5.854-26.987c.401-1.862-.611-2.672-2.262-1.814zm16.063-8.376c-1.652.862-3.321 3.073-3.725 4.935l-5.852 26.987c-.406 1.861.606 2.675 2.26 1.813 1.652-.862 3.321-3.069 3.723-4.933l5.854-26.986c.403-1.864-.608-2.676-2.26-1.816z"/><linearGradient id="bV" gradientUnits="userSpaceOnUse" x1="387.148" y1="665.61" x2="385.757" y2="667.041" gradientTransform="matrix(43.662 0 0 -45.525 -15761.885 30865.816)"><stop offset="0" stop-color="#00c2fa"/><stop offset="1" stop-color="#0b78ff"/></linearGradient><path fill="url(#bV)" d="M1148.971 494.281l-8.136 46.805-62.169 32.63-5.881-38.365 76.186-41.07zm-49.854 34.531c-1.652.859-3.321 3.071-3.723 4.932l-5.853 26.986c-.405 1.863.605 2.675 2.259 1.814 1.652-.86 3.321-3.07 3.723-4.934l5.854-26.988c.405-1.86-.605-2.673-2.26-1.813v.003zm16.312-8.506c-1.653.862-3.319 3.072-3.724 4.933l-5.854 26.988c-.403 1.863.608 2.674 2.26 1.813 1.653-.859 3.32-3.071 3.726-4.933l5.852-26.988c.405-1.863-.607-2.674-2.26-1.812v-.001zm16.061-8.376c-1.652.861-3.319 3.073-3.724 4.935l-5.853 26.986c-.401 1.863.61 2.675 2.263 1.813 1.651-.862 3.318-3.069 3.723-4.935l5.854-26.986c.403-1.861-.608-2.676-2.263-1.813z"/><linearGradient id="bW" gradientUnits="userSpaceOnUse" x1="384.659" y1="666.615" x2="386.217" y2="666.118" gradientTransform="matrix(41.368 0 0 -43.78 -14881.462 29680.64)"><stop offset="0" stop-color="#1a22be"/><stop offset="1" stop-color="#0b0f89"/></linearGradient><path fill="url(#bW)" d="M1102.126 470.879l-8.139 46.042-57.822 30.349-6.223-38.202 72.184-38.189zm-49.855 33.766c-1.65.861-3.317 3.07-3.723 4.933l-5.853 26.988c-.404 1.862.609 2.675 2.262 1.813 1.652-.861 3.32-3.069 3.724-4.934l5.851-26.987c.403-1.863-.609-2.675-2.261-1.813zm16.312-8.504c-1.653.863-3.321 3.07-3.723 4.933l-5.854 26.989c-.404 1.863.608 2.676 2.26 1.814 1.653-.864 3.32-3.071 3.723-4.935l5.854-26.987c.404-1.864-.607-2.676-2.26-1.814zm16.063-8.375c-1.653.861-3.32 3.071-3.724 4.933l-5.853 26.988c-.404 1.865.606 2.675 2.261 1.815 1.652-.862 3.319-3.071 3.723-4.936l5.854-26.986c.402-1.862-.61-2.676-2.261-1.814z"/><linearGradient id="bX" gradientUnits="userSpaceOnUse" x1="386.699" y1="665.683" x2="385.221" y2="667.114" gradientTransform="matrix(43.38 0 0 -43.8684 -15676.26 29740.107)"><stop offset="0" stop-color="#00c2fa"/><stop offset="1" stop-color="#0b78ff"/></linearGradient><path fill="url(#bX)" d="M1103.779 471.143l-6.658 46.068-56.508 29.859a5.348 5.348 0 01-7.785-3.92l-4.743-30.938 75.693-41.067v-.002zm-49.362 34.531c-1.652.863-3.319 3.071-3.724 4.935l-5.853 26.985c-.401 1.865.61 2.676 2.262 1.815 1.652-.862 3.319-3.07 3.725-4.935l5.85-26.985c.406-1.86-.606-2.675-2.26-1.813v-.002zm16.312-8.504c-1.65.861-3.319 3.071-3.723 4.934l-5.853 26.988c-.405 1.864.607 2.675 2.259 1.814 1.653-.862 3.32-3.071 3.724-4.936l5.853-26.985c.405-1.861-.606-2.676-2.26-1.813v-.002zm16.062-8.375c-1.653.862-3.318 3.069-3.724 4.935l-5.851 26.987c-.406 1.861.607 2.673 2.26 1.813 1.651-.863 3.318-3.071 3.724-4.936l5.852-26.988c.405-1.86-.609-2.672-2.261-1.811z"/><linearGradient id="bY" gradientUnits="userSpaceOnUse" x1="381.88" y1="664.414" x2="380.936" y2="665.845" gradientTransform="matrix(29.342 0 0 -37.133 -10138.61 25238.96)"><stop offset="0" stop-color="#00c2fa"/><stop offset="1" stop-color="#0b78ff"/></linearGradient><path fill="url(#bY)" d="M1027.467 508.922l5.891 38.718 45.309 26.076-5.881-38.365-45.319-26.429z"/><linearGradient id="bZ" gradientUnits="userSpaceOnUse" x1="388.616" y1="665.841" x2="390.361" y2="665.688" gradientTransform="matrix(69.633 0 0 -38.519 -26033.416 26146.316)"><stop offset="0" stop-color="#1a22be"/><stop offset="1" stop-color="#0b0f89"/></linearGradient><path fill="url(#bZ)" d="M1103.591 472.548l-68.299 36.522 37.564 21.941 68.269-36.955-37.534-21.508zm45.38 21.605l-76.186 41.241-45.318-26.471 76.188-40.741 45.316 25.971z"/><linearGradient id="ca" gradientUnits="userSpaceOnUse" x1="346.993" y1="650.605" x2="347.189" y2="651.713" gradientTransform="matrix(7.99 0 0 -12.0269 -1683.208 8420.22)"><stop offset="0" stop-color="#131aa7"/><stop offset="1" stop-color="#090c62"/></linearGradient><path fill="url(#ca)" d="M1085.622 597.256c-1.367-.819-2.239-2.768-2.239-5.52 0-4.863 2.723-10.392 6.081-12.346 1.571-.914 3.001-.884 4.078-.099l3.782 2.203-1.875 4.793c-.513 4.41-2.997 8.974-5.985 10.713-.082.048-.164.096-.247.138l.57 2.55-4.167-2.428v-.005h.002z"/><linearGradient id="cb" gradientUnits="userSpaceOnUse" x1="339.837" y1="649.309" x2="340.553" y2="648.812" gradientTransform="matrix(6.969 0 0 -10.8816 -1278.088 7652.516)"><stop offset="0" stop-color="#1a22be"/><stop offset="1" stop-color="#0b0f89"/></linearGradient><path fill="url(#cb)" d="M1093.535 599.387c3.357-1.956 6.08-7.483 6.08-12.347s-2.723-7.22-6.08-5.265c-3.356 1.954-6.082 7.482-6.082 12.347 0 4.865 2.723 7.22 6.082 5.265z"/><path fill="none" stroke="#00BDFA" stroke-width=".657" d="M1093.247 595.727c1.961-1.143 3.612-4.49 3.612-7.416 0-2.725-1.326-3.873-3.036-2.88-1.962 1.143-3.612 4.492-3.612 7.416 0 2.727 1.327 3.875 3.036 2.88z"/><linearGradient id="cc" gradientUnits="userSpaceOnUse" x1="348.983" y1="651.257" x2="349.179" y2="652.364" gradientTransform="matrix(7.99 0 0 -12.0269 -1661.857 8409.697)"><stop offset="0" stop-color="#131aa7"/><stop offset="1" stop-color="#090c62"/></linearGradient><path fill="url(#cc)" d="M1122.872 578.899c-1.365-.819-2.237-2.768-2.237-5.519 0-4.861 2.721-10.389 6.08-12.345 1.57-.914 3.002-.884 4.078-.1l3.782 2.204-1.874 4.794c-.513 4.409-3 8.974-5.986 10.713a7.4 7.4 0 01-.247.137l.569 2.55-4.165-2.429v-.005z"/><linearGradient id="cd" gradientUnits="userSpaceOnUse" x1="342.118" y1="650.029" x2="342.834" y2="649.532" gradientTransform="matrix(6.969 0 0 -10.8816 -1256.74 7641.992)"><stop offset="0" stop-color="#1a22be"/><stop offset="1" stop-color="#0b0f89"/></linearGradient><path fill="url(#cd)" d="M1130.785 581.032c3.356-1.954 6.08-7.482 6.08-12.346s-2.724-7.221-6.08-5.268c-3.357 1.954-6.08 7.482-6.08 12.347 0 4.866 2.722 7.223 6.08 5.267z"/><path fill="none" stroke="#00BDFA" stroke-width=".657" d="M1130.496 577.371c1.963-1.14 3.612-4.488 3.612-7.415 0-2.724-1.327-3.873-3.035-2.879-1.961 1.144-3.61 4.493-3.61 7.416 0 2.725 1.324 3.874 3.035 2.878h-.002z"/></svg>