<svg xmlns="http://www.w3.org/2000/svg" width="520.339" height="491.102"><path opacity=".5" fill="#C4D9E8" d="M192.525 338.166c-14.211 8.204-37.248 8.204-51.457 0-14.21-8.205-14.21-21.504-.001-29.708 14.209-8.204 37.247-8.204 51.456 0 14.211 8.204 14.211 21.505.002 29.708zm306.75 117.014c-20.004 11.549-52.436 11.549-72.441-.002-20.003-11.548-20.005-30.273 0-41.823 20.004-11.55 52.437-11.548 72.441.002 20.004 11.547 20.005 30.274 0 41.823z"/><path fill="#6614CF" d="M145.93 65.089s.949 19.566 2.438 32.716c1.489 13.149 33.157-10.101 33.157-10.101V72.733l-35.595-7.644z"/><path fill="#173D7A" d="M162.797 308.527c.476 1.189 8.68 11.178 16.886 13.674 3.566 1.086 5.966 1.229 7.537 1.042 1.578-.188 2.553-1.813 2.021-3.312-1.411-3.975-5.459-12.254-15.741-17.352-13.914-6.895-10.703 5.948-10.703 5.948zm-2.735 3.837s3.091 7.253 4.042 13.319c.581 3.698-1.449 8.504-3.121 11.69-1.038 1.976-3.668 2.421-5.321.921-2.682-2.435-6.096-6.66-6.66-12.73-.951-10.228 0-12.012 0-12.012l11.06-1.188z"/><path fill="#FDD762" d="M140.295 188.756s-1.07 12.901 0 27.171 4.902 81.006 5.616 97.06c0 0-.357 4.861 9.052 3.791s8.652-6.467 8.652-6.467 13.214-.178 13.631-7.967c.416-7.791 13.533-93.014 13.533-123.654l-50.484 10.066z"/><path fill="#FFC2B0" d="M195.669 122.053l6.474 10.027 22.254 26.881s-.765 2.494-3.535 3.147c-2.165.51-20.883-17.348-28.966-25.184a6.21 6.21 0 01-.854-7.889l4.627-6.982z"/><path fill="#8A2AE3" d="M183.038 80.894s10.283-.267 13.864 14.597c3.581 14.864 6.381 33.475 3.266 35.021-9.346 4.643-15.262-.79-15.262-.79l-1.868-48.828z"/><path fill="#983BE9" d="M186.115 81.525a8.412 8.412 0 00-5.551-.305c-8.762 2.516-41.706 12.185-47.136 16.826-6.273 5.362 9.408 35.493 9.182 45.372-.227 9.878-1.339 21.524-2.212 32.264-.873 10.739-2.055 16.626 6.729 21.192 8.784 4.565 23.782 4.777 35.007-3.777 11.228-8.554 9.191-14.407 8.724-20.618-.467-6.209-4.291-33.068-3.959-40.692 0 0 3.955-2.915 6.887-7.912 2.93-4.998-2.246-14.184-4.395-20.156-2.149-5.972 1.211-12.801.546-17.674-.343-2.508-1.944-3.736-3.822-4.52z"/><ellipse transform="rotate(-7.297 163.221 93.394)" fill="#FFF" cx="163.206" cy="93.383" rx="12.479" ry="9.906"/><ellipse transform="rotate(-7.297 163.183 93.356)" fill="#FFC2B0" cx="163.206" cy="93.383" rx="8.918" ry="7.08"/><path fill="#FFC2B0" d="M167.198 79.516s-5.948-4.892-7.116-2.415c-1.168 2.478-2.132 13.108-2.132 13.108l11.812 3.173-1.793-10.771c-.001.001 2.364-2.004-.771-3.095z"/><circle fill="#FFC2B0" cx="168.052" cy="66.826" r="17.634"/><path fill="#EA9C92" d="M159.259 80.184c-.105.554-.205 1.15-.301 1.758 1.187 6.134 10.366 8.821 10.366 8.821l-1.356-8.151s1.113-.944.798-1.889c-3.628-1.146-8.2-2.16-9.507-.539z"/><circle fill="#FFC2B0" cx="168.052" cy="66.826" r="17.634"/><path fill="#FFC2B0" d="M124.604 141.469l1.975 47.189 6.899.711 4.489-42.479z"/><path fill="#8A2AE3" d="M147.275 137.525c-2.283-10.076-6.792-32.338-6.792-32.338l-1.928 22.143c2.225 6.567 4.134 12.594 4.055 16.088-.133 5.798-.573 12.207-1.09 18.683l.001.02c0-.001 8.039-14.519 5.754-24.596z"/><path fill="#B45EF4" d="M134.745 97.079s-5.515 2.108-8.638 19.052c-3.122 16.945-5.457 33.917.109 36.104 5.565 2.188 10.216 3.833 11.853-.7 1.636-4.532 2.651-26.369 2.856-34.223.205-7.854.505-18.681-6.18-20.233z"/><path fill="#FFC2B0" d="M222.747 156.997s2.987 1.098 5.146 3.45c1.771 1.929 2.741 3.566 3.517 4.721 1.719 2.563 3.166 8.104 2.119 8.793-1.048.69-7.039-9.276-8.006-6.958-.967 2.319.008 4.461-1.23 4.497-1.239.035-5.546-10.019-8.933-13.135-3.386-3.118 7.387-1.368 7.387-1.368z"/><path fill="#D8892B" d="M163.615 310.311s1.638-.023 3.775-.391l2.587-103.738-6.362 104.129z"/><path fill="#FFC2B0" d="M126.633 188.263s-1.823 11.014-1.549 14.543c.273 3.527 2.163 9.347 3.595 9.223 1.433-.122.047-14.186 2.564-12.785 2.517 1.401 2.781 3.804 3.922 2.956 1.139-.849-1.988-12.869-1.154-18.083.835-5.214-7.378 4.146-7.378 4.146z"/><path fill="#EA9C92" d="M174.824 68.365c8.847 3.142 10.568 1.226 10.652 1.123.081-.533.146-1.073.179-1.622a17.576 17.576 0 00-.589-5.635l-22.95-3.098c.001 0 3.625 6.006 12.708 9.232z"/><path fill="#6614CF" d="M186.29 50.297c-2.084-1.787-9.606-10.623-23.083-8.537-8.423 1.303-15.523 7.049-17.097 20.155-1.063 8.831 2.179 17.53 8.15 23.96.324-.15.659-.288.958-.485 3.375-2.222 3.738-3.443 3.738-3.454l.746-6.688c-.024-.949-.734-1.794-1.682-1.854-.732-.046-1.622-.397-2.469-1.505-1.936-2.531-1.042-6.478 2.829-6.626 2.024-.077 2.808-1.172 3.093-2.2a1.584 1.584 0 012.066-1.075c4.405 1.594 15.258 5.03 22.242 3.051 8.934-2.53 2.594-12.955.509-14.742z"/><path fill="#FFF" d="M176.241 76.331l5.395-1.481s-2.575 4.05-6.334 5.083c-3.76 1.033-4.345-2.149-4.345-2.149l5.284-1.453z"/><path opacity=".5" fill="#C4D9E8" d="M342.055 449.714l-122.107-69.625c-4.465-2.578-3.905-7.082 1.251-10.06l70.258-40.562c5.155-2.978 12.956-3.302 17.421-.724l122.107 69.627c4.464 2.578 3.904 7.082-1.251 10.059l-70.258 40.563c-5.157 2.977-12.957 3.301-17.421.722z"/><path fill="#396CAA" d="M441.87 374.934V89.87L328.544 60.209l-20.873-12.051c-4.79-2.766-13.158-2.419-18.69.774l-19.475 11.244-60.445-.035 17.898 275.189c-.136 1.872.908 3.679 3.209 5.007l113.093 85.334c4.79 2.766 13.158 2.419 18.69-.775l75.369-43.514c3.191-1.842 4.731-4.228 4.55-6.448z"/><path fill="#D4ECFF" d="M298.998 46.305c-3.506.085-7.143.968-10.018 2.627l-19.475 11.244-60.445-.035v285.831c-.137 1.871.907 3.679 3.21 5.006l130.99 74.693c2.303 1.329 5.431 1.932 8.674 1.854l1.35-287.617-54.286-93.603z"/><path fill="#5793CE" d="M344.464 426.261c4.132 1.769 10.108 1.671 14.939-.171V136.509h-14.939v289.752z"/><path fill="#D4ECFF" d="M343.261 139.942L212.271 65.25c-4.79-2.766-4.191-7.597 1.341-10.791l75.369-43.514c5.532-3.194 13.9-3.541 18.69-.775l130.99 74.692c4.79 2.766 4.19 7.597-1.341 10.791l-75.369 43.514c-5.532 3.194-13.9 3.541-18.69.775z"/><path fill="#FAFDFF" d="M437.32 90.353l-75.369 43.515c-5.532 3.194-13.9 3.542-18.69.774L212.271 59.95c-1.069-.617-1.854-1.34-2.392-2.121-1.646 2.648-.898 5.522 2.392 7.421l130.99 74.692c4.79 2.766 13.158 2.419 18.69-.775l75.369-43.513c4.298-2.482 5.604-5.949 3.732-8.671-.75 1.208-1.999 2.37-3.732 3.37z"/><path fill="#173D7A" d="M346.967 109.67l-87.211-50.553c-2.242-1.295-1.96-3.555.628-5.05l35.268-20.362c2.59-1.495 6.506-1.657 8.747-.362l87.21 50.553c2.243 1.294 1.962 3.555-.627 5.049l-35.269 20.362c-2.589 1.496-6.505 1.658-8.746.363z"/><path d="M299.884 61.388l-5.054-2.917c-.311-.18-.271-.492.088-.7l4.879-2.817c.357-.207.9-.229 1.211-.051l5.053 2.918c.311.179.271.491-.087.699l-4.879 2.817c-.36.207-.901.23-1.211.051zm16.883 9.707l-5.054-2.917c-.31-.179-.271-.493.088-.699l4.879-2.818c.359-.207.9-.229 1.211-.05l5.053 2.918c.311.179.271.492-.087.698l-4.879 2.817c-.358.208-.901.23-1.211.051zm16.882 9.708l-5.054-2.917c-.31-.179-.271-.493.088-.699l4.88-2.817c.358-.207.899-.229 1.21-.05l5.053 2.917c.311.179.272.492-.087.699l-4.879 2.817c-.357.207-.9.229-1.211.05zm16.885 9.708l-5.055-2.918c-.311-.179-.271-.491.087-.698l4.881-2.817c.357-.207.898-.229 1.209-.05l5.053 2.917c.311.179.272.492-.087.699l-4.879 2.817c-.357.207-.9.23-1.209.05z" fill="#D4ECFF"/><path fill="#5793CE" d="M259.756 59.117l.103.06c.171-.122.328-.248.525-.361l35.268-20.363c2.59-1.495 6.506-1.657 8.747-.362l87.107 50.494c2.065-1.479 2.174-3.493.103-4.688l-87.21-50.553c-2.241-1.294-6.157-1.132-8.747.362l-35.268 20.362c-2.588 1.495-2.87 3.754-.628 5.049zm69.033 137.302L232 140.538c-2.79-1.611-5.053-5.933-5.053-9.654v-17.731c0-3.721 2.263-5.431 5.053-3.819l96.789 55.881c2.79 1.612 5.053 5.933 5.053 9.654V192.6c0 3.721-2.263 5.431-5.053 3.819z"/><path d="M321.468 180.744l-4.548-2.626c-.607-.351-1.102-1.292-1.102-2.104v-4.858c0-.812.494-1.184 1.102-.833l4.548 2.627c.608.351 1.103 1.292 1.103 2.104v4.858c-.001.811-.495 1.184-1.103.832zm-15.208-8.781l-4.549-2.626c-.608-.351-1.102-1.293-1.102-2.105v-4.858c0-.812.493-1.184 1.102-.833l4.549 2.626c.608.35 1.101 1.293 1.101 2.104v4.859c-.001.812-.493 1.184-1.101.833z" fill="#173D7A"/><path fill="#5793CE" d="M328.789 260.488L232 204.606c-2.79-1.61-5.053-5.933-5.053-9.653V177.22c0-3.72 2.263-5.429 5.053-3.819l96.789 55.882c2.79 1.611 5.053 5.933 5.053 9.653v17.732c0 3.721-2.263 5.432-5.053 3.82z"/><path fill="#173D7A" d="M321.468 244.812l-4.548-2.626c-.607-.351-1.102-1.293-1.102-2.104v-4.859c0-.811.494-1.184 1.102-.832l4.548 2.625c.608.352 1.103 1.293 1.103 2.104v4.858c-.001.813-.495 1.185-1.103.834z"/><path fill="#D4ECFF" d="M306.26 236.031l-4.549-2.626c-.608-.352-1.102-1.293-1.102-2.104v-4.859c0-.811.493-1.184 1.102-.832l4.549 2.625c.608.352 1.101 1.293 1.101 2.104v4.858c-.001.813-.493 1.185-1.101.834z"/><path fill="#5793CE" d="M328.789 324.555L232 268.674c-2.79-1.611-5.053-5.932-5.053-9.654v-17.731c0-3.721 2.263-5.431 5.053-3.819l96.789 55.88c2.79 1.611 5.053 5.935 5.053 9.654v17.731c0 3.722-2.263 5.431-5.053 3.82z"/><path fill="#D4ECFF" d="M321.468 308.88l-4.548-2.627c-.607-.351-1.102-1.292-1.102-2.104v-4.858c0-.811.494-1.184 1.102-.832l4.548 2.626c.608.353 1.103 1.294 1.103 2.104v4.859c-.001.81-.495 1.183-1.103.832z"/><path fill="#173D7A" d="M306.26 300.1l-4.549-2.626c-.608-.352-1.102-1.294-1.102-2.105v-4.857c0-.812.493-1.184 1.102-.833l4.549 2.627c.608.35 1.101 1.291 1.101 2.104v4.857c-.001.811-.493 1.184-1.101.833z"/><path fill="#5793CE" d="M328.789 388.623L232 332.741c-2.79-1.61-5.053-5.933-5.053-9.652v-17.731c0-3.722 2.263-5.432 5.053-3.82l96.789 55.882c2.79 1.61 5.053 5.933 5.053 9.652v17.733c0 3.718-2.263 5.428-5.053 3.818z"/><path d="M321.468 372.949l-4.548-2.627c-.607-.351-1.102-1.294-1.102-2.104v-4.858c0-.811.494-1.184 1.102-.832l4.548 2.625c.608.352 1.103 1.293 1.103 2.104v4.859c-.001.81-.495 1.183-1.103.833zm-15.208-8.781l-4.549-2.627c-.608-.352-1.102-1.294-1.102-2.104v-4.859c0-.811.493-1.184 1.102-.832l4.549 2.625c.608.352 1.101 1.294 1.101 2.105v4.857c-.001.813-.493 1.185-1.101.835z" fill="#D4ECFF"/><path d="M376.667 196.419l49.585-28.39c2.79-1.611 5.053-5.933 5.053-9.653v-17.732c0-3.72-2.263-5.43-5.053-3.819l-49.585 28.39c-2.79 1.612-5.053 5.933-5.053 9.654V192.6c0 3.721 2.263 5.431 5.053 3.819zm0 64.069l49.585-28.391c2.79-1.611 5.053-5.933 5.053-9.654v-17.731c0-3.722-2.263-5.431-5.053-3.82l-49.585 28.39c-2.79 1.611-5.053 5.933-5.053 9.653v17.732c0 3.722 2.263 5.433 5.053 3.821zm0 64.067l49.585-28.39c2.79-1.61 5.053-5.933 5.053-9.652V268.78c0-3.72-2.263-5.43-5.053-3.819l-49.585 28.39c-2.79 1.611-5.053 5.935-5.053 9.654v17.731c0 3.721 2.263 5.43 5.053 3.819zm0 64.068l49.585-28.39c2.79-1.611 5.053-5.934 5.053-9.653v-17.732c0-3.721-2.263-5.431-5.053-3.818l-49.585 28.39c-2.79 1.61-5.053 5.933-5.053 9.652v17.733c0 3.718 2.263 5.428 5.053 3.818z" fill="#173D7A"/><path opacity=".5" fill="#C4D9E8" d="M61.99 436.354l-39.047-22.543c-2.397-1.384-2.096-3.801.671-5.397l37.704-21.769c2.767-1.598 6.953-1.771 9.35-.388l39.047 22.544c2.396 1.383 2.095 3.801-.672 5.398L71.34 435.967c-2.767 1.597-6.954 1.771-9.35.387z"/><path fill="#721BD5" d="M122.667 391.629v-16.87l-37.83-.021-13.076-7.548c-3.001-1.734-8.243-1.516-11.708.484l-12.2 7.043-37.863-.021v17.351c-.086 1.173.568 2.305 2.01 3.138l48.895 28.229c3.001 1.732 8.243 1.516 11.708-.484l47.212-27.26c2-1.154 2.964-2.649 2.852-4.041z"/><path fill="#983BE9" d="M66.329 366.027c-2.196.053-4.476.606-6.276 1.646l-12.2 7.043-37.863-.02v17.351c-.086 1.173.568 2.305 2.01 3.138l48.895 28.229c1.442.833 3.402 1.209 5.434 1.16v-58.547z"/><path fill="#B45EF4" d="M14.275 374.699l-4.285-.003v17.351c-.086 1.173.568 2.305 2.01 3.138l2.274 1.312v-21.798z"/><path fill="#7E23DC" d="M61.649 423.782c2.588 1.11 6.332 1.048 9.359-.106v-19.701h-9.359v19.807z"/><path fill="#8A2AE3" d="M60.896 406.125L12 377.895c-3.001-1.732-2.625-4.758.84-6.758l47.212-27.259c3.465-2.001 8.707-2.218 11.708-.485l48.895 28.23c3.001 1.732 2.625 4.758-.84 6.76L72.604 405.64c-3.465 2.001-8.708 2.217-11.708.485z"/><path fill="#6614CF" d="M61.776 401.043l-40.975-23.656c-2.515-1.451-2.2-3.987.705-5.663l39.565-22.843c2.903-1.678 7.296-1.859 9.811-.406l40.974 23.656c2.516 1.452 2.2 3.987-.704 5.664l-39.564 22.844c-2.905 1.675-7.297 1.857-9.812.404z"/><path d="M104.683 396.082c0 1.26-.884 2.79-1.975 3.42-1.091.631-1.975.119-1.975-1.141 0-1.258.884-2.79 1.975-3.42 1.091-.628 1.975-.117 1.975 1.141zm6.354-3.668c0 1.26-.885 2.79-1.975 3.42-1.091.631-1.976.119-1.976-1.141 0-1.258.884-2.79 1.976-3.42 1.09-.629 1.975-.119 1.975 1.141zm6.355-3.67c0 1.26-.885 2.792-1.976 3.422s-1.975.119-1.975-1.141.884-2.791 1.975-3.42c1.091-.63 1.976-.119 1.976 1.139z" fill="#FF2C9C"/><path fill="#721BD5" d="M122.667 364.269v-16.87l-37.83-.021-13.076-7.549c-3.001-1.732-8.243-1.516-11.708.484l-12.2 7.044-37.863-.022v17.351c-.086 1.174.568 2.305 2.01 3.138l48.895 28.229c3.001 1.732 8.243 1.516 11.708-.486l47.212-27.257c2-1.155 2.964-2.65 2.852-4.041z"/><path fill="#983BE9" d="M66.329 338.668c-2.196.051-4.476.605-6.276 1.645l-12.2 7.044-37.863-.022v17.351c-.086 1.174.568 2.305 2.01 3.138l48.895 28.229c1.442.832 3.402 1.209 5.434 1.16v-58.545z"/><path fill="#B45EF4" d="M14.275 347.338l-4.285-.003v17.351c-.086 1.174.568 2.305 2.01 3.138l2.274 1.313v-21.799z"/><path fill="#7E23DC" d="M61.649 396.422c2.588 1.107 6.332 1.047 9.359-.107v-19.701h-9.359v19.808z"/><path fill="#8A2AE3" d="M60.896 378.765L12 350.535c-3.001-1.734-2.625-4.76.84-6.76l47.212-27.258c3.465-2.002 8.707-2.219 11.708-.485l48.895 28.229c3.001 1.732 2.625 4.758-.84 6.76l-47.212 27.257c-3.464 2.001-8.707 2.219-11.707.487z"/><path fill="#6614CF" d="M61.776 373.684l-40.975-23.658c-2.515-1.45-2.2-3.986.705-5.664l39.565-22.843c2.903-1.676 7.296-1.858 9.811-.405l40.974 23.656c2.516 1.451 2.2 3.989-.704 5.665l-39.564 22.843c-2.905 1.675-7.297 1.857-9.812.406z"/><path d="M104.683 368.721c0 1.26-.884 2.792-1.975 3.42-1.091.631-1.975.119-1.975-1.139 0-1.26.884-2.791 1.975-3.422 1.091-.63 1.975-.119 1.975 1.141zm6.354-3.668c0 1.258-.885 2.791-1.975 3.42-1.091.631-1.976.119-1.976-1.141s.884-2.79 1.976-3.42c1.09-.63 1.975-.119 1.975 1.141zm6.355-3.668c0 1.258-.885 2.791-1.976 3.419-1.091.63-1.975.12-1.975-1.14s.884-2.79 1.975-3.42 1.976-.119 1.976 1.141z" fill="#FF2C9C"/><path fill="#721BD5" d="M122.667 336.908v-16.871l-37.83-.021-13.076-7.549c-3.001-1.734-8.243-1.516-11.708.484l-12.2 7.045-37.863-.021v17.35c-.086 1.174.568 2.305 2.01 3.139l48.895 28.229c3.001 1.732 8.243 1.516 11.708-.484l47.212-27.258c2-1.156 2.964-2.652 2.852-4.043z"/><path fill="#983BE9" d="M66.329 311.307c-2.196.053-4.476.605-6.276 1.645l-12.2 7.045-37.863-.022v17.35c-.086 1.174.568 2.305 2.01 3.139l48.895 28.229c1.442.832 3.402 1.21 5.434 1.161v-58.547z"/><path fill="#B45EF4" d="M14.275 319.977l-4.285-.002v17.35c-.086 1.174.568 2.305 2.01 3.139l2.274 1.312v-21.799z"/><path fill="#7E23DC" d="M61.649 369.061c2.588 1.109 6.332 1.047 9.359-.107v-19.699h-9.359v19.806z"/><path fill="#8A2AE3" d="M60.896 351.404L12 323.173c-3.001-1.731-2.625-4.759.84-6.759l47.212-27.258c3.465-2 8.707-2.219 11.708-.486l48.895 28.23c3.001 1.732 2.625 4.759-.84 6.76l-47.212 27.258c-3.464 2.001-8.707 2.219-11.707.486z"/><path fill="#B45EF4" d="M119.816 320.34l-47.212 27.258c-3.465 2.002-8.708 2.219-11.708.485L12 319.854c-.669-.387-1.161-.84-1.498-1.328-1.031 1.658-.563 3.458 1.498 4.647l48.895 28.231c3.001 1.732 8.243 1.515 11.708-.486l47.212-27.258c2.692-1.555 3.51-3.726 2.338-5.432-.47.758-1.251 1.485-2.337 2.112z"/><path d="M104.683 341.359c0 1.26-.884 2.791-1.975 3.421s-1.975.119-1.975-1.14c0-1.26.884-2.791 1.975-3.42 1.091-.629 1.975-.118 1.975 1.139zm6.354-3.668c0 1.26-.885 2.791-1.975 3.421-1.091.63-1.976.119-1.976-1.141 0-1.259.884-2.79 1.976-3.421 1.09-.628 1.975-.118 1.975 1.141zm6.355-3.669c0 1.26-.885 2.792-1.976 3.422s-1.975.119-1.975-1.141c0-1.261.884-2.79 1.975-3.421 1.091-.628 1.976-.118 1.976 1.14z" fill="#FF2C9C"/><path fill="#6614CF" d="M63.787 334.652l-22.881-13.211c-1.404-.811-1.228-2.226.394-3.163l22.093-12.755c1.622-.938 4.075-1.037 5.479-.228l22.88 13.21c1.404.811 1.229 2.227-.393 3.164l-22.094 12.754c-1.621.938-4.074 1.04-5.478.229z"/><path fill="#FF2C9C" d="M65.978 323.592l-3.166-1.828c-.194-.112-.17-.309.055-.438l3.056-1.765c.224-.13.563-.144.759-.03l3.165 1.826c.194.111.17.308-.054.438l-3.056 1.765c-.226.129-.566.143-.759.032z"/><path fill="#6614CF" d="M80.003 338.09l-3.166-1.829c-.194-.112-.169-.308.054-.438l3.057-1.765c.225-.129.564-.143.758-.031l3.166 1.828c.194.111.169.308-.054.438l-3.058 1.764c-.223.131-.563.144-.757.033zm6.915-4.033l-3.166-1.828c-.194-.111-.17-.307.055-.438l3.056-1.764c.224-.131.563-.145.758-.032l3.165 1.829c.194.111.17.307-.054.437l-3.056 1.765c-.224.129-.564.143-.758.031z"/><path fill="#B45EF4" d="M93.833 330.025l-3.165-1.828c-.194-.111-.17-.308.054-.438l3.057-1.765c.225-.13.563-.144.758-.032l3.166 1.827c.194.113.17.31-.055.438l-3.056 1.766c-.225.13-.564.144-.759.032zm-52.927-8.584l.065.037c.106-.076.206-.154.329-.227l22.093-12.754c1.622-.936 4.075-1.037 5.479-.227l22.816 13.172c1.294-.926 1.362-2.188.064-2.938l-22.88-13.21c-1.404-.81-3.857-.71-5.479.228L41.3 318.278c-1.622.938-1.799 2.353-.394 3.163z"/><path fill="#6614CF" d="M46.283 382.33l-19.795-11.429c-1.22-.705-2.209-2.595-2.209-4.222 0-1.627.989-2.375 2.209-1.672l19.795 11.43c1.221.705 2.21 2.595 2.21 4.222 0 1.627-.99 2.376-2.21 1.671z"/><path fill="#B45EF4" d="M48.053 381.24l-19.795-11.43c-1.22-.705-2.209-2.594-2.209-4.221 0-.275.037-.514.089-.736-1.053-.383-1.86.358-1.86 1.826 0 1.627.989 3.517 2.209 4.222l19.795 11.429c1.015.586 1.861.158 2.12-.936a2.014 2.014 0 01-.349-.154z"/><path fill="#173D7A" d="M492.269 419.246c3.468 1.481 5.651 5.35 5.362 9.506-.137 1.959-.373 3.787-.781 4.645-1.104 2.318-4.722 5.498-10.495 3.215-5.773-2.281-18.597-14.329-19.077-22.215-.893-14.65 15.857.949 24.991 4.849zm-33.925 24.23s1.385 8.446.712 9.995c-.673 1.547-4.69 4.852-10.628 4.137-5.936-.714-23.016-6.604-26.819-17.859-5.897-17.45 32.969 1.309 32.969 1.309l3.766 2.418z"/><path fill="#FDD762" d="M441.654 308.451l-1.322 131.854c.14 4.586 3.144 8.459 7.184 9.141.498.085 1.033.152 1.605.203 4.091.357 6.474-1.396 7.832-3.24 1.102-1.494 1.681-3.387 1.764-5.324l1.684-56.286 8.402-50.326 11.627 89.071c.187 2.409 1.339 4.637 3.193 5.864 1.283.849 3.021 1.507 5.302 1.438 3.328-.1 5.639-1.881 7.048-3.471 1.118-1.261 1.707-2.991 1.684-4.769l-4.609-53.593-1.715-68.356-49.679 7.794z"/><path fill="#FFC2B0" d="M496.731 265.145c-.241 0-.483-.018-.725-.055l-21.061-3.263a4.738 4.738 0 01-3.957-5.406 4.744 4.744 0 015.407-3.957l14.532 2.252-4.96-28.407a4.734 4.734 0 013.852-5.481 4.735 4.735 0 015.481 3.852l6.096 34.915a4.734 4.734 0 01-4.665 5.55z"/><path fill="#983BE9" d="M477.502 197.769s7.039-.412 16.111 18.276c9.075 18.688-3.353 24.591-3.353 24.591l-12.758-42.867z"/><path fill="#983BE9" d="M458.185 202.661c.317-.128 19.419-12.428 26.481.443 11.512 20.988 10.835 88.547 7.2 97.299-3.365 8.097-11.767 14.069-17.653 17.433-5.238 2.992-11.103 4.826-17.134 4.873-5.971.049-17.417-5.258-17.001-13.062 1.911-35.892-1.263-66.144-4.192-95.498 0 0 3.662-3.943 22.299-11.488z"/><path fill="#FFC2B0" d="M428.05 275.953a4.002 4.002 0 001.592-.408c1.395-.676 2.388-2.102 2.638-3.785l9.082-26.48c.405-2.735-4.368-13.401-6.803-13.854-2.438-.451-8.612 4.386-9.017 7.121l-2.23 23.661-22.416-11.03c-2.327-1.226-4.252-3.718-5.628-1.415-1.377 2.303-.829 5.419 1.221 6.966l28.891 18.377a4.115 4.115 0 002.67.847z"/><path fill="#FFC2B0" d="M399.15 250.294l-1.412-3.448a9.143 9.143 0 00-2.265-3.259l-5.913-5.452a1.15 1.15 0 00-1.625 1.623l2.47 2.684c.401.438.528 1.063.328 1.622l-.941 2.637a2.66 2.66 0 00.454 2.588l5.928 7.183 2.976-6.178z"/><path fill="#983BE9" d="M435.886 214.149s-12.752 9.828-14.71 39.747c0 0-.277 3.318 7.093 5.307 7.37 1.991 12.406-3.709 12.406-3.709s8.576-19.861-4.789-41.345z"/><path fill="#FFC2B0" d="M459.936 191.097l2.084 12.015s.077 4.1-4.499 5.235c-4.577 1.136-5.991-1.819-5.991-1.819l-2.07-13.531 10.476-1.9z"/><path fill="#FFC2B0" d="M435.204 191.559c4.95 9.591 15.874 13.771 24.399 9.336s11.423-15.807 6.474-25.398c-4.949-9.592-15.872-13.771-24.398-9.336-8.526 4.435-11.424 15.806-6.475 25.398z"/><path fill="#173D7A" d="M447.538 189.757c-.725.112-1.451-.101-1.963-.624-.894-.911-1.26-5.746-3.598-6.152-3.654-.635-11.078 5.08-14.091-7.188-1.566-6.376 1.281-8.633.657-12.166 0 0 .033 1.819 16.451-2.145 16.417-3.965 24.358 9.853 25.962 16.809 1.603 6.957.193 19.092-10.885 22.634-1.836.587-10.837-4.408-10.775-5.277.061-.868 3.053-1.336 2.203-3.688-.707-1.96-2.066-2.493-3.961-2.203z"/><path fill="#D8892B" d="M468.803 334.472l11.627 89.071c.187 2.409 1.339 4.637 3.193 5.864.305.2.638.389.994.562-2.412-1.811-9.461-76.572-10.764-84.889-1.305-8.32-5.05-10.608-5.05-10.608z"/><path fill="#6614CF" d="M439.63 256.473l-.003.295c1.045 16.521 1.462 33.908.451 52.88-.165 3.092 1.546 5.782 4.027 7.913 2.905-36.35 0-68.016 0-68.016-1.565 5.35-4.475 6.928-4.475 6.928z"/><path opacity=".5" fill="#C4D9E8" d="M258.384 471.035c-18.729 10.814-49.098 10.814-67.828 0-18.73-10.814-18.731-28.348-.001-39.162 18.729-10.813 49.098-10.813 67.828.002 18.731 10.814 18.731 28.348.001 39.16z"/><path fill="#983BE9" d="M243.925 436.631a30.26 30.26 0 00-3.843-1.838l.039-.002-7.394-3.278.559 1.292c-5.603-1.116-11.683-1.186-17.336-.186l.345-1.432-8.697 3.853.052.003c-1.131.48-2.229.997-3.252 1.588-10.914 6.301-10.914 16.519.002 22.819 10.913 6.302 28.61 6.302 39.525 0 10.915-6.301 10.914-16.517 0-22.819z"/><path fill="#8A2AE3" d="M233.422 442.581c-5.114 2.952-13.407 2.952-18.521-.001-5.114-2.951-5.114-7.74 0-10.693s13.407-2.951 18.521 0c5.114 2.953 5.114 7.742 0 10.694z"/><path fill="#8A2AE3" d="M224.161 439.272a4.452 4.452 0 01-4.452-4.452v-56.283h8.904v56.283a4.452 4.452 0 01-4.452 4.452z"/><path fill="#983BE9" d="M227.294 380.58c-1.775 1.023-4.652 1.023-6.428 0-1.775-1.025-1.775-2.688 0-3.711 1.775-1.025 4.652-1.025 6.428 0 1.773 1.024 1.773 2.686 0 3.711z"/><path fill="#8A2AE3" d="M224.161 380.47a3.61 3.61 0 01-3.61-3.608v-52.908h7.221v52.908a3.61 3.61 0 01-3.611 3.608z"/><path fill="#B45EF4" d="M276.058 351.676v-2.07l2.927-.424 3.276-2.451c.53-.396 1.544-.436 2.159-.08l2.418 1.396 2.396-.345v2.098l-.011.001c-.013.239-.192.474-.551.633l-7.631 3.399c-.604.27-1.46.238-2-.074l-2.541-1.467c-.292-.168-.43-.393-.43-.617l-.012.001z"/><path fill="#8A2AE3" d="M276.373 349.049l5.888-4.406c.53-.397 1.544-.434 2.159-.08l4.393 2.535c.613.355.549.941-.14 1.248l-7.631 3.397c-.604.271-1.46.238-2-.073l-2.541-1.467c-.538-.311-.593-.805-.128-1.154z"/><path fill="#B45EF4" d="M266.438 359.043c.843 0 1.686-.195 2.358-.582l9.149-5.283a1.057 1.057 0 00-1.058-1.829l-9.147 5.282c-.679.393-1.921.393-2.603 0l-15.206-8.807a1.054 1.054 0 00-1.441.387 1.053 1.053 0 00.387 1.441l15.206 8.808c.671.388 1.514.583 2.355.583z"/><radialGradient id="a" cx="81.291" cy="328.745" r="90.702" gradientUnits="userSpaceOnUse"><stop offset="0" stop-color="#01c8ef"/><stop offset=".089" stop-color="#03bee9"/><stop offset=".239" stop-color="#08a5d7"/><stop offset=".429" stop-color="#107bbb"/><stop offset=".446" stop-color="#1177b8"/><stop offset="1" stop-color="#112564"/></radialGradient><path fill="url(#a)" d="M178.468 339.688l14.692-8.54-8.232-3.718-7.043 4.993z"/><path fill="#8A2AE3" d="M272.812 327.01a19.335 19.335 0 01-2.473-1.537l-31.306-22.944c-5.652-4.144-11.473-5.21-15.972-2.929-.117.059-.219.142-.331.204l-.034-.009-43.237 25.084 3.885 1.293 15.142 6.867 20.6 14.614 16.256 8.626.738.158c3.791-3.193 8.035-5.933 10.364-10.588 4.023-7.045 15.231-9.061 21.821-14.771.665.423 1.33.817 1.993 1.161 1.362-1.337 1.729-3.239 2.554-5.229z"/><path fill="#721BD5" d="M286.545 316.664c-.671 0-1.281.236-1.773.619l-.008-.01-42.312 24.492 1.546 6.328 1.587-.759c-2.422 3.781-6.139 6.267-9.506 9.103l4.783 1.012 41.438-24.11c.19-.084.387-.154.573-.249a10.313 10.313 0 001.596-1.014l.072-.043-.026.003c3.154-2.436 4.936-6.674 4.936-11.966v-.498a2.909 2.909 0 00-2.906-2.908z"/><path fill="#EAEAEA" d="M228.602 298.431c2.641.097 5.472 1.003 8.307 2.688-2.836-1.685-5.667-2.592-8.307-2.688z"/><path fill="#B45EF4" d="M247.871 343.737v-.497a2.908 2.908 0 00-5.816 0v.497c0 3.887-1.235 6.743-3.392 7.835-2.436 1.232-6.139.326-9.902-2.434l-31.308-22.941c-4.818-3.531-9.754-4.803-13.893-3.697l25.856-15.002-29.958 17.381 3.885 1.293 15.142 6.867 20.6 14.614 16.256 8.626.738.158c3.791-3.193 8.035-5.933 10.362-10.588.4-.701.89-1.34 1.422-1.95 0-.055.008-.106.008-.162z"/><path fill="#983BE9" d="M235.327 358.875c-3.427.001-7.198-1.394-10.898-4.104l-31.308-22.942c-3.763-2.758-7.463-3.668-9.902-2.434-2.156 1.093-3.392 3.947-3.392 7.836a2.908 2.908 0 01-5.816 0c0-6.158 2.397-10.903 6.578-13.022 4.496-2.278 10.318-1.212 15.972 2.929l31.307 22.943c3.765 2.758 7.468 3.666 9.903 2.434 2.156-1.094 3.392-3.947 3.392-7.836v-.497a2.908 2.908 0 015.816 0v.497c0 6.157-2.398 10.903-6.578 13.022-1.555.785-3.266 1.174-5.074 1.174z"/><path fill="#173D7A" d="M210.723 410.165s-5.896-2.972-9.518 1.456c-3.62 4.426-8.798 14.88-8.958 21.941-.161 7.063 5.59 6.586 9.007 4.914 3.417-1.67 13.401-16.152 14.007-18.99.604-2.838-.714-6.676-1.674-7.427s-2.864-1.894-2.864-1.894z"/><path fill="#E8A200" d="M212.009 408.744l.273 6.109c.059 1.299-.596 2.537-1.726 3.178-1.031.584-2.526 1.033-4.549.709-4.441-.716-4.84-1.984-5.156-8.092-.317-6.107 11.158-1.904 11.158-1.904z"/><path fill="#173D7A" d="M189.139 398.42s-5.896-2.975-9.518 1.453c-3.621 4.429-8.797 14.881-8.957 21.943-.161 7.063 5.588 6.586 9.007 4.916 3.417-1.672 13.401-16.156 14.006-18.994.604-2.838-.713-6.674-1.673-7.424-.962-.751-2.865-1.894-2.865-1.894z"/><path fill="#E8A200" d="M190.426 396.999l.272 6.108c.058 1.3-.595 2.537-1.727 3.179-1.029.584-2.525 1.032-4.549.706-4.441-.713-4.837-1.982-5.155-8.09-.316-6.106 11.159-1.903 11.159-1.903z"/><path fill="#FDD762" d="M243.039 284.844c-1.746-28.395-30.752 4.18-30.752 4.18l-19.853 19.459-17.876 19.639a17.611 17.611 0 00-4.44 14.154l7.23 55.066a5.413 5.413 0 005.428 4.705 18.335 18.335 0 002.679-.236c6.451-1.004 5.976-7.139 5.976-7.139l-1.323-51.504 37.544-22.631c-.001 0 17.132-7.297 15.387-35.693z"/><path fill="#FDD762" d="M264.622 295.664c-1.744-28.395-30.75 4.178-30.75 4.178L214.018 319.3l-17.876 19.64a17.618 17.618 0 00-4.44 14.155l7.231 55.065a5.411 5.411 0 005.427 4.705 18.298 18.298 0 002.679-.235c6.451-1.005 5.976-7.139 5.976-7.139l-1.321-51.503 37.542-22.633c-.002 0 17.131-7.295 15.386-35.691z"/><path fill="#983BE9" d="M247.463 204.514c21.991 9.117 21.549 22.117 21.549 22.117s-4.307 47.657-2.838 79.485c.616 13.305-70.69 14.32-60.056-21.176 12.539-41.854 7.839-75.736 13.708-80.847 5.87-5.111 21.947-1.937 27.637.421z"/><ellipse transform="rotate(14.442 243.499 213.197)" fill="#FFC2B0" cx="243.554" cy="213.211" rx="11.342" ry="8.349"/><path fill="#FFF" d="M245.225 222.831a16.15 16.15 0 01-4.017-.517c-6.618-1.705-10.949-7.175-9.657-12.195 1.293-5.02 7.732-7.714 14.348-6.01 6.617 1.705 10.949 7.175 9.657 12.194-.643 2.492-2.529 4.481-5.314 5.602-1.536.616-3.244.926-5.017.926zm-3.354-17.139c-4.082 0-7.496 1.899-8.284 4.951-1.003 3.897 2.651 8.218 8.146 9.634 2.716.7 5.462.585 7.722-.324 2.149-.865 3.593-2.347 4.063-4.175 1.003-3.896-2.65-8.218-8.146-9.633a14.042 14.042 0 00-3.501-.453z"/><path fill="#FFC2B0" d="M238.646 203.522s.189.881-.191 7.851c-.119 2.191 7.552 4.238 9.534 2.254 1.983-1.983 1.189-4.045 1.665-11.501.477-7.456-11.008 1.396-11.008 1.396z"/><path fill="#EA9C92" d="M249.653 202.126s-1.888 6.914-11.201 9.564l.143-6.282 11.058-3.282z"/><circle fill="#FFC2B0" cx="239.165" cy="188.799" r="16.928"/><path fill="#EA9C92" d="M243.053 189.42s-9.32 3.992-15.774 4.038c-6.452.046-5.03-5.358-5.03-5.358l19.157-2.768 1.647 4.088z"/><path fill="#FF2C9C" d="M225.355 190.472s8.119-3.447 15.24-2.01c1.675.338 3.227 1.234 4.305 2.558.353.433.798.829 1.303.942 1.263.286 3.33-4.954 5.785-5.074 2.454-.119 4.094 1.619 2.08 4.841-2.013 3.223-1.332 6.829-.405 7.346.925.517 10.748-7.006 2.084-24.171-8.665-17.165-30.676-7.92-34.1-4.441 0 0-3.606 3.142-6.539.346 0 .002-3.288 24.627 10.247 19.663z"/><path fill="#FFC2B0" d="M256.677 261.448v12.877a5.247 5.247 0 01-1.713 3.878l-26.453 24.117 3.005 4.596 34.94-23.402a7.094 7.094 0 002.893-5.004l2.357-24.393-15.029 7.331z"/><path fill="#983BE9" d="M267.151 220.192s8.024 12.069 11.015 43.838c0 0-13.709 4.435-21.489 1.917-7.781-2.517 10.474-45.755 10.474-45.755z"/><path fill="#6614CF" d="M255.212 235.453s-3.144 16.814-3.321 24.717a5.04 5.04 0 003.321 4.871v-29.588z"/><path fill="#173D7A" d="M248.348 319.066l-5.847-.772-37.742-21.791c-1.211-.698-3.324-.612-4.722.196l-26.743 15.435-3.537-.468v3.52l.004.002c-.024.463.24.909.811 1.238l42.774 24.695c1.21.699 3.322.61 4.72-.195l29.126-16.811c.785-.453 1.179-1.039 1.155-1.588v-3.461z"/><path fill="#396CAA" d="M219.988 305.296l-2.682-1.548h-29.48l-14.532 8.386-3.537-.468v3.52l.004.002c-.024.463.24.909.811 1.238l42.774 24.695c.64.369 1.53.518 2.436.457l4.206-36.282z"/><path fill="#5793CE" d="M171.326 311.873l-1.569-.207v3.52l.004.002c-.024.463.24.909.811 1.238l.754.436v-4.989z"/><path fill="#274F89" d="M213.776 341.322c1.146.434 2.787.339 4.012-.25v-5.988h-4.012v6.238z"/><path fill="#FFF" d="M213.347 337.604l-42.774-24.695c-1.209-.698-1.058-1.918.339-2.726l29.125-16.81c1.397-.807 3.511-.895 4.722-.195l42.772 24.695c1.21.697 1.059 1.918-.339 2.725l-29.126 16.811c-1.397.806-3.509.893-4.719.195z"/><path fill="#D4ECFF" d="M212.622 333.86l-35.565-20.534c-1.006-.581-.879-1.595.283-2.266l15.605-8.777c1.162-.67 2.921-.742 3.927-.162l35.565 20.535c1.006.58.879 1.594-.281 2.266l-15.607 8.776c-1.162.669-2.919.743-3.927.162z"/><path fill="#FFC2B0" d="M201.691 292.563l-.443 2.951a21.841 21.841 0 00.192 7.568l.527 2.6a3.66 3.66 0 002.93 2.874 2.02 2.02 0 002.367-1.761l.706-6.309s1.615 2.114 2.393 2.114c.78 0-.871-6.319-2.634-9.894-1.762-3.575-6.038-.143-6.038-.143z"/><path fill="#FFC2B0" d="M216.19 245.657l-4.59 9.083a17.786 17.786 0 00-1.878 6.895l-1.993 31.072-6.038-.145-2.741-34.893a12.874 12.874 0 01.155-3.227l3.132-17.693 13.953 8.908z"/><path fill="#173D7A" d="M211.897 339.977l-3.587-4.682-37.715-21.838c-1.209-.699-2.188-2.576-2.187-4.189l.034-30.879-2.17-2.83 2.038-1.18.003.003c.39-.253.908-.247 1.479.085l42.743 24.747c1.209.7 2.188 2.575 2.187 4.189l-.037 33.628c0 .908-.312 1.538-.8 1.792l-1.988 1.154z"/><path fill="#396CAA" d="M185.814 322.27l-2.679-1.553-14.709-25.549.016-16.779-2.17-2.83 2.038-1.18.003.003c.39-.253.908-.247 1.479.085l42.743 24.747c.639.37 1.212 1.07 1.611 1.884l-28.332 21.172z"/><path fill="#5793CE" d="M167.236 276.816l-.963-1.258 2.038-1.18.003.003c.39-.253.908-.247 1.479.085l.752.436-3.309 1.914z"/><path fill="#274F89" d="M212.923 299.487c.95.776 1.687 2.246 1.786 3.601l-4.177 2.412-2.002-3.477 4.393-2.536z"/><path fill="#FFF" d="M210.5 300.393l-42.744-24.746c-1.208-.701-2.191.039-2.192 1.652l-.036 33.629c-.003 1.612.976 3.488 2.185 4.189l42.744 24.746c1.208.7 2.191-.04 2.192-1.652l.037-33.629c.002-1.613-.977-3.489-2.186-4.189z"/><path fill="#FFC2B0" d="M231.516 306.916l-.686 1.42a9.473 9.473 0 01-3.571 3.959l-4.246 2.618c-1.321.815-2.993.881-4.335.101l-.144-.087c-1.35-.845-1.471-2.784-.36-3.925l4.436-4.561s-2.492 1.91-3.191 1.141c-.512-.564 2.418-3.313 4.667-3.405 2.249-.089 4.426-1.856 4.426-1.856l3.004 4.595z"/><path fill="#983BE9" d="M220.267 204.026s-16.265 17.697-22.826 33.933c0 0 5.562 10.021 19.175 13.952 13.615 3.932 3.651-47.885 3.651-47.885z"/><path fill="#6614CF" d="M213.553 250.861l2.638-25.466-6.212 23.859a35.466 35.466 0 003.574 1.607z"/><path fill="#FFF" d="M232.448 200.455l-4.37-1.201s2.086 3.283 5.133 4.119c3.046.836 3.52-1.742 3.52-1.742l-4.283-1.176z"/></svg>