<svg xmlns="http://www.w3.org/2000/svg" xmlns:xlink="http://www.w3.org/1999/xlink" viewBox="0 0 150 153.35"><defs><linearGradient id="a" x1="60.47" y1="56.16" x2="145.38" y2="56.16" gradientUnits="userSpaceOnUse"><stop offset="0" stop-color="#ebe9ec"/><stop offset="1" stop-color="#99a7d8"/></linearGradient><linearGradient id="c" x1="4.46" y1="107.96" x2="143.05" y2="107.96" gradientUnits="userSpaceOnUse"><stop offset="0" stop-color="#fff"/><stop offset="1" stop-color="#99a7d8"/></linearGradient><linearGradient id="d" x1="38" y1="56.69" x2="62.58" y2="56.69" xlink:href="#a"/><linearGradient id="e" x1="36.64" y1="56" x2="61.22" y2="56" xlink:href="#a"/><linearGradient id="b" x1="36.64" y1="55.32" x2="61.22" y2="55.32" gradientUnits="userSpaceOnUse"><stop offset="0" stop-color="#4e9dd5"/><stop offset=".02" stop-color="#4e9ed5"/><stop offset=".48" stop-color="#53a8da"/><stop offset="1" stop-color="#54acdc"/></linearGradient><linearGradient id="f" x1="38" y1="53.28" x2="62.58" y2="53.28" xlink:href="#a"/><linearGradient id="g" x1="43.62" y1="52.62" x2="56.83" y2="52.62" gradientUnits="userSpaceOnUse"><stop offset=".62" stop-color="#4d9ed7"/><stop offset="1" stop-color="#54addf"/></linearGradient><linearGradient id="h" x1="43.62" y1="51.5" x2="56.83" y2="51.5" gradientUnits="userSpaceOnUse"><stop offset=".01" stop-color="#4d9ed7"/><stop offset=".12" stop-color="#50a4da"/><stop offset=".35" stop-color="#53abde"/><stop offset="1" stop-color="#54addf"/></linearGradient><linearGradient id="i" x1="77.67" y1="52.73" x2="126.44" y2="52.73" xlink:href="#a"/><linearGradient id="j" x1="93.1" y1="59.35" x2="104.73" y2="59.35" xlink:href="#b"/><linearGradient id="k" x1="95.17" y1="73.13" x2="95.17" y2="51.47" gradientUnits="userSpaceOnUse"><stop offset="0" stop-color="#4e9dd5"/><stop offset=".57" stop-color="#4f9fd6"/><stop offset=".9" stop-color="#52a8da"/><stop offset="1" stop-color="#54acdc"/></linearGradient><linearGradient id="l" x1="91.59" y1="67.93" x2="97.98" y2="56.86" xlink:href="#b"/><linearGradient id="m" x1="54.04" y1="37.06" x2="75.3" y2="37.06" xlink:href="#a"/><linearGradient id="n" x1="118.54" y1="55.21" x2="137.05" y2="55.21" xlink:href="#a"/><linearGradient id="o" x1="120.29" y1="58.59" x2="127.15" y2="58.59" xlink:href="#b"/><linearGradient id="p" x1="126.65" y1="60.43" x2="127.38" y2="60.43" xlink:href="#b"/></defs><path d="M56.15 68.19l-55 31.45a1.79 1.79 0 000 3.1l85.66 49.46a7.1 7.1 0 007.07 0l55-31.45a1.79 1.79 0 000-3.1L63.22 68.21a7.1 7.1 0 00-7.07-.02z" fill="#fbfbfb" opacity=".024"/><path d="M56.2 68.24L1.35 99.6a1.78 1.78 0 000 3.09L86.75 152a7.08 7.08 0 007.05 0l54.85-31.35a1.78 1.78 0 000-3.09l-85.4-49.3a7.08 7.08 0 00-7.05-.02z" fill="#f6f6f8" opacity=".049"/><path d="M56.26 68.29L1.58 99.55a1.77 1.77 0 000 3.08l85.14 49.16a7.06 7.06 0 007 0l54.68-31.26a1.77 1.77 0 000-3.08L63.29 68.31a7.05 7.05 0 00-7.03-.02z" fill="#f2f2f4" opacity=".073"/><path d="M56.32 68.34L1.8 99.51a1.77 1.77 0 000 3.07l84.88 49a7 7 0 007 0l54.51-31.16a1.77 1.77 0 000-3.07l-84.88-49a7 7 0 00-6.99-.01z" fill="#ededf0" opacity=".098"/><path d="M56.38 68.4L2 99.46a1.76 1.76 0 000 3.06l84.62 48.85a7 7 0 007 0L148 120.32a1.76 1.76 0 000-3.06L63.36 68.41a7 7 0 00-6.98-.01z" fill="#e9e9ed" opacity=".122"/><path d="M56.43 68.45l-54.18 31a1.76 1.76 0 000 3l84.35 48.7a7 7 0 007 0l54.18-31a1.76 1.76 0 000-3L63.4 68.46a7 7 0 00-6.97-.01z" fill="#e4e4e9" opacity=".146"/><path d="M56.49 68.5l-54 30.87a1.75 1.75 0 000 3L86.57 151a7 7 0 006.94 0l54-30.87a1.75 1.75 0 000-3L63.43 68.51a7 7 0 00-6.94-.01z" fill="#e0e0e6" opacity=".171"/><path d="M56.55 68.55L2.71 99.33a1.75 1.75 0 000 3l83.83 48.4a7 7 0 006.92 0L147.29 120a1.75 1.75 0 000-3L63.47 68.56a7 7 0 00-6.92-.01z" fill="#dbdbe2" opacity=".195"/><path d="M56.61 68.6L2.93 99.28a1.74 1.74 0 000 3l83.57 48.25a6.93 6.93 0 006.9 0l53.68-30.68a1.74 1.74 0 000-3L63.51 68.61a6.93 6.93 0 00-6.9-.01z" fill="#d7d7de" opacity=".22"/><path d="M56.66 68.65L3.16 99.24a1.74 1.74 0 000 3l83.31 48.1a6.9 6.9 0 006.88 0l53.51-30.59a1.74 1.74 0 000-3L63.54 68.67a6.9 6.9 0 00-6.88-.02z" fill="#d2d2db" opacity=".244"/><path d="M56.72 68.7L3.38 99.19a1.73 1.73 0 000 3l83 47.95a6.88 6.88 0 006.86 0l53.34-30.49a1.73 1.73 0 000-3l-83-47.95a6.88 6.88 0 00-6.86 0z" fill="#ceced7" opacity=".268"/><path d="M56.78 68.75L3.61 99.15a1.73 1.73 0 000 3l82.79 47.8a6.86 6.86 0 006.83 0l53.17-30.4a1.73 1.73 0 000-3L63.61 68.77a6.86 6.86 0 00-6.83-.02z" fill="#c9c9d3" opacity=".293"/><path d="M56.84 68.8l-53 30.3a1.72 1.72 0 000 3l82.53 47.65a6.84 6.84 0 006.81 0l53-30.3a1.72 1.72 0 000-3L63.65 68.82a6.84 6.84 0 00-6.81-.02z" fill="#c5c5d0" opacity=".317"/><path d="M56.89 68.86L4.06 99.06a1.71 1.71 0 000 3l82.26 47.5a6.82 6.82 0 006.79 0l52.84-30.2a1.71 1.71 0 000-3L63.68 68.87a6.82 6.82 0 00-6.79-.01z" fill="#c1c1cc" opacity=".341"/><path d="M57 68.91L4.28 99a1.71 1.71 0 000 3l82 47.34a6.8 6.8 0 006.77 0l52.67-30.11a1.71 1.71 0 000-3l-82-47.34a6.8 6.8 0 00-6.72.02z" fill="#bcbcc8" opacity=".366"/><path d="M57 69L4.51 99a1.7 1.7 0 000 3l81.74 47.19a6.77 6.77 0 006.75 0l52.5-30a1.7 1.7 0 000-3L63.76 69A6.77 6.77 0 0057 69z" fill="#b8b8c5" opacity=".39"/><path d="M57.07 69L4.73 98.92a1.7 1.7 0 000 2.95l81.48 47a6.75 6.75 0 006.73 0L145.27 119a1.7 1.7 0 000-2.95L63.79 69a6.75 6.75 0 00-6.72 0z" fill="#b3b3c1" opacity=".415"/><path d="M57.12 69.06L5 98.88a1.69 1.69 0 000 2.94l81.22 46.89a6.73 6.73 0 006.71 0L145 118.9a1.69 1.69 0 000-2.94L63.83 69.07a6.73 6.73 0 00-6.71-.01z" fill="#afafbe" opacity=".439"/><path d="M57.18 69.11l-52 29.72a1.69 1.69 0 000 2.93l81 46.74a6.71 6.71 0 006.68 0l52-29.72a1.69 1.69 0 000-2.93l-81-46.74a6.71 6.71 0 00-6.68 0z" fill="#aaaaba" opacity=".463"/><path d="M57.24 69.16L5.41 98.79a1.68 1.68 0 000 2.92L86.1 148.3a6.69 6.69 0 006.66 0l51.83-29.63a1.68 1.68 0 000-2.92L63.9 69.18a6.69 6.69 0 00-6.66-.02z" fill="#a6a6b6" opacity=".488"/><path d="M57.3 69.21L5.64 98.75a1.68 1.68 0 000 2.91l80.43 46.44a6.67 6.67 0 006.64 0l51.66-29.53a1.68 1.68 0 000-2.91L63.94 69.23a6.67 6.67 0 00-6.64-.02z" fill="#a1a1b3" opacity=".512"/><path d="M57.35 69.27L5.86 98.7a1.67 1.67 0 000 2.9L86 147.89a6.64 6.64 0 006.62 0l51.49-29.44a1.67 1.67 0 000-2.9L64 69.28a6.64 6.64 0 00-6.65-.01z" fill="#9d9daf" opacity=".537"/><path d="M57.41 69.32L6.09 98.66a1.67 1.67 0 000 2.89L86 147.68a6.62 6.62 0 006.6 0l51.32-29.34a1.67 1.67 0 000-2.89L64 69.33a6.62 6.62 0 00-6.59-.01z" fill="#9898ab" opacity=".561"/><path d="M57.47 69.37L6.31 98.61a1.66 1.66 0 000 2.88l79.65 46a6.6 6.6 0 006.58 0l51.16-29.24a1.66 1.66 0 000-2.88L64 69.38a6.6 6.6 0 00-6.53-.01z" fill="#9494a8" opacity=".585"/><path d="M57.53 69.42l-51 29.15a1.65 1.65 0 000 2.87l79.39 45.84a6.58 6.58 0 006.55 0l51-29.15a1.65 1.65 0 000-2.87L64.08 69.43a6.58 6.58 0 00-6.55-.01z" fill="#8f8fa4" opacity=".61"/><path d="M57.58 69.47L6.76 98.52a1.65 1.65 0 000 2.86l79.13 45.68a6.56 6.56 0 006.53 0L143.24 118a1.65 1.65 0 000-2.86L64.12 69.48a6.56 6.56 0 00-6.54-.01z" fill="#8b8ba1" opacity=".634"/><path d="M57.64 69.52L7 98.48a1.64 1.64 0 000 2.85l78.87 45.53a6.54 6.54 0 006.51 0l50.65-29a1.64 1.64 0 000-2.85L64.15 69.53a6.54 6.54 0 00-6.51-.01z" fill="#86869d" opacity=".659"/><path d="M57.7 69.57L7.21 98.43a1.64 1.64 0 000 2.84l78.6 45.38a6.51 6.51 0 006.49 0l50.49-28.86a1.64 1.64 0 000-2.84l-78.6-45.36a6.51 6.51 0 00-6.49-.02z" fill="#828299" opacity=".683"/><path d="M57.76 69.62L7.44 98.39a1.63 1.63 0 000 2.83l78.34 45.23a6.49 6.49 0 006.47 0l50.32-28.76a1.63 1.63 0 000-2.83L64.22 69.64a6.49 6.49 0 00-6.46-.02z" fill="#7e7e96" opacity=".707"/><path d="M57.81 69.67L7.66 98.34a1.63 1.63 0 000 2.82l78.08 45.08a6.47 6.47 0 006.45 0l50.15-28.67a1.63 1.63 0 000-2.82L64.26 69.69a6.47 6.47 0 00-6.45-.02z" fill="#797992" opacity=".732"/><path d="M57.87 69.73L7.89 98.3a1.62 1.62 0 000 2.81L85.7 146a6.45 6.45 0 006.42 0l50-28.57a1.62 1.62 0 000-2.81L64.3 69.74a6.45 6.45 0 00-6.43-.01z" fill="#75758e" opacity=".756"/><path d="M57.93 69.78L8.11 98.25a1.62 1.62 0 000 2.8l77.56 44.78a6.43 6.43 0 006.4 0l49.81-28.48a1.62 1.62 0 000-2.8L64.33 69.79a6.43 6.43 0 00-6.4-.01z" fill="#70708b" opacity=".78"/><path d="M58 69.83L8.34 98.21a1.61 1.61 0 000 2.79l77.3 44.63a6.41 6.41 0 006.38 0l49.65-28.38a1.61 1.61 0 000-2.79l-77.3-44.62a6.41 6.41 0 00-6.37-.01z" fill="#6c6c87" opacity=".805"/><path d="M58 69.88L8.57 98.16a1.61 1.61 0 000 2.78l77 44.48a6.38 6.38 0 006.36 0l49.48-28.28a1.61 1.61 0 000-2.78l-77-44.48a6.38 6.38 0 00-6.41 0z" fill="#676783" opacity=".829"/><path d="M58.1 69.93L8.79 98.12a1.6 1.6 0 000 2.77l76.77 44.33a6.36 6.36 0 006.34 0L141.21 117a1.6 1.6 0 000-2.77L64.44 69.94a6.36 6.36 0 00-6.34-.01z" fill="#636380" opacity=".854"/><path d="M58.16 70L9 98.07a1.59 1.59 0 000 2.77L85.52 145a6.34 6.34 0 006.32 0L141 116.94a1.59 1.59 0 000-2.77L64.48 70a6.34 6.34 0 00-6.32 0z" fill="#5e5e7c" opacity=".878"/><path d="M58.22 70l-49 28a1.59 1.59 0 000 2.76l76.25 44a6.32 6.32 0 006.3 0l49-28a1.59 1.59 0 000-2.76L64.51 70a6.32 6.32 0 00-6.29 0z" fill="#5a5a79" opacity=".902"/><path d="M58.27 70.08L9.47 98a1.58 1.58 0 000 2.75l76 43.87a6.3 6.3 0 006.27 0l48.81-27.9a1.58 1.58 0 000-2.75l-76-43.87a6.3 6.3 0 00-6.28-.02z" fill="#555575" opacity=".927"/><path d="M58.33 70.13L9.69 97.94a1.58 1.58 0 000 2.74l75.73 43.72a6.28 6.28 0 006.25 0l48.64-27.8a1.58 1.58 0 000-2.74L64.58 70.15a6.28 6.28 0 00-6.25-.02z" fill="#515171" opacity=".951"/><path d="M58.39 70.19L9.92 97.89a1.57 1.57 0 000 2.73l75.47 43.57a6.25 6.25 0 006.23 0l48.47-27.71a1.57 1.57 0 000-2.73L64.62 70.2a6.25 6.25 0 00-6.23-.01z" fill="#4c4c6e" opacity=".976"/><path d="M58.45 70.24L10.14 97.85a1.57 1.57 0 000 2.72L85.34 144a6.23 6.23 0 006.21 0l48.3-27.61a1.57 1.57 0 000-2.72L64.66 70.25a6.23 6.23 0 00-6.21-.01z" fill="#48486a"/><path d="M143.6 46.8L62.92.22a1.63 1.63 0 00-2.45 1.42v60.8a3.55 3.55 0 001.78 3.08l80.68 46.58a1.64 1.64 0 002.45-1.42v-60.8a3.55 3.55 0 00-1.78-3.08z" fill="url(#a)"/><path d="M142.56 47.5L61.88.92a1.63 1.63 0 00-2.45 1.42v60.8a3.55 3.55 0 001.78 3.08l80.68 46.58a1.63 1.63 0 002.45-1.42V50.57a3.55 3.55 0 00-1.78-3.07z" fill="#48486a"/><path fill="#fff" d="M139.55 51.34L63.63 7.25v55.62l75.92 44.08V51.34z"/><path d="M56.16 69.14L4.49 96.39s-.28 4 .82 4.67l79.16 45.7a6.56 6.56 0 006.53 0l50.84-29.06c2.1-1.3.83-4.68.83-4.68l-80-43.88a6.56 6.56 0 00-6.51 0z" fill="url(#c)"/><path d="M56.16 66L5.32 95.07a1.65 1.65 0 000 2.86l79.16 45.7a6.56 6.56 0 006.53 0l50.84-29.06a1.65 1.65 0 000-2.86L62.69 66a6.56 6.56 0 00-6.53 0z" fill="#f7f7f7"/><path d="M51.65 103.64l-13.4 7.66a.43.43 0 000 .75l20.86 12a1.73 1.73 0 001.72 0l13.4-7.66a.43.43 0 000-.75l-20.86-12a1.73 1.73 0 00-1.72 0z" fill="#e5e9f4"/><path d="M61.76 70.45L66.14 73a.26.26 0 010 .45L64 74.68a.56.56 0 01-.56 0L59 72.15a.26.26 0 010-.45l2.18-1.25a.56.56 0 01.58 0zm6.42 3.83l4.38 2.53a.26.26 0 010 .45l-2.18 1.25a.56.56 0 01-.56 0L65.44 76a.26.26 0 010-.45l2.18-1.25a.56.56 0 01.56-.02zm6.44 3.62L79 80.42a.26.26 0 010 .45l-2.18 1.25a.56.56 0 01-.56 0l-4.38-2.52a.26.26 0 010-.45l2.18-1.25a.56.56 0 01.56 0zm6.64 3.73l4.38 2.53a.26.26 0 010 .45l-2.18 1.25a.56.56 0 01-.56 0l-4.38-2.53a.26.26 0 010-.45l2.18-1.25a.56.56 0 01.56 0zm6.37 3.56L92 87.72a.26.26 0 010 .45l-2.18 1.25a.56.56 0 01-.56 0l-4.38-2.53a.26.26 0 010-.45l2.18-1.25a.57.57 0 01.57 0zm6.2 3.81l4.38 2.53a.26.26 0 010 .45L96 93.24a.57.57 0 01-.56 0l-4.38-2.53a.26.26 0 010-.45L93.27 89a.56.56 0 01.56 0zm6.49 3.59l4.38 2.53a.26.26 0 010 .45l-2.18 1.25a.56.56 0 01-.56 0l-4.38-2.53a.26.26 0 010-.45l2.18-1.25a.56.56 0 01.56 0zm6.39 3.8l4.38 2.53a.26.26 0 010 .45l-2.18 1.25a.56.56 0 01-.56 0L104 98.1a.26.26 0 010-.45l2.18-1.25a.56.56 0 01.53-.01zm6.29 3.71l4.38 2.53a.26.26 0 010 .45l-2.18 1.25a.56.56 0 01-.56 0l-4.38-2.53a.26.26 0 010-.45l2.18-1.25a.56.56 0 01.56 0zm6.62 3.82l4.38 2.53a.26.26 0 010 .45l-2.18 1.25a.56.56 0 01-.56 0l-4.38-2.53a.26.26 0 010-.45l2.18-1.25a.56.56 0 01.56 0zm6.44 3.61l4.38 2.53a.26.26 0 010 .45l-2.18 1.25a.56.56 0 01-.56 0l-4.38-2.53a.26.26 0 010-.45l2.18-1.25a.56.56 0 01.56 0zM52.85 75.22l3-1.74a1.24 1.24 0 011.25 0l2.9 1.67a.62.62 0 010 1.06L57.1 78a1.24 1.24 0 01-1.27 0l-3-1.71a.62.62 0 01.02-1.07zM59.5 79l3-1.74a1.24 1.24 0 011.25 0L66.61 79a.62.62 0 010 1.06l-2.87 1.74a1.24 1.24 0 01-1.27 0l-3-1.71A.62.62 0 0159.5 79zm6.45 3.66l3-1.74a1.24 1.24 0 011.25 0l2.9 1.67a.62.62 0 010 1.06l-2.88 1.77a1.24 1.24 0 01-1.27 0l-3-1.71a.62.62 0 010-1.05zm6.86 3.74l3-1.74a1.24 1.24 0 011.25 0l2.9 1.67a.62.62 0 010 1.06l-2.88 1.77a1.24 1.24 0 01-1.27 0l-3-1.71a.62.62 0 010-1.05zm6.05 3.6l3-1.74a1.24 1.24 0 011.25 0L86 89.88a.62.62 0 010 1.06l-2.9 1.77a1.24 1.24 0 01-1.27 0l-3-1.71a.62.62 0 01.03-1zM85 93.75L88 92a1.24 1.24 0 011.25 0l2.9 1.67a.62.62 0 010 1.06l-2.88 1.77a1.24 1.24 0 01-1.27 0l-3-1.71a.62.62 0 010-1.04zm6.56 3.6l3-1.74a1.24 1.24 0 011.25 0l2.9 1.67a.62.62 0 010 1.06l-2.88 1.77a1.24 1.24 0 01-1.27 0l-3-1.71a.62.62 0 010-1.05zM98 101l3-1.74a1.24 1.24 0 011.25 0l2.9 1.67a.62.62 0 010 1.06l-2.88 1.77a1.24 1.24 0 01-1.27 0l-3-1.71a.62.62 0 010-1.05zm6.3 3.87l3-1.74a1.24 1.24 0 011.25 0l2.9 1.67a.62.62 0 010 1.06l-2.88 1.77a1.24 1.24 0 01-1.27 0l-3-1.71a.62.62 0 010-1.05zm6.89 4.05l3-1.74a1.24 1.24 0 011.25 0l2.9 1.67a.62.62 0 010 1.06l-2.88 1.77a1.24 1.24 0 01-1.27 0l-3-1.71a.62.62 0 010-1.05zm6.22 3.38l3-1.74a1.24 1.24 0 011.25 0l2.9 1.67a.62.62 0 010 1.06l-2.88 1.77a1.24 1.24 0 01-1.27 0l-3-1.71a.62.62 0 010-1.05zM46.24 78.81l3-1.74a1.24 1.24 0 011.25 0l2.9 1.67a.62.62 0 010 1.06l-2.88 1.77a1.24 1.24 0 01-1.27 0l-3-1.71a.62.62 0 010-1.05zm6.64 3.83l3-1.74a1.24 1.24 0 011.25 0L60 82.57a.62.62 0 010 1.06l-2.87 1.77a1.24 1.24 0 01-1.27 0l-3-1.71a.62.62 0 01.02-1.05zm6.45 3.62l3-1.74a1.24 1.24 0 011.25 0l2.9 1.67a.62.62 0 010 1.06L63.58 89a1.24 1.24 0 01-1.27 0l-3-1.71a.62.62 0 01.02-1.03zM66.2 90l3-1.74a1.24 1.24 0 011.25 0l2.9 1.67a.62.62 0 010 1.06l-2.88 1.77a1.24 1.24 0 01-1.27 0l-3-1.71a.62.62 0 010-1.05zm6.04 3.55l3-1.74a1.24 1.24 0 011.25 0l2.9 1.67a.62.62 0 010 1.06l-2.88 1.77a1.24 1.24 0 01-1.27 0l-3-1.71a.62.62 0 010-1.05zm6.15 3.8l3-1.74a1.24 1.24 0 011.25 0l2.9 1.67a.62.62 0 010 1.06l-2.88 1.77a1.24 1.24 0 01-1.27 0l-3-1.71a.62.62 0 010-1.05zm6.61 3.6l3-1.74a1.24 1.24 0 011.25 0l2.9 1.67a.62.62 0 010 1.06l-2.88 1.77a1.24 1.24 0 01-1.27 0L85 102a.62.62 0 010-1.05zm6.38 3.64l3-1.74a1.24 1.24 0 011.25 0l2.9 1.67a.62.62 0 010 1.06l-2.88 1.77a1.24 1.24 0 01-1.27 0l-3-1.71a.62.62 0 010-1.05zm6.31 3.87l3-1.74a1.24 1.24 0 011.25 0l2.9 1.67a.62.62 0 010 1.06l-2.88 1.77a1.24 1.24 0 01-1.27 0l-3-1.71a.62.62 0 010-1.05zm6.88 4.06l3-1.74a1.24 1.24 0 011.25 0l2.9 1.67a.62.62 0 010 1.06l-2.88 1.77a1.24 1.24 0 01-1.27 0l-3-1.71a.62.62 0 010-1.05zm6.23 3.37l3-1.74a1.24 1.24 0 011.25 0l2.9 1.67a.62.62 0 010 1.06l-2.95 1.77a1.24 1.24 0 01-1.27 0l-3-1.71a.62.62 0 01.07-1.05zM39.63 82.41l3-1.74a1.24 1.24 0 011.25 0l2.9 1.67a.62.62 0 010 1.06l-2.88 1.77a1.24 1.24 0 01-1.27 0l-3-1.71a.62.62 0 010-1.05zm6.64 3.82l3-1.74a1.24 1.24 0 011.25 0l2.9 1.67a.62.62 0 010 1.06L50.52 89a1.24 1.24 0 01-1.27 0l-3-1.71a.62.62 0 01.02-1.06zm6.45 3.62l3-1.74a1.24 1.24 0 011.25 0l2.9 1.67a.62.62 0 010 1.06L57 92.61a1.24 1.24 0 01-1.27 0l-3-1.71a.62.62 0 01-.01-1.05zm6.87 3.74l3-1.74a1.24 1.24 0 011.25 0l2.9 1.67a.62.62 0 010 1.06l-2.88 1.77a1.24 1.24 0 01-1.27 0l-3-1.71a.62.62 0 010-1.05zm6.04 3.55l3-1.74a1.24 1.24 0 011.25 0l2.9 1.67a.62.62 0 010 1.06l-2.9 1.77a1.24 1.24 0 01-1.27 0l-3-1.71a.62.62 0 01.02-1.05zm6.15 3.81l3-1.74a1.24 1.24 0 011.25 0l2.9 1.67a.62.62 0 010 1.06L76 103.71a1.24 1.24 0 01-1.27 0l-3-1.71a.62.62 0 01.05-1.05zm6.56 3.59l3-1.74a1.24 1.24 0 011.25 0l2.9 1.67a.62.62 0 010 1.06l-2.88 1.77a1.24 1.24 0 01-1.27 0l-3-1.71a.62.62 0 010-1.05zm6.42 3.65l3-1.74a1.24 1.24 0 011.25 0l2.9 1.67a.62.62 0 010 1.06L89 110.95a1.24 1.24 0 01-1.27 0l-3-1.71a.62.62 0 01.03-1.05zm6.32 3.87l3-1.74a1.24 1.24 0 011.25 0l2.9 1.67a.62.62 0 010 1.06l-2.88 1.77a1.24 1.24 0 01-1.27 0l-3-1.71a.62.62 0 010-1.05zm6.92 4.05l3-1.74a1.24 1.24 0 011.25 0l2.9 1.67a.62.62 0 010 1.06l-2.88 1.77a1.24 1.24 0 01-1.27 0l-3-1.71a.62.62 0 010-1.05zm6.18 3.38l3-1.74a1.24 1.24 0 011.25 0l2.9 1.67a.62.62 0 010 1.06l-2.88 1.77a1.24 1.24 0 01-1.27 0l-3-1.71a.62.62 0 010-1.05zM33 86l3-1.74a1.24 1.24 0 011.25 0l2.9 1.67a.62.62 0 010 1.06l-2.88 1.77a1.24 1.24 0 01-1.27 0l-3-1.71A.62.62 0 0133 86zm6.66 3.83l3-1.74a1.24 1.24 0 011.25 0l2.9 1.67a.62.62 0 010 1.06l-2.88 1.77a1.24 1.24 0 01-1.27 0l-3-1.71a.62.62 0 010-1.05zm6.45 3.62l3-1.74a1.24 1.24 0 011.25 0l2.9 1.67a.62.62 0 010 1.06l-2.88 1.77a1.24 1.24 0 01-1.27 0l-3-1.71a.62.62 0 010-1.05zM53 97.19l3-1.74a1.24 1.24 0 011.25 0l2.9 1.67a.62.62 0 010 1.06l-2.88 1.77A1.24 1.24 0 0156 100l-3-1.71a.62.62 0 010-1.1zm6.59 3.94l3-1.74a1.24 1.24 0 011.25 0l15.09 8.71a.62.62 0 010 1.06L76 110.93a1.24 1.24 0 01-1.27 0l-15.14-8.73a.62.62 0 010-1.07zm18.56 10.65l3-1.74a1.24 1.24 0 011.25 0l2.9 1.67a.62.62 0 010 1.06l-2.88 1.77a1.24 1.24 0 01-1.27 0l-3-1.71a.62.62 0 010-1.05zm6.32 3.87l3-1.74a1.24 1.24 0 011.25 0l2.9 1.67a.62.62 0 010 1.06l-2.88 1.77a1.24 1.24 0 01-1.27 0l-3-1.71a.62.62 0 010-1.05zm6.88 4.06l3-1.74a1.24 1.24 0 011.25 0l2.9 1.67a.62.62 0 010 1.06l-2.88 1.77a1.24 1.24 0 01-1.27 0l-3-1.71a.62.62 0 010-1.05zm6.22 3.37l3-1.74a1.24 1.24 0 011.25 0l2.9 1.67a.62.62 0 010 1.06l-2.88 1.77a1.24 1.24 0 01-1.27 0l-3-1.71a.62.62 0 010-1.05z" fill="#d4daed"/><circle cx="41.9" cy="35.66" r="1.64" fill="#5c6873"/><circle cx="42.29" cy="37.75" r="1.64" fill="#5c6873"/><path d="M48.82 34.29l-.15 4.17a3.21 3.21 0 01-1.76 3 3.81 3.81 0 01-5.72-3.18v-4a3.65 3.65 0 011.91-3.18 3.81 3.81 0 015.72 3.19z" fill="#5c6873"/><path d="M57.53 60.15a1.38 1.38 0 00.73-2.55L47.74 51v-3a1.38 1.38 0 10-2.75 0v4.49l11.81 7.45a1.37 1.37 0 00.73.21z" fill="#f2b1b5"/><path d="M54.4 92.18v1.06a.84.84 0 01-.71.83h-.18a2.22 2.22 0 01-1.5-.3l-5.45-3.34v-1.57l6.31 4.18z" fill="#c0c7cf"/><path d="M50.42 87.32l.58 2.05 2.85 1.84a1.23 1.23 0 010 2.12 1.23 1.23 0 01-1.22 0l-6-3.76v-2.25z" fill="#fff"/><path d="M46.52 96.9V98a.84.84 0 01-.71.83h-.18a2.22 2.22 0 01-1.5-.3l-5.45-3.34v-1.57L45 97.79z" fill="#c0c7cf"/><path d="M42.54 92l.54 2.05 2.85 1.84a1.23 1.23 0 010 2.12 1.23 1.23 0 01-1.22 0l-6-3.76v-2.26z" fill="#fff"/><path d="M50.41 48.07v39.48a1.92 1.92 0 01-1 1.66 1.92 1.92 0 01-2.88-1.66l-2-36.82z" fill="#5c6873"/><path d="M49.91 48.3v39.25a1.93 1.93 0 01-1.67 1.91 1.9 1.9 0 001.21-.24 1.92 1.92 0 001-1.67V48.07z" fill="#80909f" opacity=".24"/><path fill="#020202" opacity=".1" d="M45.15 61.41l.76 14.01 4-9.68V48.07l-4.76 2.4v10.94z"/><path d="M45.16 53l-2.57 39.08a1.92 1.92 0 01-1 1.67 1.92 1.92 0 01-2.88-1.67V54.81z" fill="#5c6873"/><path d="M50.41 48.12v16.45a2.61 2.61 0 01-1.3 2.26l-8.41 4.86a1.3 1.3 0 01-1.95-1.12V54.11A2.61 2.61 0 0140 51.85L48.46 47a1.3 1.3 0 011.95 1.12z" fill="#5c6873"/><path d="M50.95 44.92v13.24c0 1.8.13 4.63-1.43 5.53 0 0-5.33 4.92-11.22 4.54 0 0-1.56-14.7 0-20.14.09-.32.23-.75.4-1.21A5.13 5.13 0 0141.46 44l4.49-2a3.33 3.33 0 015 2.92z" fill="#5d78b1"/><path d="M51.62 63.69a1.38 1.38 0 001.22-.74 1.43 1.43 0 00-.55-1.84l-10.45-6.54v-2.91a1.41 1.41 0 00-1.1-1.4 1.38 1.38 0 00-1.65 1.35v2.82A3 3 0 0040.5 57l10.4 6.5a1.37 1.37 0 00.72.19z" fill="#f2b1b5"/><path d="M40.33 55.31a1.51 1.51 0 001.51-1.51v-5.59a1.51 1.51 0 10-3 0v5.59a1.51 1.51 0 001.49 1.51z" fill="#5d78b1"/><path d="M44 46.09a1.38 1.38 0 001.38-1.36v-4.4a1.38 1.38 0 00-2.75 0v4.4a1.38 1.38 0 001.36 1.39z" fill="#f2b1b5"/><path d="M42.62 42.92v-2.63a1.38 1.38 0 012.75 0v3c-.44.13-.91-.19-1.39-.19z" fill="#231f20" opacity=".3"/><path d="M42.62 42.92h3.08a3.12 3.12 0 003.12-3.12v-5.2H45.4a2.78 2.78 0 00-2.78 2.78z" fill="#f2b1b5"/><path d="M48.32 34.61v5.2a3.12 3.12 0 01-3.12 3.12h.5a3.12 3.12 0 003.12-3.12v-5.2z" fill="#f5c5c8"/><circle cx="42.62" cy="36.84" r=".72" fill="#f2b1b5"/><rect x="42.93" y="33.57" width="1.04" height="4.18" rx=".25" ry=".25" transform="rotate(180 43.455 35.66)" fill="#5c6873"/><circle cx="48.12" cy="34.02" r="1.18" fill="#5c6873"/><circle cx="45.72" cy="33.75" r="1.18" fill="#5c6873"/><circle cx="44" cy="34.21" r="1.18" fill="#5c6873"/><circle cx="48.12" cy="32.57" r="1.64" fill="#5c6873"/><circle cx="45.72" cy="31.92" r="1.64" fill="#5c6873"/><circle cx="43.93" cy="31.92" r="1.64" fill="#5c6873"/><circle cx="42.29" cy="33.56" r="1.64" fill="#5c6873"/><path d="M53.88 49.95a3.75 3.75 0 00-3.4 0l-11.77 6.74a1.05 1.05 0 000 2l8 4.75a3.72 3.72 0 003.4 0l11.78-6.8a1.05 1.05 0 000-2z" fill="url(#d)"/><path d="M53.88 49.27a3.75 3.75 0 00-3.4 0L38.71 56a1.05 1.05 0 000 2l8 4.75a3.72 3.72 0 003.4 0L61.87 56a1.05 1.05 0 000-2z" fill="#f1f2f2"/><path d="M52.52 49.27a3.75 3.75 0 00-3.4 0L37.35 56a1.05 1.05 0 000 2l8 4.75a3.72 3.72 0 003.4 0L60.51 56a1.05 1.05 0 000-2z" fill="url(#e)"/><path d="M52.52 48.58a3.75 3.75 0 00-3.4 0l-11.77 6.74a1.05 1.05 0 000 2l8 4.75a3.72 3.72 0 003.4 0l11.78-6.8a1.05 1.05 0 000-2z" fill="url(#b)"/><path d="M53.88 46.54a3.75 3.75 0 00-3.4 0l-11.77 6.74a1.05 1.05 0 000 2l8 4.75a3.72 3.72 0 003.4 0l11.78-6.8a1.05 1.05 0 000-2z" fill="url(#f)"/><path d="M53.88 45.86a3.75 3.75 0 00-3.4 0L38.71 52.6a1.05 1.05 0 000 2l8 4.75a3.72 3.72 0 003.4 0l11.78-6.8a1.05 1.05 0 000-2z" fill="#f1f2f2"/><path d="M56.83 51.93c0-.16-.23-.3-.52-.3H55.2c-.18 0-.49.19-.53.14s0-.21.08-.28l.78-.45c.2-.12-1.09-.06-1.29-.18h.51l.78-.45a.27.27 0 00.15-.19v-.82h-1.16l-.26-.15a.81.81 0 00-.73 0l-.26.15h-1.62v-.6c0-.16-.23-.3-.52-.3h-1.8c-.29 0-.52.13-.52.3v.6h-1.64l-.25-.14a.81.81 0 00-.73 0l-.25.14h-1.18v.8a.25.25 0 00.15.22l.79.45h.39V51c-.2.12-1.38 0-1.18.1l.79.45c.12.07.16.18.09.27s-.36-.13-.53-.13h-1.12c-.29 0-.52.13-.52.3v1.52c0 .16.23.3.52.3h.65v1.25a.17.17 0 000 .06.27.27 0 00.15.18l1.28.73a.79.79 0 00.46.08.7.7 0 00.27-.08l.79-.46a.68.68 0 01.47-.05l.34.08c.16 0 .27.13.27.23v.64c0 .17.23.3.52.3h1.81c.29 0 .52-.13.52-.3v-.67c0-.11.12-.2.29-.23l.31-.07a.69.69 0 01.49 0l.78.45a.7.7 0 00.27.08.78.78 0 00.45-.08l1.28-.74a.28.28 0 00.15-.17v-1.28h.64c.29 0 .52-.13.52-.3zm-4.08 1.27c-.3.92-2 1.44-3.44 1.11-1.13-.25-1.82-1-1.59-1.64.3-.92 2-1.44 3.44-1.11 1.12.25 1.84.96 1.59 1.64z" fill="url(#g)"/><path d="M54.9 52.32h1.42c.29 0 .52-.13.52-.3V51c0-.16-.23-.3-.52-.3H55.2a.49.49 0 01-.41-.17l-.13-.18c-.08-.1 0-.21.08-.28l.78-.45a.22.22 0 000-.42l-1.28-.73a.81.81 0 00-.73 0l-.79.45a.68.68 0 01-.47.05l-.34-.08c-.16 0-.27-.13-.27-.23V48c0-.16-.23-.3-.52-.3h-1.79c-.29 0-.52.13-.52.3v.64c0 .11-.12.2-.29.23l-.32.08a.69.69 0 01-.49 0l-.79-.45a.81.81 0 00-.73 0l-1.27.74a.22.22 0 000 .42l.79.45c.12.07.16.18.09.27l-.14.2a.49.49 0 01-.4.16h-1.12c-.29 0-.52.13-.52.3v1c0 .16.23.3.52.3h1.11a.49.49 0 01.41.17l.13.18c.08.1 0 .21-.08.28l-.78.45a.22.22 0 000 .42l1.28.73a.81.81 0 00.73 0l.79-.46a.68.68 0 01.47-.11l.34.08c.16 0 .27.13.27.23V55c0 .17.23.3.52.3h1.81c.29 0 .52-.13.52-.3v-.64c0-.11.12-.2.29-.23l.31-.07a.69.69 0 01.49 0l.78.45a.81.81 0 00.73 0l1.28-.74a.22.22 0 000-.42l-.79-.45c-.12-.07-.16-.18-.09-.27s.23-.3.24-.31zm-7.19-1.08c.3-.92 2-1.44 3.44-1.11 1.13.25 1.82 1 1.59 1.64-.3.92-2 1.44-3.44 1.11-1.13-.26-1.81-.96-1.59-1.65z" fill="url(#h)"/><path d="M126.44 35a2.57 2.57 0 00-1.15-2l-46-26.72a.9.9 0 00-.86 0l-.72.37.29 62.6a2.57 2.57 0 001.15 2l46.57 27.69.71.41z" fill="url(#i)"/><path d="M125.72 35.48a2.57 2.57 0 00-1.15-2L78.43 6.68c-.63-.37-1.15-.07-1.15.66v63.47l48.44 28.13z" fill="#f9f7f9"/><path d="M124.57 33.47L78.43 6.68c-.63-.37-1.15-.07-1.15.66v3l48.44 28.13v-3a2.57 2.57 0 00-1.15-2z" fill="#48486a"/><path d="M79.84 9.21c-.21-.12-.38 0-.38.22a.83.83 0 00.38.65c.21.12.38 0 .38-.22a.84.84 0 00-.38-.65zm1.64.97c-.21-.12-.38 0-.38.22a.83.83 0 00.38.65c.21.12.38 0 .38-.22a.84.84 0 00-.38-.65zm1.64.98c-.21-.12-.38 0-.38.22a.83.83 0 00.38.65c.21.12.38 0 .38-.22a.84.84 0 00-.38-.65z" fill="#fff"/><path fill="#e5e9f4" d="M81.09 17.67V36l40.44 23.28V41.06L81.09 17.67z"/><path fill="#fff" d="M94.99 28.28v1.4l24.72 14.33v-1.4L94.99 28.28z"/><path d="M81.03 59.31v1.4l40.5 23.53v-1.4l-40.5-23.53zm0 3.8v1.41l40.5 23.53v-1.4l-40.5-23.54zm0 4v1.41l40.5 23.53v-1.4l-40.5-23.54z" fill="#eef0f8"/><path fill="#fff" d="M94.99 32.09v1.4l24.72 14.33v-1.4L94.99 32.09zm0 3.81v1.4l24.72 14.33v-1.4L94.99 35.9zm0 3.81v1.4l11.58 6.71v-1.4l-11.58-6.71z"/><path fill="#eef0f8" d="M81.29 37.75v14.62l11.63 6.85V44.7l-11.63-6.95zm28.62 16.95v14.62l11.62 6.85V61.65l-11.62-6.95z"/><path d="M87.44 24.2c-2.95-1.7-5.36-.3-5.36 3.11a11.92 11.92 0 005.37 9.3c3 1.71 5.36.31 5.36-3.11a12 12 0 00-5.37-9.3z" fill="#fff"/><path fill="#eef0f8" d="M96.07 47.66v14.62l11.62 6.85V54.61l-11.62-6.95z"/><path opacity=".3" fill="url(#j)" d="M93.11 48.61v14.62l11.62 6.85V55.56l-11.62-6.95z"/><path fill="url(#k)" d="M89.73 51.47l-.76.19.76 14.43 10.87 7.04.76-.19V58.42l-11.63-6.95z"/><path fill="url(#l)" d="M88.97 51.66v14.62l11.63 6.85V58.61l-11.63-6.95z"/><path d="M88.39 30.24a1 1 0 00.32-.84 3.07 3.07 0 00-1.38-2.4c-.76-.44-1.38-.08-1.38.8a3 3 0 00.71 1.8 2.21 2.21 0 00-1.27 2v.55l4.11 2.4v-1.1a5.16 5.16 0 00-1.11-3.21z" fill="#c2cae8"/><path d="M75 41.44v-1.75a1.17 1.17 0 00-.53-.91l-5.29-3v9.54l4.93 2.79.13.05a.28.28 0 00.27.05.73.73 0 00.5-.69v-3l.63-.25a.43.43 0 00.37-.61z" fill="#231f20" opacity=".1"/><path d="M54.12 27.13a.83.83 0 011-.13l18.61 10.77a1.17 1.17 0 01.53.91v1.75l1 2.22a.43.43 0 01-.39.61h-.61v3.25a.73.73 0 01-.5.69.28.28 0 01-.27-.05L54.61 36.24a1.18 1.18 0 01-.57-.89v-8a.26.26 0 01.08-.22z" fill="url(#m)"/><path d="M54 27.47c0-.34.24-.47.53-.3L73.36 38a1.17 1.17 0 01.53.91v1.75l1 2.22a.43.43 0 01-.39.61h-.61v3.28c0 .34-.24.47-.53.3L54.57 36.25a1.17 1.17 0 01-.53-.91z" fill="#f9f7f9"/><path fill="#c2cae8" d="M72.67 42.68L61.8 36.43v-.71l10.87 6.25v.71zm0 1.4L61.8 37.84v-.71l10.87 6.25v.7zm-4.82-1.38l-6.05-3.46v-.7L67.85 42v.7zm-.52-5.08l-5.53-3.28v-1.87l5.53 3.3v1.85z"/><path d="M61.08 30.92l-6.51-3.76c-.29-.17-.53 0-.53.3v7.87a1.17 1.17 0 00.53.91L61.08 40z" fill="#48486a"/><path d="M59 35.41q.16.09.28-.13a1.42 1.42 0 00.12-.66 3.87 3.87 0 00-.47-1.83 3.23 3.23 0 00-1.26-1.34 1.24 1.24 0 00-1.33-.11 1.37 1.37 0 00-.54 1.25 3.61 3.61 0 00.51 1.8 3.4 3.4 0 001.26 1.32 1 1 0 001 .09l.24.61a1 1 0 01-.59 0 2.05 2.05 0 01-.68-.24 4.84 4.84 0 01-2.27-3.91 1.62 1.62 0 01.69-1.53 1.59 1.59 0 011.66.15 4.39 4.39 0 011.62 1.69 4.55 4.55 0 01.65 2.27 1.56 1.56 0 01-.26 1 .51.51 0 01-.69.05 1.28 1.28 0 01-.4-.38 1.61 1.61 0 01-.25-.53.64.64 0 01-.81 0 2.36 2.36 0 01-.85-.92 2.59 2.59 0 01-.36-1.3 1.13 1.13 0 01.33-.93.72.72 0 01.86 0 1.37 1.37 0 01.34.29 1.84 1.84 0 01.23.31l.08.13v-.28l.72.41V35q-.04.31.17.41zm-.89-1.52a1.43 1.43 0 00-.15-.64 1 1 0 00-.4-.45q-.25-.14-.4 0a.61.61 0 00-.15.46 1.57 1.57 0 00.15.65 1 1 0 00.4.47q.26.15.4 0a.66.66 0 00.11-.49z" fill="#fff"/><path d="M134.24 55.5l-16.6-11.22v13.5l18 10.61V57.88a2.75 2.75 0 00-1.4-2.38zM85.71 72a4 4 0 00.48 0 3.93 3.93 0 003-1.35l3.16-3.59.5-.57a1.65 1.65 0 00.15-3.21l1.3-1.36a.18.18 0 000-.25l-.3-.26a.18.18 0 00-.25 0l-2.33 2.45a.17.17 0 000 .1 1.65 1.65 0 00-.17.31l-.15.14-.65.74-3.3 3.75a1.22 1.22 0 01-1.3.37h-.1v-2.95a8.45 8.45 0 00-3.36-6.74l-.09-.39a3.41 3.41 0 002.56-3.3v-3.52l.11-.1c.79-.73 1.19-1.45.39-2.39a2.18 2.18 0 00-.27-.27l-.09-.06-.23-.16-.1-.05-.27-.13h-.07a7.64 7.64 0 00-4.53.2c-1.91.61-4.31 1.33-4.66 3.64a11.66 11.66 0 000 1.78 8.82 8.82 0 01-.92 4c-.87 1.75-1.29 2.86-.37 4.68.26.51.48 1.16.76 1.78A10.28 10.28 0 0073.26 68v.62L75.61 70a7.49 7.49 0 01.45-1.8l.08 2.11 9.57 5.56V72z" fill="#231f20" opacity=".1"/><path d="M82.63 108.58l-.71-.2a3.91 3.91 0 00-3.36.58l-.74-.55-.75 1.73-3.62-.31.79 3.22a.6.6 0 00.41.43l1.49.44a3.62 3.62 0 003.51-.85l3.3-3.14a.79.79 0 00-.32-1.35z" fill="#c0c7cf"/><path d="M82.63 108.58l-.71-.2a3.91 3.91 0 00-3.36.58l-.74-.55-.75 1.73-3.62-.31.41 1.67a2.14 2.14 0 001.49 1.5l.64.19a3.62 3.62 0 003.51-.85l3.3-3.14a.34.34 0 00-.16-.65z" fill="#fff"/><path d="M77.55 109.79a1 1 0 00-.45-1.84 3.66 3.66 0 00-3.2.78 1 1 0 00.45 1.84 3.66 3.66 0 003.2-.78z" fill="#80909f"/><path d="M87.65 113.17l-.64-.37a3.91 3.91 0 00-3.4-.24l-.59-.7-1.14 1.5-3.44-1.16v3.31a.6.6 0 00.3.52l1.34.78a3.62 3.62 0 003.61 0l4-2.27a.79.79 0 00-.04-1.37z" fill="#c0c7cf"/><path d="M87.65 113.17l-.64-.37a3.91 3.91 0 00-3.4-.24l-.59-.7-1.14 1.5-3.44-1.16v1.72a2.14 2.14 0 001.06 1.85l.57.33a3.62 3.62 0 003.61 0l4-2.27a.34.34 0 000-.67z" fill="#fff"/><path d="M82.42 113.14a1 1 0 000-1.9 3.66 3.66 0 00-3.3 0 1 1 0 000 1.9 3.66 3.66 0 003.3 0z" fill="#80909f"/><path d="M80.76 112.94a1.19 1.19 0 01-1.19-1.19v-4.61a1.19 1.19 0 112.39 0v4.61a1.19 1.19 0 01-1.2 1.19zm-5.2-3.04a1.19 1.19 0 01-1.19-1.19v-4.6a1.19 1.19 0 112.39 0v4.6a1.19 1.19 0 01-1.2 1.19z" fill="#ef9ea3"/><path d="M75.56 81a1.36 1.36 0 01-1.18-.68L71.91 76a10.25 10.25 0 012.66-13.26l.68-.51a1.37 1.37 0 111.65 2.17l-.68.51a7.51 7.51 0 00-2 9.72l2.47 4.28a1.37 1.37 0 01-1.18 2z" fill="#53ceae"/><path fill="#fff" d="M81 87.9l-6.79-4.26v-8.63h6.98L81 87.9z"/><path d="M80.77 111.61h-.16a1.88 1.88 0 01-1.72-2l1-12.35-1.51-16.17c-.06-1 1.23-1.93 2.27-2a1.88 1.88 0 012 1.76l1 16.4-1 12.62a1.88 1.88 0 01-1.88 1.74z" fill="#fff"/><path d="M82.64 80.86a1.88 1.88 0 00-2-1.76h-.13a1.88 1.88 0 011.62 1.74l1 16.4-1 12.62a1.87 1.87 0 01-1.62 1.7h.25a1.88 1.88 0 001.87-1.72l1-12.62z" fill="#ffd900" opacity=".1"/><path d="M75.56 109.15h-.09a1.88 1.88 0 01-1.79-2l.51-11.27-.51-18A1.88 1.88 0 0175.51 76c1 0 2.41.79 2.44 1.82V96l-.51 11.34a1.88 1.88 0 01-1.88 1.81z" fill="#fff"/><path d="M73 77.94l.19-1.79a25.55 25.55 0 00.23-3.72 7.44 7.44 0 00.84 2.22l2.47 4.28a1.37 1.37 0 11-2.36 1.37z" fill="#37bea1"/><path d="M73.32 55.61L79.21 59a8.45 8.45 0 014.22 7.31V83.1c-2.39 1.67-8.83-.66-10.12-3.28l.38-3.67a25.54 25.54 0 00.22-4.4z" fill="#53ceae"/><path d="M75.61 51.29h6.94v5.8a2.21 2.21 0 01-2.21 2.21h-4.73v-8.01z" fill="#f2b1b5"/><path d="M76.48 54.83h2.9v5.34a.46.46 0 01-.46.46h-2a.46.46 0 01-.46-.46v-5.34h.02z" fill="#f2b1b5"/><path d="M83.44 70a1.21 1.21 0 01-.77-1l-.55-4.26a1.37 1.37 0 00-1.53-1.18c-.75.1-.78.88-.69 1.63l.1 4.16a3.93 3.93 0 002.78 3.29 4.07 4.07 0 00.7.14z" fill="#37bea1"/><path d="M83.92 72.07a4 4 0 01-1.18-.18A3.93 3.93 0 0180 68.6l-.55-4.26a1.37 1.37 0 012.67-.34l.55 4.26a1.24 1.24 0 002.16.66l4-4.49a1.37 1.37 0 112.05 1.8l-4 4.49a3.93 3.93 0 01-2.96 1.35z" fill="#53ceae"/><path d="M88.13 65.16l.65-.74a1.37 1.37 0 112.05 1.8l-.79.9z" fill="#f2b1b5"/><circle cx="90.46" cy="64.91" r="1.65" fill="#f2b1b5"/><rect x="88.71" y="62.53" width="3.74" height=".73" rx=".12" ry=".12" transform="rotate(-46.41 90.584 62.899)" fill="#f2b1b5"/><path d="M83.05 49.88c-1.2-1.42-4-1-5.56-.5-1.91.61-4.31 1.33-4.66 3.64a11.67 11.67 0 000 1.78 8.82 8.82 0 01-.92 4c-.87 1.75-1.29 2.86-.37 4.68.55 1.07.89 2.75 2 3.41s3.58 1.1 4.67.27c1.53-1.16 2.3-4 2.16-5.77s-1.12-3.91-.53-5.77c.37-1.17 1.94-2.47 2.82-3.29s1.18-1.5.39-2.45z" fill="#54200c"/><path d="M83.05 49.88a3.79 3.79 0 00-3.19-.95 3.19 3.19 0 012.32.95c.79.94.4 1.66-.39 2.39S79.33 54.4 79 55.56c-.59 1.86.38 3.83.53 5.77s-.63 4.61-2.16 5.77a2.63 2.63 0 01-1.38.43 3.36 3.36 0 002.25-.43c1.53-1.16 2.3-4 2.16-5.77s-1.12-3.91-.53-5.77c.37-1.17 1.94-2.47 2.82-3.29s1.15-1.44.36-2.39z" fill="#f0f0f0" opacity=".2"/><path d="M118.69 43.43a.81.81 0 011-.14L136.46 53a1.3 1.3 0 01.58 1v12.6a.58.58 0 01-.46.57h-.1a.77.77 0 01-.55-.09l-16.81-9.68a1.3 1.3 0 01-.58-1V43.8a.52.52 0 01.15-.37z" fill="url(#n)"/><path d="M118.47 43.45c0-.37.26-.52.59-.34l16.86 9.74a1.3 1.3 0 01.59 1v12.54c0 .37-.26.52-.59.34L119.05 57a1.3 1.3 0 01-.59-1z" fill="#f9f7f9"/><path d="M119.13 57.44L136 67.17c.32.19.59 0 .59-.34v-2.38l-18-10.4v2.4a1.3 1.3 0 00.54.99z" fill="#48486a"/><path d="M129.91 55.87l-3.15.32c-.36 0-.82-.44-.82-.86v-3.64c0-.42.46-.47.82-.08l3.15 3.32c.36.38.36.91 0 .95l-3.15.32c-.36 0-.82-.44-.82-.86v-3.65c0-.42.46-.47.82-.08l3.15 3.32c.36.37.36.9 0 .94z" fill="#c2cae8"/><path d="M134.42 65a.25.25 0 01-.12 0l-13.88-8a.25.25 0 01.25-.43l13.88 8a.25.25 0 01-.13.47z" fill="#fff"/><path d="M126.9 60.67a.25.25 0 01-.12 0L120.42 57a.25.25 0 01.25-.43l6.33 3.64a.25.25 0 01-.13.47z" fill="url(#o)"/><path d="M127.27 60.87a.27.27 0 01-.51 0 1 1 0 010-.88.27.27 0 01.51 0 1 1 0 010 .88z" fill="url(#p)"/></svg>